<svg
  xmlns="http://www.w3.org/2000/svg"
  xmlns:xlink="http://www.w3.org/1999/xlink"
  id="Layer_1"
  data-name="Layer 1"
  viewBox="0 0 1385.07 123.29"
><defs><style
    >.cls-1,.cls-10,.cls-11,.cls-12,.cls-13,.cls-14,.cls-15,.cls-16,.cls-2,.cls-3,.cls-4,.cls-5,.cls-6,.cls-7,.cls-8,.cls-9{fill:none;stroke-miterlimit:10;stroke-width:3px;}.cls-1{stroke:url(#Degradado_sin_nombre_2074);}.cls-2{stroke:url(#Degradado_sin_nombre_2074-2);}.cls-3{stroke:url(#Degradado_sin_nombre_2074-3);}.cls-4{stroke:url(#Degradado_sin_nombre_2074-4);}.cls-5{stroke:url(#Degradado_sin_nombre_2074-5);}.cls-6{stroke:url(#Degradado_sin_nombre_2074-6);}.cls-7{stroke:url(#Degradado_sin_nombre_2074-7);}.cls-8{stroke:url(#Degradado_sin_nombre_2074-8);}.cls-9{stroke:url(#Degradado_sin_nombre_2074-9);}.cls-10{stroke:url(#Degradado_sin_nombre_2074-10);}.cls-11{stroke:url(#Degradado_sin_nombre_2074-11);}.cls-12{stroke:url(#Degradado_sin_nombre_2074-12);}.cls-13{stroke:url(#Degradado_sin_nombre_2074-13);}.cls-14{stroke:url(#Degradado_sin_nombre_2074-14);}.cls-15{stroke:url(#Degradado_sin_nombre_2074-15);}.cls-16{stroke:url(#Degradado_sin_nombre_2074-16);}</style><linearGradient
      id="Degradado_sin_nombre_2074"
      y1="61.9"
      x2="98.98"
      y2="61.9"
      gradientUnits="userSpaceOnUse"
    ><stop offset="0" stop-color="#cb01ff" /><stop
        offset="1"
        stop-color="#00ff57"
      /></linearGradient><linearGradient
      id="Degradado_sin_nombre_2074-2"
      x1="112.22"
      y1="60.71"
      x2="140.55"
      y2="60.71"
      xlink:href="#Degradado_sin_nombre_2074"
    /><linearGradient
      id="Degradado_sin_nombre_2074-3"
      x1="148.01"
      y1="64.35"
      x2="209.58"
      y2="64.35"
      xlink:href="#Degradado_sin_nombre_2074"
    /><linearGradient
      id="Degradado_sin_nombre_2074-4"
      x1="214.66"
      y1="76.99"
      x2="298.22"
      y2="76.99"
      xlink:href="#Degradado_sin_nombre_2074"
    /><linearGradient
      id="Degradado_sin_nombre_2074-5"
      x1="309.87"
      y1="61.9"
      x2="386.67"
      y2="61.9"
      xlink:href="#Degradado_sin_nombre_2074"
    /><linearGradient
      id="Degradado_sin_nombre_2074-6"
      x1="404.58"
      y1="76.06"
      x2="453.91"
      y2="76.06"
      xlink:href="#Degradado_sin_nombre_2074"
    /><linearGradient
      id="Degradado_sin_nombre_2074-7"
      x1="460.1"
      y1="76.99"
      x2="545.22"
      y2="76.99"
      xlink:href="#Degradado_sin_nombre_2074"
    /><linearGradient
      id="Degradado_sin_nombre_2074-8"
      x1="602.92"
      y1="61.9"
      x2="695.18"
      y2="61.9"
      xlink:href="#Degradado_sin_nombre_2074"
    /><linearGradient
      id="Degradado_sin_nombre_2074-9"
      x1="715.48"
      y1="61.9"
      x2="801.03"
      y2="61.9"
      xlink:href="#Degradado_sin_nombre_2074"
    /><linearGradient
      id="Degradado_sin_nombre_2074-10"
      x1="800.32"
      y1="61.9"
      x2="888.5"
      y2="61.9"
      xlink:href="#Degradado_sin_nombre_2074"
    /><linearGradient
      id="Degradado_sin_nombre_2074-11"
      x1="940.68"
      y1="61.9"
      x2="1033.71"
      y2="61.9"
      xlink:href="#Degradado_sin_nombre_2074"
    /><linearGradient
      id="Degradado_sin_nombre_2074-12"
      x1="1037.68"
      y1="76.99"
      x2="1122.8"
      y2="76.99"
      xlink:href="#Degradado_sin_nombre_2074"
    /><linearGradient
      id="Degradado_sin_nombre_2074-13"
      x1="1135.78"
      y1="76.06"
      x2="1185.12"
      y2="76.06"
      xlink:href="#Degradado_sin_nombre_2074"
    /><linearGradient
      id="Degradado_sin_nombre_2074-14"
      x1="1189.34"
      y1="64.35"
      x2="1250.92"
      y2="64.35"
      xlink:href="#Degradado_sin_nombre_2074"
    /><linearGradient
      id="Degradado_sin_nombre_2074-15"
      x1="1257.27"
      y1="76.99"
      x2="1340.9"
      y2="76.99"
      xlink:href="#Degradado_sin_nombre_2074"
    /><linearGradient
      id="Degradado_sin_nombre_2074-16"
      x1="1356.74"
      y1="61.9"
      x2="1385.07"
      y2="61.9"
      xlink:href="#Degradado_sin_nombre_2074"
    /></defs><path
    class="cls-1"
    d="M1.5,3.88H55.57q14.54,0,21.85,3.57A31.9,31.9,0,0,1,89.49,17.64q4.76,6.63,4.76,16.14,0,19.29-20.91,25.74,12.06,2.73,18.1,10.81a28.74,28.74,0,0,1,6,17.61q0,13-9.86,22.5t-32.05,9.48H1.5ZM28.62,24.37V49.79H49.19q11.31,0,14.24-4.47a15.6,15.6,0,0,0,2.94-8.54,12.19,12.19,0,0,0-2.43-7.61,10.26,10.26,0,0,0-5.31-4q-2.9-.81-11.39-.81Zm0,46.08v28H49.49q10.68,0,15.1-3.75T69,84.22a13,13,0,0,0-4.24-9.69q-4.25-4.08-14.08-4.08Z"
  /><path
    class="cls-2"
    d="M139.05,1.5V26.83H113.72V1.5Zm0,32.56v85.86H113.72V34.06Z"
  /><path
    class="cls-3"
    d="M188.44,53.78v36.3q0,6.81,2,9.1t9.56,2.3c2.32,0,5-.12,8-.34v18.78a108.3,108.3,0,0,1-15.89,1.87q-15.83,0-22.45-6.07t-6.63-22v-40h-13.6V34.06h15.05l2-25.33L188.44,7v27h18.45V53.78Z"
  /><path
    class="cls-4"
    d="M296.58,87.7q-1.44,15.22-12,24.62t-27.33,9.39q-18.2,0-29.63-12T216.16,77.5q0-20.15,11.69-32.69t31.24-12.54q15.74,0,26.06,9.44a34.5,34.5,0,0,1,11.43,23.63L273,66.7q-1.2-15.47-13.43-15.47-15.06,0-15,24.66,0,16.41,4.21,20.83a13.62,13.62,0,0,0,10.24,4.42q11.73,0,14-14.88Z"
  /><path
    class="cls-5"
    d="M335.94,3.88V45.73q7-13.45,23.21-13.46A27.86,27.86,0,0,1,374,36.06a20.82,20.82,0,0,1,8.67,9.73q2.5,6,2.51,17.43v56.7H359.83V71.49a69.18,69.18,0,0,0-.67-11.92,9.85,9.85,0,0,0-3.1-5.4A8.7,8.7,0,0,0,350,52a15.07,15.07,0,0,0-9.41,3.7q-4.65,3.7-4.66,15.79v48.43H311.37V3.88Z"
  /><path
    class="cls-6"
    d="M430.65,119.92H406.08V34.06h23.21V50q5.35-17.85,18.53-17.85c1.25,0,2.78.08,4.59.25v25q-7.73,0-12,2.38t-7,8.54q-2.72,6.17-2.72,16.62Z"
  /><path
    class="cls-7"
    d="M502.1,32.27q19.62,0,30.62,12.84t11,32.14q0,19-11.42,31.75t-30.36,12.71q-18.35,0-29.35-12.58t-11-32.31q0-13.68,5-23.25a41.26,41.26,0,0,1,13.63-15.43Q488.86,32.27,502.1,32.27Zm.68,16.58q-7.2,0-10.85,5.57t-3.64,22.15q0,15.21,3.47,21.85a11.48,11.48,0,0,0,10.85,6.63A12.22,12.22,0,0,0,513,99.39q4-5.65,4-21.55,0-16.92-3.51-23A11.59,11.59,0,0,0,502.78,48.85Z"
  /><path
    class="cls-8"
    d="M693.68,3.88v116H670.49L625.08,41.54c0,2,.11,3.29.17,3.91a47.29,47.29,0,0,1,.34,5v69.45H604.42V3.88h29.3l39.47,68.44q-.51-5.1-.51-7.74V3.88Z"
  /><path
    class="cls-9"
    d="M799.53,26.83H745.2v26h42.93V74.53H745.2v45.39H717V3.88h82.55Z"
  /><path
    class="cls-10"
    d="M887,3.88v23H858.27v93.09H830.72V26.83h-28.9V3.88Z"
  /><path
    class="cls-11"
    d="M969.81,76.82v43.1H942.18V3.88h45.74q15.3,0,23.42,3.27t14.49,11.69q6.38,8.41,6.38,20.66a43.27,43.27,0,0,1-3.4,16.75,30.2,30.2,0,0,1-9.61,12.84,35.29,35.29,0,0,1-12,6.2q-5.82,1.53-18.23,1.53Zm-.94-21.08h17.69q10.11,0,14.19-4.68a15.8,15.8,0,0,0,4.08-10.71q0-7.05-4.54-11.22T986.47,25h-17.6Z"
  /><path
    class="cls-12"
    d="M1079.69,32.27q19.62,0,30.61,12.84t11,32.14q0,19-11.42,31.75t-30.36,12.71q-18.35,0-29.34-12.58t-11-32.31q0-13.68,5-23.25a41.18,41.18,0,0,1,13.63-15.43Q1066.44,32.27,1079.69,32.27Zm.68,16.58q-7.21,0-10.85,5.57t-3.65,22.15q0,15.21,3.48,21.85a11.46,11.46,0,0,0,10.85,6.63,12.21,12.21,0,0,0,10.42-5.66q4-5.65,4-21.55,0-16.92-3.52-23A11.59,11.59,0,0,0,1080.37,48.85Z"
  /><path
    class="cls-13"
    d="M1161.85,119.92h-24.57V34.06h23.21V50q5.35-17.85,18.54-17.85c1.24,0,2.77.08,4.59.25v25q-7.74,0-12,2.38c-2.87,1.59-5.2,4.43-7,8.54S1161.85,78,1161.85,85Z"
  /><path
    class="cls-14"
    d="M1229.78,53.78v36.3q0,6.81,2,9.1c1.36,1.53,4.54,2.3,9.57,2.3,2.31,0,5-.12,8-.34v18.78a108.4,108.4,0,0,1-15.9,1.87q-15.81,0-22.44-6.07t-6.63-22v-40h-13.61V34.06h15.05l2-25.33L1229.78,7v27h18.45V53.78Z"
  /><path
    class="cls-15"
    d="M1338.85,119.92h-24.57a61.34,61.34,0,0,1-1.19-13.43q-6.45,9.18-12.86,12.2a33.77,33.77,0,0,1-14.55,3q-12.06,0-19.48-6.55t-7.43-17.59a27.12,27.12,0,0,1,4.33-14.88Q1267.42,75.88,1277,72t35-5.74V61.35q0-12.49-12.46-12.5-13.3,0-14.83,12.5l-23.38-2.21q2.29-14.62,13.86-20.74a55,55,0,0,1,26.18-6.13,64.39,64.39,0,0,1,16.49,2q7.74,2,12.08,6.13a21.3,21.3,0,0,1,5.86,8.62q1.53,4.56,1.53,15.86v38.94Q1337.32,115.08,1338.85,119.92ZM1312,78.78q-26.52,2.63-26.53,16.07a11.59,11.59,0,0,0,2.8,7.77q2.79,3.28,8,3.28a13.93,13.93,0,0,0,11.22-5.57A21,21,0,0,0,1312,86.6Z"
  /><path class="cls-16" d="M1358.24,119.92V3.88h25.33v116Z" /></svg>
