<svg id="Layer_1" data-name="Layer 1" xmlns="http://www.w3.org/2000/svg" xmlns:xlink="http://www.w3.org/1999/xlink" viewBox="0 0 500 487.39"><defs><style>.cls-1{fill:url(#Degradado_sin_nombre_2074);}.cls-2{fill:url(#Degradado_sin_nombre_2074-2);}.cls-3{fill:url(#Degradado_sin_nombre_2074-3);}.cls-4{fill:url(#Degradado_sin_nombre_2074-4);}.cls-5{fill:url(#Degradado_sin_nombre_2074-5);}.cls-6{fill:none;stroke:#fff;stroke-miterlimit:10;stroke-width:6px;}</style><linearGradient id="Degradado_sin_nombre_2074" x1="104.9" y1="243.79" x2="394.93" y2="243.79" gradientUnits="userSpaceOnUse"><stop offset="0" stop-color="#c901fd"/><stop offset="1" stop-color="#00ff57"/></linearGradient><linearGradient id="Degradado_sin_nombre_2074-2" x1="104.94" y1="90.4" x2="394.88" y2="90.4" xlink:href="#Degradado_sin_nombre_2074"/><linearGradient id="Degradado_sin_nombre_2074-3" x1="105.15" y1="397.13" x2="394.94" y2="397.13" xlink:href="#Degradado_sin_nombre_2074"/><linearGradient id="Degradado_sin_nombre_2074-4" x1="-0.67" y1="243.86" x2="183.59" y2="243.86" xlink:href="#Degradado_sin_nombre_2074"/><linearGradient id="Degradado_sin_nombre_2074-5" x1="316.66" y1="243.78" x2="500.67" y2="243.78" xlink:href="#Degradado_sin_nombre_2074"/></defs><path class="cls-1" d="M105.16,347.36a39.07,39.07,0,0,1,55.14-36.94c2.78,1.21,4.62,1.54,7.06-.86q22.24-21.81,44.84-43.27c2.47-2.35,3.11-4,1.62-7.54a37.88,37.88,0,0,1,.18-30.52c1.15-2.71.87-4.24-1.15-6.19q-23.11-22.22-46-44.63c-1.82-1.77-3.24-1.82-5.48-.73-22.74,11-49.77-2.11-55.49-26.89-6.33-27.48,20.15-53.32,47.47-46.3,24.17,6.21,36.46,30.59,26.93,53.68-1,2.48-.81,4,1.11,5.86q23.13,22.2,46.07,44.59c1.76,1.72,3.25,2.1,5.5,1,11.5-5.71,23-5.2,34.64-.12a5.6,5.6,0,0,0,4.93-.86c15.48-14.74,30.75-29.69,46.2-44.45,2.39-2.28,1.84-4.17.86-6.73-7.68-20.12.33-41,19.57-50.32,14.83-7.2,35.29-4.39,48.22,12.11,9.75,12.45,10,33.08.13,46.13-11.83,15.6-31.09,20.51-48.73,12.23-2.51-1.17-4-.75-5.85,1.07q-22.58,22.13-45.32,44.06c-2.29,2.2-2.65,4-1.39,7A37.09,37.09,0,0,1,286,259.2c-1.27,2.85-.81,4.45,1.37,6.53Q310,287.4,332.45,309.36c2.25,2.2,4,2.64,7,1.3,15.64-7,33.59-3.56,44.52,8.3,11.88,12.9,14.29,30.65,6.21,45.65-7.93,14.7-24.8,23.33-41.62,19.89C321.67,379,311,352.69,319.4,331.68c1.46-3.65,1.06-5.8-1.77-8.49q-22.11-21-43.84-42.38c-2.29-2.25-4.12-3-7.37-1.51-10.9,4.95-22,5.18-32.92-.15-2.81-1.38-4.58-.8-6.66,1.24Q204.37,302.31,181.71,324c-2.4,2.29-2.41,4.13-1.2,7,7.48,17.67.59,38.82-15.5,48.13-18.17,10.51-39.41,6.81-51.59-9A40.82,40.82,0,0,1,105.16,347.36Z"/><path class="cls-2" d="M144.19.23c28.76.13,47.55,29.13,35.79,55-1.31,2.88-.8,4.5,1.3,6.57q22,21.73,43.77,43.72c2.38,2.4,4.16,2.79,7.29,1.19,12-6.12,24.2-5.88,36.14.31,2.46,1.28,3.89,1,5.78-.88q22.11-22.26,44.43-44.33c2.18-2.15,2.28-3.89,1.16-6.66-9.3-23,2.29-47,25.82-53.74,19.93-5.73,41.55,6.45,47.62,26.83,6,20.09-5.49,41.86-25.18,48.09-9.87,3.12-19.45,2.83-28.77-1.7-2.28-1.11-3.76-.79-5.51,1q-23.15,23.13-46.45,46.1c-1.81,1.79-1.78,3.28-.92,5.53,8.58,22.22-3.12,45-26.71,52.13-20.13,6.12-43-7.8-48-29.31-1.79-7.76-.84-15.4,1.5-23,.49-1.57.07-4.26-1-5.36q-22.95-23.34-46.3-46.27a5.25,5.25,0,0,0-4.59-.81c-24,9.61-46.15-.28-54.64-24.59C99.19,28.5,116.7,2.11,139.52.57Z"/><path class="cls-3" d="M108.25,433.06c7.93-18.77,30-27.39,49.33-20.94,1.95.65,3.89,1.27,5.85,1.87,1.35.4,3.61.21,4.5-.67q23.16-22.79,46-45.94c.86-.87,1-3.3.49-4.53-10.18-22.82,2.19-49.08,26.37-54.74,14.78-3.46,28,.3,38.24,11.8,10.54,11.82,13.11,25.48,7.41,40.39a5.14,5.14,0,0,0,1.09,5.53q23,22.67,45.77,45.5a6,6,0,0,0,6.67,1.13c15.73-6.63,34-2.8,44.44,9.06,11.53,13.07,13.77,30.24,6,45a39.44,39.44,0,0,1-32,20.74c-28.93,1.85-48.35-26.38-39.77-50.84,2.34-6.65,1.11-10.26-3.69-14.82-13.54-12.85-26.6-26.21-39.72-39.5-2.69-2.73-4.47-3.26-8.75-.64-9.49,5.82-21.31,6.48-31,.95-3.85-2.21-5.6-2-8.05.47q-22.24,22.43-44.76,44.61a7.13,7.13,0,0,0-1.44,7.71c7.23,19.26-3,41.94-22.09,49.31A39.42,39.42,0,0,1,108,462.69,38.68,38.68,0,0,1,108.25,433.06Z"/><path class="cls-4" d="M2,359.87C-2.12,348.33-1.38,335.18,5.35,325,15.57,309.4,36,302,54.67,310.48c2.89,1.32,4.47.79,6.54-1.3q22.56-22.79,45.34-45.32a5.69,5.69,0,0,0,1.15-6.21c-3.73-9.38-3.52-18.81,0-28.32a5.24,5.24,0,0,0-1-5.05c-15.3-15.56-30.78-30.93-46.14-46.43a4.82,4.82,0,0,0-5.43-.91c-22.93,10.18-48-1.81-54.59-26C-4,134.31,4.39,115.35,19.87,107.17c16.3-8.6,36.44-5.12,47.83,8.32C78.59,128.35,81,142.53,74,158c-1.07,2.35-.71,3.7,1,5.43q22.59,22.42,45,45c1.94,2,3.42,2.17,6,.71,7.89-4.46,17-6.74,25.77-4.35,36.65,10,40.33,50.11,17.54,68.83-13.24,10.87-27.82,12.23-43.11,4.81-5.41-2.63-5.41-.74-16.68,10.77L77.15,322.32c-3.78,2.74-4.38,4.29-3.06,7.26,9.28,20.78.74,42.89-20.11,52.36-19.16,8.71-42.68-.45-51.34-20.4C2.41,361,2.19,360.44,2,359.87Z"/><path class="cls-5" d="M461.05,385.21a39.19,39.19,0,0,1-36.34-52.68c1.16-3.28.56-5.08-1.74-7.35q-22.19-21.87-44.1-44c-2.51-2.54-4.48-2.86-7.78-1.49C353.4,287,334,281.34,323.42,266c-10.4-15.11-8.65-36,4.16-49.62,11.44-12.16,32.18-15.42,46.67-7.11,2.49,1.43,3.85,1.12,5.72-.78,14.83-15,29.66-29.94,44.68-44.72,2.54-2.5,1.9-4.42.81-7.07a38.88,38.88,0,0,1,18.34-50c19.82-10.25,44.3-1.53,53.54,19.07,9.1,20.29-1.19,44.73-22.11,52.37-10.14,3.7-20.23,3.6-30-1.1-2.46-1.18-3.95-.86-5.82,1Q416.63,201,393.7,223.67c-2,2-2.41,3.58-1.36,6.23a36.46,36.46,0,0,1-.81,29.61c-1.39,3-.78,4.75,1.44,6.93q22,21.72,43.8,43.68c2.2,2.22,3.8,2.75,6.85,1.17,17.1-8.9,37.28-4.09,49.29,11.43,11,14.29,10.26,35.92-2.34,49.59A38.71,38.71,0,0,1,461.05,385.21Z"/><circle class="cls-6" cx="356.16" cy="38.95" r="27.53"/><circle class="cls-6" cx="144.8" cy="38.95" r="27.53"/><circle class="cls-6" cx="249.78" cy="141.65" r="27.53"/><circle class="cls-6" cx="38.25" cy="140.82" r="27.53"/><circle class="cls-6" cx="38.25" cy="346.21" r="27.53"/><circle class="cls-6" cx="144.45" cy="346.21" r="27.53"/><circle class="cls-6" cx="144.45" cy="448.63" r="27.53"/><circle class="cls-6" cx="249.78" cy="346.21" r="27.53"/><circle class="cls-6" cx="355.72" cy="448.63" r="27.53"/><circle class="cls-6" cx="355.72" cy="346.21" r="27.53"/><circle class="cls-6" cx="249.78" cy="242.95" r="27.53"/><circle class="cls-6" cx="355.72" cy="242.95" r="27.53"/><circle class="cls-6" cx="460.96" cy="346.21" r="27.53"/><circle class="cls-6" cx="355.72" cy="140.82" r="27.53"/><circle class="cls-6" cx="144.45" cy="140.82" r="27.53"/><circle class="cls-6" cx="461.51" cy="140.82" r="27.53"/><circle class="cls-6" cx="144.45" cy="242.95" r="27.53"/></svg>