<svg id="Layer_1" data-name="Layer 1" xmlns="http://www.w3.org/2000/svg" xmlns:xlink="http://www.w3.org/1999/xlink" viewBox="0 0 1986.2 416.82"><defs><style>.cls-1,.cls-10,.cls-11,.cls-12,.cls-13,.cls-14,.cls-15,.cls-16,.cls-17,.cls-18,.cls-19,.cls-2,.cls-20,.cls-21,.cls-22,.cls-23,.cls-3,.cls-4,.cls-5,.cls-6,.cls-7,.cls-8,.cls-9{fill:none;stroke-miterlimit:10;stroke-width:3px;}.cls-1{stroke:url(#Degradado_sin_nombre_2074);}.cls-2{stroke:url(#Degradado_sin_nombre_2074-2);}.cls-3{stroke:url(#Degradado_sin_nombre_2074-3);}.cls-4{stroke:url(#Degradado_sin_nombre_2074-4);}.cls-5{stroke:url(#Degradado_sin_nombre_2074-5);}.cls-6{stroke:url(#Degradado_sin_nombre_2074-6);}.cls-7{stroke:url(#Degradado_sin_nombre_2074-7);}.cls-8{stroke:url(#Degradado_sin_nombre_2074-8);}.cls-9{stroke:url(#Degradado_sin_nombre_2074-9);}.cls-10{stroke:url(#Degradado_sin_nombre_2074-10);}.cls-11{stroke:url(#Degradado_sin_nombre_2074-11);}.cls-12{stroke:url(#Degradado_sin_nombre_2074-12);}.cls-13{stroke:url(#Degradado_sin_nombre_2074-13);}.cls-14{stroke:url(#Degradado_sin_nombre_2074-14);}.cls-15{stroke:url(#Degradado_sin_nombre_2074-15);}.cls-16{stroke:url(#Degradado_sin_nombre_2074-16);}.cls-17{stroke:url(#Degradado_sin_nombre_2074-17);}.cls-18{stroke:url(#Degradado_sin_nombre_2074-18);}.cls-19{stroke:url(#Degradado_sin_nombre_2074-19);}.cls-20{stroke:url(#Degradado_sin_nombre_2074-20);}.cls-21{stroke:url(#Degradado_sin_nombre_2074-21);}.cls-22{stroke:url(#Degradado_sin_nombre_2074-22);}.cls-23{stroke:url(#Degradado_sin_nombre_2074-23);}</style><linearGradient id="Degradado_sin_nombre_2074" x1="11.8" y1="93.77" x2="191.72" y2="93.77" gradientUnits="userSpaceOnUse"><stop offset="0" stop-color="#cb01ff"/><stop offset="1" stop-color="#00ff57"/></linearGradient><linearGradient id="Degradado_sin_nombre_2074-2" x1="203.29" y1="93.77" x2="303.76" y2="93.77" xlink:href="#Degradado_sin_nombre_2074"/><linearGradient id="Degradado_sin_nombre_2074-3" x1="356.89" y1="93.77" x2="484.46" y2="93.77" xlink:href="#Degradado_sin_nombre_2074"/><linearGradient id="Degradado_sin_nombre_2074-4" x1="495.61" y1="93.77" x2="610.73" y2="93.77" xlink:href="#Degradado_sin_nombre_2074"/><linearGradient id="Degradado_sin_nombre_2074-5" x1="630.18" y1="93.77" x2="730.65" y2="93.77" xlink:href="#Degradado_sin_nombre_2074"/><linearGradient id="Degradado_sin_nombre_2074-6" x1="791.53" y1="93.77" x2="911.29" y2="93.77" xlink:href="#Degradado_sin_nombre_2074"/><linearGradient id="Degradado_sin_nombre_2074-7" x1="920" y1="93.77" x2="1039.47" y2="93.77" xlink:href="#Degradado_sin_nombre_2074"/><linearGradient id="Degradado_sin_nombre_2074-8" x1="1057.36" y1="93.77" x2="1209.22" y2="93.77" xlink:href="#Degradado_sin_nombre_2074"/><linearGradient id="Degradado_sin_nombre_2074-9" x1="1233.42" y1="93.77" x2="1268.31" y2="93.77" xlink:href="#Degradado_sin_nombre_2074"/><linearGradient id="Degradado_sin_nombre_2074-10" x1="1292.7" y1="93.77" x2="1400.67" y2="93.77" xlink:href="#Degradado_sin_nombre_2074"/><linearGradient id="Degradado_sin_nombre_2074-11" x1="1418.57" y1="93.77" x2="1534.54" y2="93.77" xlink:href="#Degradado_sin_nombre_2074"/><linearGradient id="Degradado_sin_nombre_2074-12" x1="1607.72" y1="93.77" x2="1697.39" y2="93.77" xlink:href="#Degradado_sin_nombre_2074"/><linearGradient id="Degradado_sin_nombre_2074-13" x1="1710.79" y1="93.77" x2="1745.68" y2="93.77" xlink:href="#Degradado_sin_nombre_2074"/><linearGradient id="Degradado_sin_nombre_2074-14" x1="1754.46" y1="93.77" x2="1875.07" y2="93.77" xlink:href="#Degradado_sin_nombre_2074"/><linearGradient id="Degradado_sin_nombre_2074-15" x1="1883.85" y1="93.77" x2="1984.32" y2="93.77" xlink:href="#Degradado_sin_nombre_2074"/><linearGradient id="Degradado_sin_nombre_2074-16" x1="480.5" y1="339.46" x2="601.11" y2="339.46" xlink:href="#Degradado_sin_nombre_2074"/><linearGradient id="Degradado_sin_nombre_2074-17" x1="609.88" y1="339.46" x2="710.36" y2="339.46" xlink:href="#Degradado_sin_nombre_2074"/><linearGradient id="Degradado_sin_nombre_2074-18" x1="726.55" y1="339.46" x2="841.67" y2="339.46" xlink:href="#Degradado_sin_nombre_2074"/><linearGradient id="Degradado_sin_nombre_2074-19" x1="837.8" y1="339.46" x2="960.51" y2="339.46" xlink:href="#Degradado_sin_nombre_2074"/><linearGradient id="Degradado_sin_nombre_2074-20" x1="1002.05" y1="339.46" x2="1116.95" y2="339.46" xlink:href="#Degradado_sin_nombre_2074"/><linearGradient id="Degradado_sin_nombre_2074-21" x1="1128.35" y1="339.46" x2="1247.81" y2="339.46" xlink:href="#Degradado_sin_nombre_2074"/><linearGradient id="Degradado_sin_nombre_2074-22" x1="1259.21" y1="339.46" x2="1378.68" y2="339.46" xlink:href="#Degradado_sin_nombre_2074"/><linearGradient id="Degradado_sin_nombre_2074-23" x1="1396.57" y1="339.46" x2="1504.55" y2="339.46" xlink:href="#Degradado_sin_nombre_2074"/></defs><path class="cls-1" d="M189.79,25.54,155.52,162H124.1L101.67,71.72,80,162H48.85L13.74,25.54H46.36l18.82,83.27c.06.4.43,1.87,1.09,4.4q.41,1.41,1.11,4.2L89.72,25.54h29.49l23,91.87c.46-1.73,1.13-4.6,2-8.6l19.36-83.27Z"/><path class="cls-2" d="M302.26,51.53h-65v28h51.09v25.69H237.28V135h65v27H204.79V25.54h97.47Z"/><path class="cls-3" d="M439.7,25.54,482.42,162H448.06l-8.41-28.09H395.53L387,162H359L402.69,25.54Zm-36.5,83.17h28.91L417.78,60.83Z"/><path class="cls-4" d="M529.3,107.91V162H497.11V25.54h60q16.59,0,26.64,3.84t16.64,14.14A41.5,41.5,0,0,1,607,66.4q0,24.57-23.69,35.27L608.48,162H573.16l-21-54.09Zm0-58.08V84.62h19.6q9.6,0,13.94-1.35a15.36,15.36,0,0,0,7.75-6A17.56,17.56,0,0,0,574,66.62a16.46,16.46,0,0,0-3.4-10.19q-3.39-4.5-7.4-5.55t-15-1.05Z"/><path class="cls-5" d="M729.15,51.53h-65v28h51.08v25.69H664.17V135h65v27H631.68V25.54h97.47Z"/><path class="cls-6" d="M909.6,76.32l-33.49,2.1q-.71-28.89-22.54-28.89-25.05,0-25.05,44.49,0,25.7,6.81,34.84t19,9.15q19.83,0,24.24-25.8l31,1.9q-3,24.49-18.24,37.24T854,164.1q-27.1,0-44-18.7T793,93.72q0-30.9,16.4-50.59t44.79-19.69Q903.41,23.44,909.6,76.32Z"/><path class="cls-7" d="M979.23,164.1q-27.56,0-42.65-20.7T921.5,93.32q0-29.89,15.28-49.89t43.55-20q28.57,0,43.11,21.34T1038,93.62q0,29.68-15,50.08T979.23,164.1Zm.9-114.57Q955,49.53,955,93.72T980.13,138q24.35,0,24.35-44.19T980.13,49.53Z"/><path class="cls-8" d="M1119.33,162,1085.66,50.73V162h-26.8V25.54h49.78l23.95,81.67,25.2-81.67h49.93V162h-32.19V50.73L1141.21,162Z"/><path class="cls-9" d="M1266.81,25.54V162h-31.89V25.54Z"/><path class="cls-10" d="M1399.17,25.54V162H1371.9l-53.4-92.18c.06,2.34.13,3.87.19,4.6a53,53,0,0,1,.41,5.9V162h-24.9V25.54h34.46L1375.08,106c-.4-4-.6-7-.6-9.09V25.54Z"/><path class="cls-11" d="M1532.84,89v73h-14.6a106.8,106.8,0,0,0-4.55-15.7q-14.6,17.8-37.21,17.8-26.7,0-41.56-19.1t-14.85-49.38q0-32.6,15.84-52.39t43-19.79q22.8,0,36.79,12.79t17.1,34.09l-30.39,4q-3.71-24.79-23.5-24.79-13,0-19.64,11.75t-6.65,33.54q0,21,7.2,32.09t20.49,11.1a23.41,23.41,0,0,0,15.35-5.6q6.75-5.59,6.75-17.9h-25.7V89Z"/><path class="cls-12" d="M1641.61,135h54.28v27h-86.67V25.54h32.39Z"/><path class="cls-13" d="M1744.18,25.54V162h-31.89V25.54Z"/><path class="cls-14" d="M1873.05,25.54,1831.83,162h-34.36l-41-136.46h34l27.3,97.57,28.44-97.57Z"/><path class="cls-15" d="M1982.82,51.53h-65v28h51.08v25.69h-51.08V135h65v27h-97.47V25.54h97.47Z"/><path class="cls-16" d="M599.09,271.23,557.86,407.69H523.5l-41-136.46h34l27.3,97.58,28.43-97.58Z"/><path class="cls-17" d="M708.86,297.22h-65v28H695v25.69H643.87V380.7h65v27H611.38V271.23h97.48Z"/><path class="cls-18" d="M760.24,353.61v54.08H728.05V271.23h60q16.59,0,26.64,3.85t16.64,14.14a41.47,41.47,0,0,1,6.6,22.87q0,24.59-23.69,35.27l25.19,60.33H804.1l-21-54.08Zm0-58.08v34.79h19.6q9.6,0,13.94-1.35a15.36,15.36,0,0,0,7.75-6,17.56,17.56,0,0,0,3.4-10.65,16.46,16.46,0,0,0-3.4-10.2q-3.39-4.5-7.4-5.55t-15-1Z"/><path class="cls-19" d="M958,271.23l-42.89,79v57.48H883.21V350.21l-42.89-79h37.09l26,51.67,25.89-51.67Z"/><path class="cls-20" d="M1111.75,301.22l-27.19,9.1q-5.49-16.2-23.24-16.2-19,0-19,12.3a11.07,11.07,0,0,0,3.54,8.3q3.54,3.4,16,5.9,20.86,4.22,30.55,8.51A39.1,39.1,0,0,1,1108.81,343a36.53,36.53,0,0,1,6.64,21.34q0,18.48-14.24,32T1059,409.79q-21,0-35.71-9.54t-19.42-28.35l29.59-6.69q5,19.1,27.74,19.09,11,0,16.36-4.25T1083,369.9a10.56,10.56,0,0,0-4.9-9.29q-4.89-3.3-18.86-6.2-26.06-5.42-37.14-14.76T1011,312.32a40.57,40.57,0,0,1,13.23-30.69q13.23-12.5,35.9-12.5Q1100.27,269.13,1111.75,301.22Z"/><path class="cls-21" d="M1187.58,409.79q-27.57,0-42.65-20.69T1129.85,339q0-29.88,15.28-49.88t43.55-20q28.56,0,43.1,21.35t14.53,48.83q0,29.7-15,50.09T1187.58,409.79Zm.9-114.57q-25.14,0-25.14,44.19t25.14,44.29q24.35,0,24.34-44.19T1188.48,295.22Z"/><path class="cls-22" d="M1318.44,409.79q-27.56,0-42.65-20.69T1260.71,339q0-29.88,15.28-49.88t43.55-20q28.57,0,43.11,21.35t14.53,48.83q0,29.7-15,50.09T1318.44,409.79Zm.9-114.57q-25.14,0-25.14,44.19t25.14,44.29q24.35,0,24.35-44.19T1319.34,295.22Z"/><path class="cls-23" d="M1503.05,271.23V407.69h-27.28l-53.4-92.17c.06,2.33.13,3.87.2,4.6a55,55,0,0,1,.4,5.9v81.67h-24.9V271.23h34.46L1479,351.71q-.6-6-.6-9.1V271.23Z"/></svg>