<svg id="Layer_1" data-name="Layer 1" xmlns="http://www.w3.org/2000/svg" xmlns:xlink="http://www.w3.org/1999/xlink" viewBox="0 0 567.44 353.41"><defs><style>.cls-1{fill:url(#linear-gradient);}</style><linearGradient id="linear-gradient" y1="176.5" x2="567.44" y2="176.5" gradientUnits="userSpaceOnUse"><stop offset="0" stop-color="#c901fd"/><stop offset="0.4" stop-color="#5e89a4"/><stop offset="0.76" stop-color="#00ff57"/></linearGradient></defs><path class="cls-1" d="M456.79,213.05c-3.79,20.66-22.26,28.4-41,15.26-10.89-7.63-21.23-16-31.61-24.36-5.84-4.68-11.15-10-17-14.77-1.14-.94-3.4-.52-5.14-.73.37,1.74.16,4.08,1.22,5.13,5.56,5.5,11.49,10.63,17.21,16,10.58,9.89,21.17,19.79,31.63,29.82a72.26,72.26,0,0,1,7.52,8.67c5.06,6.64,7.49,14,3.38,21.89-4.7,9-11.37,16.48-22.16,17.4-3.86.33-8.67-1.5-11.87-3.91-15-11.34-29.66-23.16-44.34-34.94-5.33-4.27-10.34-8.92-15.58-13.31-1.78-1.49-3.68-4.39-6.25-1.58s.36,4.42,2.08,6.08c15.21,14.7,30.49,29.33,45.63,44.11,4.69,4.58,6.85,10.18,4.95,16.83-3.56,12.45-19.12,20.07-30.37,13.78-12.47-7-24.17-15.29-36.18-23-1.79-1.16-3.47-2.5-5.74-4.15-.17,5.13.8,8.47,4.82,11.45a111.53,111.53,0,0,1,16.23,14.71c5.92,6.56,6,12.72,1.51,19.62-5.85,9-12.43,12.6-20.78,9.77a115,115,0,0,1-21.7-9.93c-4.73-2.8-7.57-2.32-11,1.5a114.61,114.61,0,0,1-9.85,9.21c-10.93,9.58-24.92,8.91-34.77-1.69-5.66-6.1-11.75-12-12.79-21.29-10.15,3.46-19.59,3.25-27.31-4.28-6.88-6.73-14.06-13.52-14.79-24.67-11.73,3.65-21.25.9-29.39-8.07-7.58-8.34-13.78-16.83-10.5-28.8-25.46-7.37-36.24-31.67-25.81-47.12l-11-8.77c-2.68,7.32-5.15,14.07-7.84,21.4L0,186,63.74,4.46l89.32,32.21-6.65,19.46c4.53.47,8.55,1.15,12.59,1.27,14,.42,27.38-2.7,40.55-7.27,17.43-6,35-11.64,52.46-17.66a17.79,17.79,0,0,0,6.34-4.55c10.82-11.11,22.87-20.47,38.9-21.42,8.47-.5,17.26.93,25.64,2.73,19.67,4.21,39.09,9.66,58.8,13.69,20,4.09,40.31,3.94,60.86,2.86.14-2,.24-3.65.39-5.9l97-17.16c9.17,65.39,18.3,130.53,27.52,196.25-9.37,1.45-18.51,2.89-27.66,4.29-21.38,3.28-42.74,6.72-64.16,9.66C469.64,213.75,463.46,213.05,456.79,213.05ZM221.8,90.22a42.36,42.36,0,0,0,28.68,7,52.42,52.42,0,0,0,29-12.28c7.62-6.4,14.69-13.5,21.72-20.57s14.93-8.95,23.54-4.3a56.26,56.26,0,0,1,12.54,9.72c5.78,5.74,10.87,12.16,16.49,18.07,21.46,22.55,43.18,44.86,64.47,67.57,9.22,9.83,17.58,20.46,26.45,30.62,5.78,6.62,12.7,11.32,22.38,12.61-.28-3.65-.36-6.62-.76-9.54-1.06-7.92-2.28-15.81-3.41-23.72q-8.35-58.8-16.74-117.6c-1.08-7.53-1.23-7.54-8.65-7.4-24.35.48-48.58,0-72.4-6.2-17.21-4.49-34.61-8.25-51.89-12.46-14.48-3.53-27.1.13-37.87,10-6.25,5.73-12.14,11.88-17.83,18.18C245.61,63.08,233.93,76.51,221.8,90.22ZM204.26,309.06c2.58-1.52,5.56-2.7,7.81-4.7,8.94-8,17.64-16.21,26.45-24.32,11.89-10.94,12-13.67,1.18-25.51-6.17-6.72-11-6.92-17.86-.63-8.46,7.76-16.62,15.87-25.37,23.3-14.56,12.37-10.61,16.78-.58,27.35a6,6,0,0,0,1.44,1.37C199.38,306.93,201.49,307.82,204.26,309.06Zm41.49,27.16c2.32-.94,4.7-1.27,6.17-2.61,11.72-10.59,23.39-21.25,34.79-32.17,4.05-3.87,3.63-9.33-.13-14-8.05-10-12.75-12.39-18.57-9.37a9,9,0,0,0-2.06,1.38c-11.26,10.36-22.58,20.65-33.7,31.16a9.77,9.77,0,0,0-1.14,13.58,60.84,60.84,0,0,0,8,8.85C240.88,334.58,243.46,335.17,245.75,336.22ZM115.83,222.38c3.15,4.23,5.9,8.42,9.16,12.17,5.65,6.5,11.19,6.61,17.56.75,8.44-7.78,16.63-15.85,25.35-23.3,15-12.82,10.68-17,.56-27.69-4.63-4.89-10-5.15-15-.6-11,9.95-21.87,20-32.58,30.19C118.89,215.82,117.91,218.81,115.83,222.38Zm48.06,56.78c2.1-1.22,5.06-2.36,7.28-4.34,8.7-7.73,16.89-16.05,25.78-23.54,15.84-13.36,9.92-17.73.23-28-4.1-4.35-9.86-4.63-14.29-.61-11.21,10.16-22.25,20.5-33.33,30.8-3.44,3.19-4.74,7.69-2.44,11.34,3,4.79,7.45,8.74,11.5,12.81C159.53,278.54,161.4,278.48,163.89,279.16Z"/></svg>