<svg id="Layer_1" data-name="Layer 1" xmlns="http://www.w3.org/2000/svg" xmlns:xlink="http://www.w3.org/1999/xlink" viewBox="0 0 1055.05 77.29"><defs><style>.cls-1,.cls-10,.cls-11,.cls-12,.cls-13,.cls-14,.cls-15,.cls-16,.cls-17,.cls-18,.cls-19,.cls-2,.cls-20,.cls-21,.cls-22,.cls-23,.cls-24,.cls-3,.cls-4,.cls-5,.cls-6,.cls-7,.cls-8,.cls-9{fill:none;stroke-miterlimit:10;stroke-width:2px;}.cls-1{stroke:url(#linear-gradient);}.cls-2{stroke:url(#linear-gradient-2);}.cls-3{stroke:url(#linear-gradient-3);}.cls-4{stroke:url(#linear-gradient-4);}.cls-5{stroke:url(#linear-gradient-5);}.cls-6{stroke:url(#linear-gradient-6);}.cls-7{stroke:url(#linear-gradient-7);}.cls-8{stroke:url(#linear-gradient-8);}.cls-9{stroke:url(#linear-gradient-9);}.cls-10{stroke:url(#linear-gradient-10);}.cls-11{stroke:url(#linear-gradient-11);}.cls-12{stroke:url(#linear-gradient-12);}.cls-13{stroke:url(#linear-gradient-13);}.cls-14{stroke:url(#linear-gradient-14);}.cls-15{stroke:url(#linear-gradient-15);}.cls-16{stroke:url(#linear-gradient-16);}.cls-17{stroke:url(#linear-gradient-17);}.cls-18{stroke:url(#linear-gradient-18);}.cls-19{stroke:url(#linear-gradient-19);}.cls-20{stroke:url(#linear-gradient-20);}.cls-21{stroke:url(#linear-gradient-21);}.cls-22{stroke:url(#linear-gradient-22);}.cls-23{stroke:url(#linear-gradient-23);}.cls-24{stroke:url(#linear-gradient-24);}</style><linearGradient id="linear-gradient" x1="7.33" y1="41.47" x2="67.96" y2="41.47" gradientUnits="userSpaceOnUse"><stop offset="0" stop-color="#c901fd"/><stop offset="1" stop-color="#00ff57"/></linearGradient><linearGradient id="linear-gradient-2" x1="73.84" y1="48.46" x2="113.91" y2="48.46" xlink:href="#linear-gradient"/><linearGradient id="linear-gradient-3" x1="114.44" y1="42.59" x2="143.57" y2="42.59" xlink:href="#linear-gradient"/><linearGradient id="linear-gradient-4" x1="145.9" y1="48.46" x2="185.36" y2="48.46" xlink:href="#linear-gradient"/><linearGradient id="linear-gradient-5" x1="185.75" y1="48.46" x2="224.98" y2="48.46" xlink:href="#linear-gradient"/><linearGradient id="linear-gradient-6" x1="224.39" y1="48.46" x2="264.45" y2="48.46" xlink:href="#linear-gradient"/><linearGradient id="linear-gradient-7" x1="269.79" y1="48.03" x2="293.25" y2="48.03" xlink:href="#linear-gradient"/><linearGradient id="linear-gradient-8" x1="293.85" y1="48.46" x2="331.96" y2="48.46" xlink:href="#linear-gradient"/><linearGradient id="linear-gradient-9" x1="334.37" y1="48.46" x2="374.44" y2="48.46" xlink:href="#linear-gradient"/><linearGradient id="linear-gradient-10" x1="400.49" y1="41.47" x2="415.05" y2="41.47" xlink:href="#linear-gradient"/><linearGradient id="linear-gradient-11" x1="423.29" y1="48.05" x2="459.87" y2="48.05" xlink:href="#linear-gradient"/><linearGradient id="linear-gradient-12" x1="462.75" y1="42.59" x2="491.88" y2="42.59" xlink:href="#linear-gradient"/><linearGradient id="linear-gradient-13" x1="493.31" y1="48.46" x2="533.35" y2="48.46" xlink:href="#linear-gradient"/><linearGradient id="linear-gradient-14" x1="554.11" y1="42.59" x2="583.24" y2="42.59" xlink:href="#linear-gradient"/><linearGradient id="linear-gradient-15" x1="587.27" y1="41.47" x2="623.45" y2="41.47" xlink:href="#linear-gradient"/><linearGradient id="linear-gradient-16" x1="628.85" y1="48.46" x2="668.92" y2="48.46" xlink:href="#linear-gradient"/><linearGradient id="linear-gradient-17" x1="694.97" y1="41.47" x2="738.32" y2="41.47" xlink:href="#linear-gradient"/><linearGradient id="linear-gradient-18" x1="747.11" y1="41.47" x2="787.35" y2="41.47" xlink:href="#linear-gradient"/><linearGradient id="linear-gradient-19" x1="786.41" y1="41.47" x2="827.87" y2="41.47" xlink:href="#linear-gradient"/><linearGradient id="linear-gradient-20" x1="846.29" y1="41.47" x2="918.21" y2="41.47" xlink:href="#linear-gradient"/><linearGradient id="linear-gradient-21" x1="917.07" y1="48.46" x2="957.11" y2="48.46" xlink:href="#linear-gradient"/><linearGradient id="linear-gradient-22" x1="962.51" y1="48.03" x2="985.98" y2="48.03" xlink:href="#linear-gradient"/><linearGradient id="linear-gradient-23" x1="990.51" y1="41.47" x2="1004.25" y2="41.47" xlink:href="#linear-gradient"/><linearGradient id="linear-gradient-24" x1="1009.73" y1="41.88" x2="1047.72" y2="41.88" xlink:href="#linear-gradient"/></defs><path class="cls-1" d="M32.14,68.35,18.88,24.52V68.35H8.33V14.59H27.94l9.43,32.18,9.92-32.18H67V68.35H54.28V24.52L40.76,68.35Z"/><path class="cls-2" d="M112.84,50.43H87.24c0,.71,0,1.32,0,1.85q0,4.24,2.27,6.42a7.56,7.56,0,0,0,5.41,2.16q5.87,0,7.05-6.26l10.63.79q-4.44,13.78-18.07,13.78a20,20,0,0,1-10.1-2.38,18.73,18.73,0,0,1-6.85-7,21.14,21.14,0,0,1-2.7-11q0-9.48,5.41-15.32a19.16,19.16,0,0,1,27.1-.41Q112.84,38.58,112.84,50.43ZM87.2,43.62h14.14q-.56-8.19-6.73-8.2Q88,35.42,87.2,43.62Z"/><path class="cls-3" d="M133.48,37.71V54.52c0,2.1.31,3.51.94,4.22s2.1,1.06,4.43,1.06c1.07,0,2.31,0,3.72-.16v8.71a51.26,51.26,0,0,1-7.36.86q-7.34,0-10.4-2.81t-3.07-10.18V37.71h-6.3V28.57h7l.94-11.73,10.13-.79V28.57H142v9.14Z"/><path class="cls-4" d="M184,68.35H172.62a28.27,28.27,0,0,1-.55-6.23c-2,2.84-4,4.72-6,5.66a15.68,15.68,0,0,1-6.74,1.39,13.17,13.17,0,0,1-9-3A10.33,10.33,0,0,1,146.9,58a12.57,12.57,0,0,1,2-6.89,13.06,13.06,0,0,1,6.45-4.94q4.44-1.8,16.19-2.66V41.21q0-5.79-5.77-5.79-6.17,0-6.87,5.79l-10.83-1q1.06-6.78,6.42-9.61a25.54,25.54,0,0,1,12.13-2.83,29.84,29.84,0,0,1,7.64.94,12.75,12.75,0,0,1,5.59,2.84,9.86,9.86,0,0,1,2.72,4,26.2,26.2,0,0,1,.71,7.35v18A27.59,27.59,0,0,0,184,68.35ZM171.55,49.29q-12.28,1.22-12.28,7.44a5.37,5.37,0,0,0,1.29,3.6,4.61,4.61,0,0,0,3.69,1.52,6.45,6.45,0,0,0,5.2-2.58,9.75,9.75,0,0,0,2.1-6.36Z"/><path class="cls-5" d="M223.58,28.57,209.94,68.35h-9.12L187.15,28.57h12.2L207,53.78l7.84-25.21Z"/><path class="cls-6" d="M263.39,50.43h-25.6c0,.71,0,1.32,0,1.85q0,4.24,2.27,6.42a7.54,7.54,0,0,0,5.41,2.16q5.87,0,7-6.26l10.63.79Q258.67,69.18,245,69.17a20,20,0,0,1-10.1-2.38,18.83,18.83,0,0,1-6.86-7,21.24,21.24,0,0,1-2.69-11q0-9.48,5.41-15.32a19.15,19.15,0,0,1,27.09-.41Q263.4,38.58,263.39,50.43Zm-25.64-6.81h14.14q-.55-8.19-6.74-8.2Q238.54,35.42,237.75,43.62Z"/><path class="cls-7" d="M282.17,68.35H270.79V28.57h10.75V36q2.49-8.28,8.59-8.27c.57,0,1.28,0,2.12.11V39.4a11.67,11.67,0,0,0-5.57,1.1,8,8,0,0,0-3.25,4,19.43,19.43,0,0,0-1.26,7.7Z"/><path class="cls-8" d="M329.27,38.18l-8.55,2.29q-1.49-5.4-7.75-5.4-5.91,0-5.91,3.59a2.74,2.74,0,0,0,1.08,2.27c.72.57,2.61,1,5.65,1.43a52.7,52.7,0,0,1,10.08,2.08,10.4,10.4,0,0,1,5.18,4A11.87,11.87,0,0,1,331,55.31a12.36,12.36,0,0,1-4.66,10q-4.67,3.87-13.06,3.86-15.19,0-18.15-11.77L305,55.94q1.23,5.36,8.82,5.36a10.54,10.54,0,0,0,4.93-1,3.16,3.16,0,0,0,2-2.82c0-1.84-1.48-2.93-4.45-3.27q-12-1.48-15.85-4.62a10.67,10.67,0,0,1-3.8-8.72A11.71,11.71,0,0,1,301,31.45q4.41-3.7,12.37-3.7,6.3,0,10.08,2.48A15.46,15.46,0,0,1,329.27,38.18Z"/><path class="cls-9" d="M373.37,50.43H347.78c0,.71,0,1.32,0,1.85q0,4.24,2.26,6.42a7.58,7.58,0,0,0,5.42,2.16q5.86,0,7.05-6.26l10.63.79Q368.65,69.18,355,69.17a20,20,0,0,1-10.1-2.38,18.81,18.81,0,0,1-6.85-7,21.14,21.14,0,0,1-2.7-11q0-9.48,5.42-15.32a19.15,19.15,0,0,1,27.09-.41Q373.37,38.58,373.37,50.43Zm-25.63-6.81h14.13q-.54-8.19-6.73-8.2Q348.53,35.42,347.74,43.62Z"/><path class="cls-10" d="M414.05,14.59V68.35H401.49V14.59Z"/><path class="cls-11" d="M458.87,68.35H447.13V46a32,32,0,0,0-.31-5.55,4.49,4.49,0,0,0-1.54-2.54,4.54,4.54,0,0,0-3.07-1Q436,36.88,436,46V68.35H424.29V28.57H435.2v6.74q2.71-4.82,5.36-6.19a12.21,12.21,0,0,1,5.71-1.37,13.28,13.28,0,0,1,9.13,3.05q3.47,3,3.47,12Z"/><path class="cls-12" d="M481.79,37.71V54.52c0,2.1.31,3.51.94,4.22s2.1,1.06,4.43,1.06c1.07,0,2.31,0,3.72-.16v8.71a51.1,51.1,0,0,1-7.36.86q-7.32,0-10.4-2.81t-3.07-10.18V37.71h-6.3V28.57h7l.95-11.73,10.12-.79V28.57h8.54v9.14Z"/><path class="cls-13" d="M513.07,27.75q9.09,0,14.18,5.94t5.1,14.89a21.23,21.23,0,0,1-5.29,14.71q-5.29,5.88-14.07,5.88-8.49,0-13.59-5.83t-5.09-15a23,23,0,0,1,2.3-10.77,19.14,19.14,0,0,1,6.31-7.15A17.74,17.74,0,0,1,513.07,27.75Zm.32,7.67a5.64,5.64,0,0,0-5,2.58c-1.12,1.72-1.69,5.14-1.69,10.26q0,7.05,1.61,10.12a5.32,5.32,0,0,0,5,3.07,5.66,5.66,0,0,0,4.83-2.61q1.85-2.62,1.84-10,0-7.83-1.63-10.63A5.37,5.37,0,0,0,513.39,35.42Z"/><path class="cls-14" d="M573.15,37.71V54.52c0,2.1.31,3.51.94,4.22s2.1,1.06,4.43,1.06c1.07,0,2.31,0,3.72-.16v8.71a51.1,51.1,0,0,1-7.36.86q-7.32,0-10.4-2.81t-3.07-10.18V37.71h-6.3V28.57h7L563,16.84l10.12-.79V28.57h8.54v9.14Z"/><path class="cls-15" d="M599.65,14.59V34q3.23-6.24,10.75-6.23a12.85,12.85,0,0,1,6.87,1.75,9.72,9.72,0,0,1,4,4.51,21.8,21.8,0,0,1,1.16,8.07V68.35H610.71V45.91a31.88,31.88,0,0,0-.31-5.52,4.55,4.55,0,0,0-1.43-2.5,4.05,4.05,0,0,0-2.81-1,6.93,6.93,0,0,0-4.35,1.72q-2.16,1.71-2.16,7.31V68.35H588.27V14.59Z"/><path class="cls-16" d="M667.85,50.43H642.26c0,.71,0,1.32,0,1.85q0,4.24,2.26,6.42a7.58,7.58,0,0,0,5.42,2.16q5.86,0,7-6.26l10.64.79q-4.46,13.78-18.08,13.78a20,20,0,0,1-10.1-2.38,18.81,18.81,0,0,1-6.85-7,21.14,21.14,0,0,1-2.7-11q0-9.48,5.42-15.32a19.15,19.15,0,0,1,27.09-.41Q667.85,38.58,667.85,50.43Zm-25.63-6.81h14.13q-.54-8.19-6.73-8.2Q643,35.42,642.22,43.62Z"/><path class="cls-17" d="M737.32,14.59V68.35H726.57L705.54,32c0,.92.05,1.52.08,1.81a22,22,0,0,1,.15,2.32V68.35H696V14.59h13.57l18.29,31.7c-.16-1.57-.24-2.77-.24-3.58V14.59Z"/><path class="cls-18" d="M786.35,25.23H761.18V37.28h19.89v10H761.18v21H748.11V14.59h38.24Z"/><path class="cls-19" d="M826.87,14.59V25.23H813.56V68.35H800.8V25.23H787.41V14.59Z"/><path class="cls-20" d="M916.93,14.59l-13.5,53.76H891.05l-8.84-35.56-8.53,35.56H861.41L847.58,14.59h12.85l7.41,32.81c0,.15.17.73.43,1.73.11.37.25.92.44,1.65l8.8-36.19h11.62l9,36.19c.19-.68.45-1.81.79-3.38l7.62-32.81Z"/><path class="cls-21" d="M936.83,27.75q9.09,0,14.19,5.94t5.09,14.89a21.19,21.19,0,0,1-5.29,14.71q-5.3,5.88-14.06,5.88-8.5,0-13.6-5.83t-5.09-15a23.16,23.16,0,0,1,2.3-10.77,19.08,19.08,0,0,1,6.32-7.15A17.69,17.69,0,0,1,936.83,27.75Zm.32,7.67a5.64,5.64,0,0,0-5,2.58q-1.68,2.58-1.68,10.26,0,7.05,1.6,10.12a5.32,5.32,0,0,0,5,3.07,5.66,5.66,0,0,0,4.83-2.61q1.85-2.62,1.85-10,0-7.83-1.63-10.63A5.39,5.39,0,0,0,937.15,35.42Z"/><path class="cls-22" d="M974.89,68.35H963.51V28.57h10.75V36q2.49-8.28,8.59-8.27c.58,0,1.28,0,2.13.11V39.4a11.72,11.72,0,0,0-5.58,1.1,8.05,8.05,0,0,0-3.25,4,19.43,19.43,0,0,0-1.26,7.7Z"/><path class="cls-23" d="M991.51,68.35V14.59h11.74V68.35Z"/><path class="cls-24" d="M1046.72,14.59V68.35h-10.83V62.12q-4,7-11,7.05a12.09,12.09,0,0,1-10.4-5.37q-3.79-5.38-3.8-14.91,0-9.91,3.81-15.53a12.49,12.49,0,0,1,11-5.61,11.15,11.15,0,0,1,9.78,5V14.59Zm-11.38,30.64q0-9.37-5.69-9.37-6.8,0-6.79,13.23,0,11.77,6.36,11.77a5.49,5.49,0,0,0,4.28-2.12,9,9,0,0,0,1.84-6.07Z"/></svg>