<svg id="Layer_1" data-name="Layer 1" xmlns="http://www.w3.org/2000/svg" xmlns:xlink="http://www.w3.org/1999/xlink" viewBox="0 0 1122.77 133.31"><defs><style>.cls-1,.cls-10,.cls-11,.cls-12,.cls-13,.cls-14,.cls-15,.cls-16,.cls-17,.cls-2,.cls-3,.cls-4,.cls-5,.cls-6,.cls-7,.cls-8,.cls-9{fill:none;stroke-miterlimit:10;stroke-width:3px;}.cls-1{stroke:url(#linear-gradient);}.cls-2{stroke:url(#linear-gradient-2);}.cls-3{stroke:url(#linear-gradient-3);}.cls-4{stroke:url(#linear-gradient-4);}.cls-5{stroke:url(#linear-gradient-5);}.cls-6{stroke:url(#linear-gradient-6);}.cls-7{stroke:url(#linear-gradient-7);}.cls-8{stroke:url(#linear-gradient-8);}.cls-9{stroke:url(#linear-gradient-9);}.cls-10{stroke:url(#linear-gradient-10);}.cls-11{stroke:url(#linear-gradient-11);}.cls-12{stroke:url(#linear-gradient-12);}.cls-13{stroke:url(#linear-gradient-13);}.cls-14{stroke:url(#linear-gradient-14);}.cls-15{stroke:url(#linear-gradient-15);}.cls-16{stroke:url(#linear-gradient-16);}.cls-17{stroke:url(#linear-gradient-17);}</style><linearGradient id="linear-gradient" x1="11.96" y1="76.06" x2="72.11" y2="76.06" gradientTransform="matrix(1, 0, 0, -1, 0, 136)" gradientUnits="userSpaceOnUse"><stop offset="0" stop-color="#c901fd"/><stop offset="1" stop-color="#00ff57"/></linearGradient><linearGradient id="linear-gradient-2" x1="66.68" y1="64.16" x2="125.05" y2="64.16" xlink:href="#linear-gradient"/><linearGradient id="linear-gradient-3" x1="130" y1="64.11" x2="186.63" y2="64.11" xlink:href="#linear-gradient"/><linearGradient id="linear-gradient-4" x1="193.75" y1="76.08" x2="249.41" y2="76.08" xlink:href="#linear-gradient"/><linearGradient id="linear-gradient-5" x1="259.36" y1="64.82" x2="315.03" y2="64.82" xlink:href="#linear-gradient"/><linearGradient id="linear-gradient-6" x1="322.08" y1="64.11" x2="380.14" y2="64.11" xlink:href="#linear-gradient"/><linearGradient id="linear-gradient-7" x1="388.16" y1="76.07" x2="410.1" y2="76.07" xlink:href="#linear-gradient"/><linearGradient id="linear-gradient-8" x1="418.11" y1="64.11" x2="476.18" y2="64.11" xlink:href="#linear-gradient"/><linearGradient id="linear-gradient-9" x1="480.16" y1="58.1" x2="544.94" y2="58.1" xlink:href="#linear-gradient"/><linearGradient id="linear-gradient-10" x1="550.15" y1="52.15" x2="607.33" y2="52.15" xlink:href="#linear-gradient"/><linearGradient id="linear-gradient-11" x1="614.31" y1="75.83" x2="718.25" y2="75.83" xlink:href="#linear-gradient"/><linearGradient id="linear-gradient-12" x1="716.06" y1="64.16" x2="774.43" y2="64.16" xlink:href="#linear-gradient"/><linearGradient id="linear-gradient-13" x1="797.68" y1="76.07" x2="875.7" y2="76.07" xlink:href="#linear-gradient"/><linearGradient id="linear-gradient-14" x1="875.3" y1="75.59" x2="932.96" y2="75.59" xlink:href="#linear-gradient"/><linearGradient id="linear-gradient-15" x1="940.91" y1="64.11" x2="998.97" y2="64.11" xlink:href="#linear-gradient"/><linearGradient id="linear-gradient-16" x1="1007.03" y1="53.1" x2="1064.57" y2="53.1" xlink:href="#linear-gradient"/><linearGradient id="linear-gradient-17" x1="1067.97" y1="74.15" x2="1110.32" y2="74.15" xlink:href="#linear-gradient"/></defs><path class="cls-1" d="M13.46,14.1H70.61V31.29H51.87v74.48H31.72V31.29H13.46Z"/><path class="cls-2" d="M123.26,75H87.73v3.75q0,9.1,2.48,12.18A7.93,7.93,0,0,0,96.7,94q8.63,0,9.7-11.55l16.86,1.07q-4.5,23.64-26.9,23.64-13.81,0-21-9.34t-7.18-25q0-17.65,7.61-27t20.43-9.3a25.4,25.4,0,0,1,19.28,8.23Q123.26,53,123.26,75ZM105.39,64.07c0-.81.07-1.44.07-1.88q0-13.09-8.83-13.1t-8.76,15Z"/><path class="cls-3" d="M185,62.92l-17.59.68c-.27-4.17-.94-7.31-2-9.44A5.61,5.61,0,0,0,159.92,51q-9.54,0-9.53,20,0,11.63,2.31,16.25c1.55,3.09,3.84,4.64,6.89,4.64q7.11,0,7.79-12.56L185,80.45q-2.34,26.73-26.56,26.73-13.08,0-20-8.83T131.5,72.06q0-17.33,7.28-26.39T159.2,36.6Q182.9,36.6,185,62.92Z"/><path class="cls-4" d="M195.25,14.1h18.93v31q5.1-8.6,16.66-8.6,6.91,0,10.91,3.23a14,14,0,0,1,5.07,8.16,71.69,71.69,0,0,1,1.07,14.33v43.52H229V62.2q0-6.66-1.25-8.84c-.82-1.46-2.54-2.19-5.13-2.19a8.73,8.73,0,0,0-6.11,2.09q-2.3,2.09-2.29,9.48v43h-19Z"/><path class="cls-5" d="M260.86,37.94h17.93v9.27q4.69-10.6,17-10.61a18.93,18.93,0,0,1,11,3,13.15,13.15,0,0,1,5.54,7.62q1.2,4.64,1.2,14.1v44.46h-19V61.31c0-4.56-.59-7.38-1.75-8.46a6.66,6.66,0,0,0-4.7-1.61q-5.1,0-6.72,3.12T279.79,66v39.76H260.86Z"/><path class="cls-6" d="M378.64,71.86q0,35.31-27.49,35.32T323.58,71.86q0-35.26,27.57-35.26T378.64,71.86Zm-19.54,0q0-13-1.77-17.55t-6.18-4.58q-4.29,0-6.16,4.34t-1.87,17.79q0,12.44,1.6,17.28T351.15,94c3.07,0,5.17-1.61,6.28-4.81s1.67-9,1.67-17.3Z"/><path class="cls-7" d="M389.66,14.1H408.6v91.67H389.66Z"/><path class="cls-8" d="M474.68,71.86q0,35.31-27.5,35.32T419.61,71.86q0-35.26,27.57-35.26T474.68,71.86Zm-19.55,0q0-13-1.77-17.55t-6.18-4.58q-4.29,0-6.16,4.34t-1.87,17.79q0,12.44,1.61,17.28T447.18,94c3.07,0,5.17-1.61,6.28-4.81s1.67-9,1.67-17.3Z"/><path class="cls-9" d="M543.44,26.8V39.15a16.64,16.64,0,0,0-4.09-.54q-5.91,0-7.19,6.12,5,5.3,5,13.56A18,18,0,0,1,530.35,73q-6.86,5.53-17.73,5.54a36.81,36.81,0,0,1-8.8-1.14c-2.95,1.61-4.43,3.46-4.43,5.57a3.25,3.25,0,0,0,2.48,3.36q2.49.81,13.57,1.41a77.93,77.93,0,0,1,15.28,2,15.94,15.94,0,0,1,8.46,5.77q3.39,4.36,3.39,11.48,0,22.71-33.11,22.7-27.79,0-27.8-16.18,0-8.94,11.08-12.63-8.87-4.16-8.86-11.75,0-8.73,11.68-14.91-10.06-5-10.07-16.92,0-10.14,6.95-15.45T511,36.6a36,36,0,0,1,14.5,2.95q.74-7.24,3.63-10.34t9.06-3.09A18.29,18.29,0,0,1,543.44,26.8Zm-40.22,76q-6,2.76-6,8.2,0,6.84,15.58,6.85,13.37,0,13.36-7.12a6.26,6.26,0,0,0-1.44-4.27,6.39,6.39,0,0,0-3.69-2.08,82.84,82.84,0,0,0-9.44-.77q-4.21-.26-8.37-.8Zm14.43-45.12q0-10.95-6-11a5.42,5.42,0,0,0-5.14,2.65c-1,1.75-1.51,4.67-1.51,8.78q0,10.28,6.51,10.27a5,5,0,0,0,4.7-2.42q1.44-2.41,1.44-8.32Z"/><path class="cls-10" d="M552.15,37.94h19l9.07,41.35L589,37.94h16.32L584.9,106.79a88.14,88.14,0,0,1-5,13.83,16.86,16.86,0,0,1-6.25,6.54A19.85,19.85,0,0,1,563,129.74a31.8,31.8,0,0,1-8.06-1.07V113.76a37.74,37.74,0,0,0,5.31.4q5.5,0,7.55-1.8c1.37-1.2,2.65-3.82,3.86-7.87Z"/><path class="cls-11" d="M616.17,14.1h20.61l9.62,63.4,12-63.4h18.47l11.31,63.77L699.4,14.1h17l-19.67,92.14H678.62L666.4,42.51l-12.49,63.73H636.05Z"/><path class="cls-12" d="M772.64,75H737.11v3.75q0,9.1,2.48,12.18A7.93,7.93,0,0,0,746.08,94q8.64,0,9.7-11.55l16.86,1.07q-4.5,23.64-26.9,23.64-13.82,0-21-9.34t-7.18-25q0-17.65,7.62-27t20.42-9.3a25.4,25.4,0,0,1,19.28,8.23Q772.65,53,772.64,75ZM754.78,64.07c0-.81.06-1.44.06-1.88q0-13.09-8.83-13.1t-8.76,15Z"/><path class="cls-13" d="M827.24,14.1h20.28l26.19,91.67H853.1l-4.57-18.94H822.71l-4.5,18.94H799.7Zm17.5,57-9.26-37.56L826.59,71.1Z"/><path class="cls-14" d="M912.86,14.1h18.6v91.67H913.87V94.55q-4.29,12.17-15.42,12.16-10.94,0-16.29-9.54t-5.36-25q0-17.65,6.14-26.39T899.36,37q9.46,0,13.5,7.25Zm0,52.22q0-10-2.13-13.37a6.84,6.84,0,0,0-6.17-3.39,6.43,6.43,0,0,0-6.5,4.69q-1.72,4.7-1.72,19.45,0,11,1.89,15.42c1.26,2.95,3.33,4.42,6.2,4.43a7.43,7.43,0,0,0,6-3q2.4-3,2.4-12.23Z"/><path class="cls-15" d="M997.47,71.86q0,35.31-27.5,35.32T942.41,71.86q0-35.26,27.56-35.26T997.47,71.86Zm-19.54,0q0-13-1.77-17.55T970,49.76q-4.28,0-6.15,4.34T962,71.89q0,12.44,1.6,17.28T970,94c3.08,0,5.17-1.61,6.29-4.81s1.64-9,1.64-17.3Z"/><path class="cls-16" d="M1008.55,37.94H1026V48.08q5.57-11,15.42-11,9.32,0,15.49,8.29t6.16,25.35q0,17.86-6,26.93a19.22,19.22,0,0,1-17,9.07,16.22,16.22,0,0,1-12.93-6v28h-18.61ZM1027.16,78q0,9.72,1.57,12.64c1,1.94,3.17,2.92,6.38,2.92a6.77,6.77,0,0,0,6.36-3.89q2.07-3.89,2.07-18.84,0-12.48-1.8-16.9c-1.2-3-3.23-4.42-6.09-4.43a7.75,7.75,0,0,0-6,2.79q-2.48,2.77-2.47,12.9Z"/><path class="cls-17" d="M1077,17.12l18.4-.6V37.94h12.49V52.85H1095.4V77.77a77.27,77.27,0,0,0,.31,9,5.25,5.25,0,0,0,2,3.43c1.14.91,3.06,1.37,5.74,1.37,1.43,0,3.23,0,5.37-.13v14.37a53.51,53.51,0,0,1-11.55,1.41q-8.6,0-13.16-3.29a14.44,14.44,0,0,1-5.84-8.26q-1.27-5-1.28-15.78v-27h-7.52v-15H1077Z"/></svg>