<svg id="Layer_1" data-name="Layer 1" xmlns="http://www.w3.org/2000/svg" xmlns:xlink="http://www.w3.org/1999/xlink" viewBox="0 0 597.68 109.31"><defs><style>.cls-1,.cls-10,.cls-11,.cls-2,.cls-3,.cls-4,.cls-5,.cls-6,.cls-7,.cls-8,.cls-9{fill:none;stroke-miterlimit:10;stroke-width:3px;}.cls-1{stroke:url(#Degradado_sin_nombre_2);}.cls-2{stroke:url(#Degradado_sin_nombre_2-2);}.cls-3{stroke:url(#Degradado_sin_nombre_2-3);}.cls-4{stroke:url(#Degradado_sin_nombre_2-4);}.cls-5{stroke:url(#Degradado_sin_nombre_2-5);}.cls-6{stroke:url(#Degradado_sin_nombre_2-6);}.cls-7{stroke:url(#Degradado_sin_nombre_2-7);}.cls-8{stroke:url(#Degradado_sin_nombre_2-8);}.cls-9{stroke:url(#Degradado_sin_nombre_2-9);}.cls-10{stroke:url(#Degradado_sin_nombre_2-10);}.cls-11{stroke:url(#Degradado_sin_nombre_2-11);}</style><linearGradient id="Degradado_sin_nombre_2" x1="4.26" y1="53.96" x2="78.23" y2="53.96" gradientUnits="userSpaceOnUse"><stop offset="0" stop-color="#c901fd"/><stop offset="1" stop-color="#00ff57"/></linearGradient><linearGradient id="Degradado_sin_nombre_2-2" x1="82.8" y1="65.77" x2="147.76" y2="65.77" xlink:href="#Degradado_sin_nombre_2"/><linearGradient id="Degradado_sin_nombre_2-3" x1="158.6" y1="64.77" x2="195.87" y2="64.77" xlink:href="#Degradado_sin_nombre_2"/><linearGradient id="Degradado_sin_nombre_2-4" x1="199.8" y1="57.11" x2="240.66" y2="57.11" xlink:href="#Degradado_sin_nombre_2"/><linearGradient id="Degradado_sin_nombre_2-5" x1="250.38" y1="53.96" x2="268.55" y2="53.96" xlink:href="#Degradado_sin_nombre_2"/><linearGradient id="Degradado_sin_nombre_2-6" x1="276.13" y1="53.19" x2="318.66" y2="53.19" xlink:href="#Degradado_sin_nombre_2"/><linearGradient id="Degradado_sin_nombre_2-7" x1="325.98" y1="53.96" x2="344.15" y2="53.96" xlink:href="#Degradado_sin_nombre_2"/><linearGradient id="Degradado_sin_nombre_2-8" x1="355.06" y1="65.77" x2="414.53" y2="65.77" xlink:href="#Degradado_sin_nombre_2"/><linearGradient id="Degradado_sin_nombre_2-9" x1="418.62" y1="65.77" x2="483.87" y2="65.77" xlink:href="#Degradado_sin_nombre_2"/><linearGradient id="Degradado_sin_nombre_2-10" x1="489.83" y1="57.11" x2="530.7" y2="57.11" xlink:href="#Degradado_sin_nombre_2"/><linearGradient id="Degradado_sin_nombre_2-11" x1="534.22" y1="65.77" x2="599.18" y2="65.77" xlink:href="#Degradado_sin_nombre_2"/></defs><path class="cls-1" d="M61.34,67.83,76.51,69.5Q75,83.14,66,92T42.1,100.78q-12.43,0-20.2-6.26A39.89,39.89,0,0,1,10,77.55a64.21,64.21,0,0,1-4.2-23.63q0-20.76,9.85-33.77t27.09-13q13.52,0,22.5,8.32T76.51,39.28l-15.17,1.6q-4.2-20.56-18.51-20.56-9.18,0-14.27,8.55T23.47,53.66q0,16.5,5.46,24.92T43.37,87a15.8,15.8,0,0,0,12.24-5.66A22.61,22.61,0,0,0,61.34,67.83Z"/><path class="cls-2" d="M131.35,78l13.71,1.86a28.71,28.71,0,0,1-10.38,15q-7.73,5.93-19.37,5.93-14,0-22.49-9.39T84.3,66q0-15.24,8.58-25.22t23.3-10q14.37,0,22.22,9.85t7.86,25.29l-.07,1.73H100.07a37.58,37.58,0,0,0,1.3,11,14.71,14.71,0,0,0,5.16,7.18,15,15,0,0,0,9.65,3.06Q127.42,88.86,131.35,78Zm-.93-20.1A17,17,0,0,0,126.06,46,14.71,14.71,0,0,0,105,45.71q-4.18,4.29-4.92,12.14Z"/><path class="cls-3" d="M175.27,99.38H160.1V32.16h13.71v16q2.92-9.37,8.05-13.71t10.52-4.32c.49,0,1.15,0,2,.06V46.54q-11.58,0-15.34,7.38a31.6,31.6,0,0,0-3.76,14.31Z"/><path class="cls-4" d="M239.16,87.53V99.38a53.27,53.27,0,0,1-10.51,1.46,21.55,21.55,0,0,1-10.52-2.42,14.89,14.89,0,0,1-6.42-6.66q-2-4.23-2-13V43.94H201.3V32.16h9.25l1.39-17.5,12.45-1.13V32.16H237.9V43.94H224.39V76.75q0,6.33,2.3,8.62t8.68,2.3C236.57,87.67,237.83,87.62,239.16,87.53Z"/><path class="cls-5" d="M267.05,24.31H251.88V8.54h15.17Zm0,75.07H251.88V32.16h15.17Z"/><path class="cls-6" d="M302.26,99.38H287.61V43.94h-10V32.16h10V28.83q0-9.84,4.8-15.83t19.36-6c1.42,0,3.22,0,5.39.13V19.05c-1.9-.13-3.21-.2-3.92-.2q-5.6,0-7.86,1.5a5.72,5.72,0,0,0-2.69,3.53,49.29,49.29,0,0,0-.43,8.28h14.9V43.94h-14.9Z"/><path class="cls-7" d="M342.65,24.31H327.48V8.54h15.17Zm0,75.07H327.48V32.16h15.17Z"/><path class="cls-8" d="M399.69,74.69l13,1.33q-2.52,12.65-9.78,18.7a26.41,26.41,0,0,1-17.5,6.06q-13.92,0-21.4-10.15t-7.49-24.86q0-15.16,8.19-25.09t21.83-9.92q22,0,26.15,23.16l-13,1.8q-1.74-12.51-12.31-12.51A11.76,11.76,0,0,0,376.16,50q-3.5,6.76-3.49,16.34,0,10.19,3.62,15.71a11.5,11.5,0,0,0,10.15,5.52Q396.43,87.53,399.69,74.69Z"/><path class="cls-9" d="M481.88,99.38H467.44a54.89,54.89,0,0,1-2.33-13.58q-6.06,15-22.76,15-10.05,0-16.14-5.89a19.74,19.74,0,0,1-6.09-14.81q0-23.16,40.66-23.16c1.07,0,2.51,0,4.33.07V51.93q0-10.45-14.24-10.45-13.85,0-15.71,10.45L422.25,50q1.06-8.39,8.65-13.81t22-5.43a51.53,51.53,0,0,1,12.72,1.3,19.63,19.63,0,0,1,8.32,4.39,17,17,0,0,1,4.69,6.73q1.29,3.63,1.3,12.28V85.8A49.33,49.33,0,0,0,481.88,99.38ZM465.11,65.17q-29.42,0-29.42,14a9.73,9.73,0,0,0,3,7.16q3,3,8.95,3,8.64,0,13.07-5.49a19.35,19.35,0,0,0,4.43-12.48Z"/><path class="cls-10" d="M529.2,87.53V99.38a53.35,53.35,0,0,1-10.52,1.46,21.51,21.51,0,0,1-10.51-2.42,14.84,14.84,0,0,1-6.42-6.66q-2-4.23-2-13V43.94h-8.39V32.16h9.25l1.4-17.5,12.45-1.13V32.16h13.5V43.94h-13.5V76.75q0,6.33,2.29,8.62t8.69,2.3C526.6,87.67,527.87,87.62,529.2,87.53Z"/><path class="cls-11" d="M582.78,78l13.7,1.86a28.6,28.6,0,0,1-10.38,15q-7.71,5.93-19.36,5.93-14,0-22.5-9.39T535.72,66q0-15.24,8.59-25.22t23.29-10q14.37,0,22.23,9.85t7.85,25.29l-.06,1.73H551.5a38,38,0,0,0,1.29,11A14.84,14.84,0,0,0,558,85.8a15,15,0,0,0,9.65,3.06Q578.85,88.86,582.78,78Zm-.94-20.1A16.87,16.87,0,0,0,577.48,46a14.7,14.7,0,0,0-21.06-.29q-4.2,4.29-4.92,12.14Z"/></svg>