<svg id="Layer_1" data-name="Layer 1" xmlns="http://www.w3.org/2000/svg" viewBox="0 0 1257.6 335.76"><defs><style>.cls-1{fill:#3b3b3b;}.cls-2{opacity:0.6;}.cls-2,.cls-3,.cls-4{isolation:isolate;}.cls-3{opacity:0.45;}.cls-4{opacity:0.8;}</style></defs><g id="Layer_2" data-name="Layer 2"><g id="Layer_1-2" data-name="Layer 1-2"><path class="cls-1" d="M356.55,188.84a4.15,4.15,0,0,1-4.19,4.08h-77.2c2,19.09,16.3,36.56,36.56,36.56,13.86,0,24.11-5.24,31.79-16.3a4.18,4.18,0,0,1,3.38-2,3.74,3.74,0,0,1,3.84,3.63V215a3.66,3.66,0,0,1-.58,2c-7.8,13.51-23.29,20.15-38.43,20.15-26,0-44.6-23.29-44.6-48.1S285.64,141,311.72,141s44.72,23.06,44.83,47.86Zm-8.26-3.61c-1.63-19.1-16.31-36.56-36.57-36.56s-34.58,17.46-36.56,36.56Z"/><path class="cls-1" d="M450.41,142.85a4,4,0,0,1,3.84,3.84,3.74,3.74,0,0,1-3.63,3.84H429.68v81.4a3.88,3.88,0,0,1-3.84,3.84,4,4,0,0,1-3.84-3.84v-81.4H402.08a3.74,3.74,0,0,1-3.84-3.63v-.21a3.87,3.87,0,0,1,3.84-3.84H422v-29.7a4.12,4.12,0,0,1,3.49-4.07,3.81,3.81,0,0,1,4.28,3.27,5.44,5.44,0,0,1,0,.57v29.93Z"/><path class="cls-1" d="M576.75,182.2v49.26a4,4,0,0,1-3.84,3.84,3.72,3.72,0,0,1-3.84-3.63.74.74,0,0,1,0-.21V182.2c0-16.65-9.44-33.18-28-33.18-23.76,0-34,20.72-32.61,42,0,.59.24,3,.24,3.38v36.91a4.15,4.15,0,0,1-3.5,4.08,3.81,3.81,0,0,1-4.27-3.27,2.73,2.73,0,0,1,0-.57V69.6a3.87,3.87,0,0,1,3.84-3.84,4,4,0,0,1,3.84,3.84v91.53c6.64-11.88,18.52-19.91,32.37-19.91C563.83,141.22,576.75,161.13,576.75,182.2Z"/><path class="cls-1" d="M715.44,188.84a4.16,4.16,0,0,1-4.2,4.08H634c2,19.09,16.3,36.56,36.57,36.56,13.85,0,24.1-5.24,31.79-16.3a4.16,4.16,0,0,1,3.37-2,3.73,3.73,0,0,1,3.84,3.63.74.74,0,0,1,0,.21,3.5,3.5,0,0,1-.58,2c-7.8,13.51-23.29,20.15-38.42,20.15-26,0-44.6-23.29-44.6-48.1S644.52,141,670.61,141c25.85,0,44.71,23.06,44.83,47.86Zm-8.39-3.61c-1.63-19.1-16.3-36.56-36.56-36.56s-34.58,17.46-36.56,36.56Z"/><path class="cls-1" d="M810.34,146.46a3.93,3.93,0,0,1-3.61,4.19c-22.71,3.37-33,21.89-33,43.43V231a4.14,4.14,0,0,1-3.5,4.08A3.8,3.8,0,0,1,766,231.8a3.64,3.64,0,0,1,0-.57V147a4.15,4.15,0,0,1,3.5-4.08,3.81,3.81,0,0,1,4.27,3.28,3.43,3.43,0,0,1,0,.56v17.12c6.4-10.83,19.09-21.07,32.37-21.07C808.13,142.85,810.34,144.24,810.34,146.46Z"/><path class="cls-1" d="M937.26,188.84a4.15,4.15,0,0,1-4.19,4.08h-77.2c2,19.09,16.3,36.56,36.56,36.56,13.86,0,24.11-5.24,31.79-16.3a4.18,4.18,0,0,1,3.38-2,3.74,3.74,0,0,1,3.84,3.63V215a3.66,3.66,0,0,1-.58,2c-7.8,13.51-23.29,20.15-38.43,20.15-26,0-44.6-23.29-44.6-48.1S866.35,141,892.43,141s44.72,23.06,44.83,47.86ZM929,185.23c-1.63-19.1-16.31-36.56-36.57-36.56s-34.58,17.46-36.56,36.56Z"/><path class="cls-1" d="M1062.09,147.39v84.54a4,4,0,0,1-3.84,3.84,3.74,3.74,0,0,1-3.84-3.63V215.86c-6.41,12.69-17.7,21.89-32.14,21.89-22.94,0-35.63-19.91-35.63-41V147.27a3.88,3.88,0,0,1,3.84-3.84,4,4,0,0,1,3.84,3.84v49.49c0,16.65,9.43,33.19,27.95,33.19,26,0,32.14-24.34,32.14-51.24V147.15a3.9,3.9,0,0,1,3.95-3.84,3.77,3.77,0,0,1,1.29.23A4.23,4.23,0,0,1,1062.09,147.39Z"/><path class="cls-1" d="M1257.6,181.85v49.49a4,4,0,0,1-3.84,3.85,3.74,3.74,0,0,1-3.84-3.63V181.85c0-16.65-9.43-32.95-28-32.95-23.29,0-32.14,24.92-32.14,44.25v38.19a4,4,0,0,1-3.84,3.85,3.74,3.74,0,0,1-3.84-3.63V181.85c0-16.65-9.43-32.95-28-32.95-23.52,0-33.19,18.52-32.37,43.2,0,.58.23,1.63,0,2v37.15a4.13,4.13,0,0,1-3.49,4.07,3.81,3.81,0,0,1-4.28-3.27,2.73,2.73,0,0,1,0-.57V147a4.14,4.14,0,0,1,3.49-4.08,3.82,3.82,0,0,1,4.28,3.28,5.12,5.12,0,0,1,0,.56v14.09c6.64-11.87,18.51-19.67,32.37-19.67,15.72,0,28,10,33,24.57,6.41-14.44,18.87-24.57,34.82-24.57,22.71,0,35.63,19.67,35.63,40.63Z"/><path class="cls-2" d="M96.65,124.1,0,168l96.65,57.17L193.41,168Z"/><path class="cls-3" d="M0,168l96.65,57.17V7.54Z"/><path class="cls-4" d="M96.65,7.54V225.17L193.41,168Z"/><path class="cls-3" d="M0,186.4,96.65,322.64V243.45Z"/><path class="cls-4" d="M96.65,243.45v79.19L193.41,186.4Z"/></g></g></svg>