<svg id="Layer_1" data-name="Layer 1" xmlns="http://www.w3.org/2000/svg" viewBox="0 0 1364.44 335.76"><defs><style>.cls-1{fill:#212121;}.cls-2{fill:#408446;}</style></defs><path class="cls-1" d="M444.37,171.36q0-62.22,0-124.43c0-3.69,5.53-9.71,10.24-9.86,12.82-.4,25.65-.21,38.48-.33,1.9,0,2.18.95,2.15,2.47-.05,2.34,0,4.67,0,7,0,30.82.06,61.64-.08,92.46,0,3.94.76,5.56,5.17,5.53q39-.31,78,0c3.66,0,4.71-.78,4.69-4.65-.2-29.15,0-58.3-.18-87.45-.07-10.56,3-15.54,15.28-15.35q15.73.24,31.48,0c3.11-.07,3.85.8,3.84,3.84q-.12,122.7-.09,245.39c0,8.48-4.42,12.89-12.91,13-11,.13-22-.13-33,.13-3.75.09-4.67-.9-4.66-4.66.17-33.15,0-66.3.22-99.45,0-4.72-1-6.13-5.92-6.08-25.65.28-51.31.2-77,0-3.78,0-5,.82-5,4.86.19,30,.11,60,.11,90,0,10.67-4.47,15.2-15.09,15.23s-21.33-.07-32,.05c-2.77,0-3.78-.23-3.76-3.68.21-41.32.13-82.63.13-123.94Z"/><path class="cls-1" d="M1130.51,167.94c-.57-15.83.21-31.65.86-47.43a85.28,85.28,0,0,1,9.86-36.14c4.06-7.78,9.5-14.17,15.39-20.42a88.74,88.74,0,0,1,30.91-21.16c8.2-3.36,17.3-5,26.41-6a108.58,108.58,0,0,1,50.65,6.39c10.67,4,20,10.54,28.43,18.32,10.36,9.6,17.53,21,22.37,34.44,3.59,9.9,4.71,20,5.5,30.18,1.77,22.41,1.35,44.91.93,67.37-.35,18.69-1.94,37.35-9.29,54.71-4.23,10-11.34,18.34-19.33,25.91A105.54,105.54,0,0,1,1264.66,293c-7.46,3.45-16,5-24.47,5.87a150.07,150.07,0,0,1-24.22.78c-15.67-1-30.6-5.41-43.59-14.49-12-8.36-22.64-18.14-30-31.14-5.27-9.25-7.36-19.3-9.26-29.54C1129.61,205.75,1131.25,186.8,1130.51,167.94Zm140.71,4.58c0-18.45.11-31.77-1.18-45-1-10.13-2.3-20.22-8.6-28.77-10.78-14.64-29-20.64-47.63-15.78-17.26,4.5-28.56,17.71-30.52,37.1a471.09,471.09,0,0,0,0,96.16c2.37,22.86,18.2,37.11,41.3,38.14,22.16,1,39.34-12.44,43.76-34.71C1271.81,202.38,1271.09,184.84,1271.22,172.52Z"/><path class="cls-1" d="M693.69,172.36V56.4c0-1.16,0-2.33,0-3.5,0-12.74,3-16.27,16.11-16.22q74.72.26,149.45,0c4.09,0,5.38.87,5.19,5.13-.37,8.64-.06,17.32-.12,26-.07,9.7-6.45,15.31-15.92,14.13a20.82,20.82,0,0,0-2.5,0c-32.32,0-64.64.06-97-.08-3.59,0-4.82.65-4.77,4.56.24,17.83.21,35.66,0,53.48,0,3.59,1,4.36,4.46,4.35,30-.14,60-.06,90-.1,7.83,0,7.83-.09,7.83,8,0,7-.4,14,.08,21,.85,12.12-6.36,16.49-16.1,16.34-26.82-.41-53.65,0-80.47-.24-4.44,0-5.88.95-5.8,5.65q.45,27,0,54c-.07,4.33,1.28,5.1,5.29,5.08,36-.16,72-.09,108-.09,6.92,0,6.92,0,6.91,6.68,0,8.16,0,16.33,0,24.49-.07,9-4.83,13.91-13.67,13.92q-76.21,0-152.45.07c-3.17,0-4.62-.35-4.61-4.19C693.75,254,693.69,213.17,693.69,172.36Z"/><path class="cls-2" d="M42.42,252.61c.55-15.37-1.1-34.55.67-53.67,3.52-38.21,20.73-69.13,50.86-92.68C117.6,87.78,144.77,79,174.75,79c16.49,0,33,.17,49.49-.09,4.32-.07,5.24,1.32,5.15,5.35-.27,11.49,0,23-.13,34.49a39.25,39.25,0,0,1-38.77,39c-10,.2-20-.79-29.75,2.36C136.2,168,121,188.8,120.86,215.62q-.3,51.23,0,102.47c0,4.48-1,5.91-5.73,5.83-18.49-.29-37-.11-55.49-.12-11,0-17.16-6-17.23-16.92C42.35,290.05,42.42,273.22,42.42,252.61Z"/><path class="cls-2" d="M249.42,71.08c0-18.15.1-36.3-.09-54.45,0-3.65.8-4.83,4.65-4.79,19.32.21,38.64,0,58,.13,9.2,0,15.7,6,15.73,15.19.09,35.64,1.14,71.32-.46,106.89C324.59,192.4,280.83,242,223.66,253.88a152.39,152.39,0,0,1-32.75,2.95q-22.72-.25-45.46,0c-3.53,0-4.52-1.07-4.46-4.52.21-11.49.08-23,.12-34.48.07-22.48,16.84-39.39,39.38-39.83,8.13-.16,16.29.59,24.38-1.15,25.27-5.42,43.93-27.5,44.43-53.33.33-17.48.06-35,.06-52.46Z"/><path class="cls-1" d="M955.65,168.7c.57,17-.52,34.72,3.2,52.12,4.06,19,17.1,31.17,35.12,33.1,21.92,2.35,37.74-6,46.27-24.4.42-.91.78-1.84,1.16-2.77,3.66-9,3.66-9,13.32-9,8.16,0,16.33-.18,24.48.05,10.38.29,15,7.07,12.42,16.43-5.28,19-15.72,35.28-31.4,47A90.76,90.76,0,0,1,1010.86,299c-6.78.42-13.58.75-20.33.69-9.09-.08-17.64-3.42-26.08-6.47-17.16-6.2-31-17-42-31.45-8.38-11-13-23.33-15.28-37.13-1.51-9-2.68-18.25-2.37-26.95,1-26.22-.56-52.45,1.51-78.67C907.85,99,915.44,81.93,928,66.77c5.35-6.48,12-12.61,18.8-16.56a102.47,102.47,0,0,1,41.09-13.39,114.31,114.31,0,0,1,42.34,3.34,86.91,86.91,0,0,1,43.2,27.2c10.14,11.6,15.39,25.41,20.21,39.55.94,2.75,1,5.78,1.66,8.65.49,2.23-.62,2.49-2.43,2.49-13.49-.07-27,.09-40.48-.18-5.85-.12-9-4.08-11.13-9.27-5.13-12.74-13.72-22.11-27.38-25.54-23.75-6-53.63,2.53-56.69,41.6C956,139.13,956,153.6,955.65,168.7Z"/><path class="cls-2" d="M42.41,132.12V117.84c0-33.45.12-66.91-.11-100.36,0-4.78,1.48-5.69,5.86-5.64,18.31.22,36.62.08,54.92.1C115,12,120.7,17.82,120.7,29.83c0,11.48-.06,23,0,34.45,0,2.59-.53,4.23-3.24,5.33C86.91,82,62.9,102.24,45.17,130c-.52.82-1.13,1.58-1.7,2.37Z"/><path class="cls-2" d="M327.78,203.48q0,50.67,0,101.35c0,5,0,10,.15,15,.08,2.82-.69,4.1-3.93,4.07-19.65-.15-39.3,0-58.95-.12-8.78-.05-15.22-6.07-15.47-15-.36-12.82,0-25.65-.19-38.47,0-3,1.93-3.52,3.91-4.32,27.23-11.07,49.29-28.73,66.55-52.45,2.42-3.33,4.64-6.81,6.95-10.22Z"/></svg>