<svg id="Layer_1" data-name="Layer 1" xmlns="http://www.w3.org/2000/svg" viewBox="0 0 1257.6 335.76"><defs><style>.cls-1{fill:#494745;}.cls-2{fill:#c75991;}.cls-3{fill:#f9faf7;}</style></defs><path class="cls-1" d="M399.18,71.08c-1.91,9.1-3.67,17.45-5.43,25.8-9.14,43.16-18,86.38-25.48,129.86-1.66,9.64-3.27,19.31-4,29.09-.06.77-.07,1.55-.1,2.33-.41,13.14,8.87,19.15,20.91,13.44,6.84-3.25,11.7-8.68,15.45-15.1a52.48,52.48,0,0,0,5.72-14.71c6.5-27.69,11.54-55.67,16.84-83.59,5.54-29.15,11.35-58.25,17-87.38.5-2.55,1.39-3.92,4.35-4.29,14.34-1.77,28.64-3.85,43-5.82.6-.08,1.21-.12,2.57-.24-8.56,42.19-17.52,84-26.14,126.24,2.2-.25,3.26-1.63,4.48-2.59,18.08-14.24,36.18-28.44,54.14-42.82a21.45,21.45,0,0,1,11.72-4.91c9.89-1,19.72-2.56,29.58-3.86.68-.09,1.41-.56,2.52.44l-17.53,12.29-17.18,12c-5.86,4.11-11.73,8.19-17.56,12.33-5.61,4-11.38,7.74-17.06,12.11,1.52,1.27,2.58.73,3.57.68a52.91,52.91,0,0,1,13.47.66c13.07,2.76,21.52,10.69,25.46,23.28a53,53,0,0,1,.71,28.11c-2.51,10.9-5,21.81-7.45,32.71a25.87,25.87,0,0,0-.52,7.89c.39,4.65,2.81,7.06,7.43,7.35a19.6,19.6,0,0,0,13.2-3.65,38.15,38.15,0,0,0,6.18-5.66c.51-.58,1-1.2,1.47-1.81,9.06-11.56,15.18-24,16.64-39.19,2-21,9.8-40.41,21-58.27,8.75-14,20.12-25.27,35.3-32.29a63.83,63.83,0,0,1,38.25-4.86c8.4,1.42,12.38,4.88,16.25,13.47,1.62-2.2,1.58-4.67,2-6.93,1.23-5.95,1.19-6,7.28-6.47,13.32-1.08,26.62-2.44,39.85-4.4a2.06,2.06,0,0,1,1.88.26c.57,1.52-.42,2.92-.83,4.32-9.52,32.41-16.27,65.41-21.39,98.77-1.27,8.3-2.43,16.61-2.88,25a31.37,31.37,0,0,0,0,4.65c.46,4.7,3.15,7.73,7.54,9.1a17.58,17.58,0,0,0,15.61-2.11,26.57,26.57,0,0,0,7.14-6.64,53.63,53.63,0,0,0,10.22-26.09c2.85-27.6,11.73-53,28.92-75.11a76.56,76.56,0,0,1,28-22.7A64.09,64.09,0,0,1,850,136.67c7.88,1.31,13.82,5.35,16.87,13.39q2.45-11.43,4.88-22.86c3.72-17.47,7.48-34.94,11.06-52.44.53-2.57,1.51-3.6,4.13-3.94,14.94-2,29.86-4.11,44.79-6.19a12.68,12.68,0,0,1,1.74,0c.83,1.06,0,1.9-.22,2.68-10.45,31-17.64,62.79-24.2,94.76q-8.73,42.47-15.21,85.34c-.7,4.6-2,9.11-1.88,13.83.16,8.11,3,11.25,11,12,7.36.72,13.41-2,18.29-7.37a42.39,42.39,0,0,0,7.57-12.23,14.4,14.4,0,0,0,.83-5,155.13,155.13,0,0,1,21.67-72.53c9.34-15.71,22.09-28.05,39-35.62a70.31,70.31,0,0,1,40.59-5.13c15.49,2.49,24.64,12.3,29.16,26.81a79.72,79.72,0,0,1,3.21,21.62c.14,5.19,2.45,7.83,7.62,8.73a18.69,18.69,0,0,0,7.88-.24c7.09-1.82,13.11-5.59,18.5-10.43a5.7,5.7,0,0,0,2-3.09c1.86-9,3.75-17.94,5.61-26.92,0-.26-.16-.57-.37-1.24-2.5,0-5.13-.06-7.75,0-2,.06-2.39-.88-2-2.59.63-2.89,1.28-5.77,1.8-8.67.27-1.58,1.18-2,2.59-2,1.71,0,3.42,0,5.13,0,3.54-.06,3.58-.06,4.33-3.38,1.59-7.13,3.13-14.26,4.69-21.4,1.23-5.61,2.63-11.2,3.63-16.86a7.29,7.29,0,0,1,4.77-6.1,258.79,258.79,0,0,0,35-18.54c5.51-3.51,10.92-7.18,15.44-12a1.81,1.81,0,0,1,1.63-.73c.55,1.61-.33,3-.73,4.47-6.41,23.07-11.56,46.43-16.38,69.87-.06.31-.14.61-.2.91-.62,3.6-.58,3.72,3,3.73,10,0,19.9,0,29.85,0,.92,0,1.83.09,3,.15,0,4.09-1.3,7.74-1.89,11.49-.31,1.92-2,1.59-3.37,1.59h-24.72c-2,0-4.06.16-6.06,0-2.57-.24-3.43.89-3.93,3.32-2.63,12.94-5.45,25.84-8.21,38.76q-6.33,29.63-12.67,59.26a44.07,44.07,0,0,0-1.28,11.09c.33,7.47,3.7,10.75,11.07,10.93,5.91.15,11.33-1.65,16.55-4.18,9.05-4.4,16.81-10.58,24.11-17.41.65-.61,1.12-1.49,2.52-1.73.34,1.83-.25,3.55-.61,5.24-3.79,17.56-14.52,29.9-29.49,39a73.35,73.35,0,0,1-43.24,10.56c-13.94-.8-24.3-9.81-27.54-23.72-2.38-10.21-1.85-20.4.24-30.54,3.41-16.43,7-32.82,10.52-49.23.32-1.49.47-3,.69-4.43-1.1-.65-1.65,0-2.23.43a37,37,0,0,1-27.15,7.6c-3.71-.41-3.47.45-3.79,3.4-2.09,19.5-7.05,38.18-16.73,55.39-7.28,13-16.8,23.83-29.69,31.57-13.82,8.29-28.75,10.36-44.46,8.22A60.84,60.84,0,0,1,958.36,301a40.44,40.44,0,0,1-24.09-22.63c-.55-1.24-.71-2.69-2-4-1.46.91-2.17,2.49-3.12,3.79-7.39,10-16.61,17.6-28.36,21.93a55.23,55.23,0,0,1-28.88,2.78c-12-2.08-19.72-9.22-23.29-20.85-.54-1.77-1-3.59-1.41-5.39-1.72-.22-2,1.31-2.67,2.21-4.84,6.54-10.23,12.53-17,17.17-12.87,8.85-26.9,11.76-42.13,8-13.84-3.44-22.45-12.62-27.5-25.57-.77-2-1.43-4-2.17-6.1-1.72,1.08-2.32,2.76-3.26,4.14-7.73,11.3-17.4,20.26-30.32,25.31a52.3,52.3,0,0,1-28.82,3c-10.89-2-18-8.52-21.87-18.79a48.24,48.24,0,0,1-2.39-9.48c-1.54-.47-1.79.93-2.37,1.66a108.23,108.23,0,0,1-10.13,11.58C645.77,300,633.28,306.06,618,305.54c-18.34-.63-31.21-9.13-38.23-26.21-.8-1.95-1.48-3.95-2.24-6-1.55.82-2,2.24-2.74,3.37a104.3,104.3,0,0,1-11.09,13.79C551.37,303.28,536.17,307.23,519,305a48.29,48.29,0,0,1-6.85-1.37c-14.15-4-22.43-13.17-24.81-27.73-1.44-8.77-.19-17.35,1.42-25.93,1.27-6.71,3.19-13.29,3.84-20.13a36.65,36.65,0,0,0-.62-11.59c-1.39-6.26-4.78-8.9-11.19-9a21.66,21.66,0,0,0-10.3,2.57A88.81,88.81,0,0,0,458,220c-1.66,1.24-2.07,2.91-2.46,4.79q-7.81,37.17-15.73,74.31c-.19.91-.44,1.81-.61,2.73a1.93,1.93,0,0,1-2.24,1.8c-.78,0-1.56,0-2.33,0H391.49c.15-4.95,2.59-9.14,2.71-13.84-1.86.23-2.8,1.58-4,2.48-12.49,9.49-26.49,14-42.23,13.14-13.77-.77-24.56-8.73-29.12-21.75a49.57,49.57,0,0,1-2.59-20.18c1.55-21.58,4.87-42.91,8.58-64.2a4.57,4.57,0,0,0-.14-3.09,35.31,35.31,0,0,1-15.41,9.17,32,32,0,0,1-17.61-.09c-1.32,4.47-1.23,8.86-2,13.11-2.84,16.51-7.65,32.34-16.08,46.92-7.19,12.44-16.48,22.91-28.9,30.44-13.94,8.45-29,10.52-44.89,8.35a54.89,54.89,0,0,1-15.65-4.4c-14-6.45-21.49-17.93-24.2-32.71-2.43-13.34-1.13-26.66,1.33-39.86A156.46,156.46,0,0,1,178,180.35c9.59-17.53,22.83-31.35,41.21-39.76a70.17,70.17,0,0,1,39.66-5.43c16.5,2.31,26.19,12.61,30.6,28.18a69.59,69.59,0,0,1,2.85,21.18c-.1,3,1.17,4.08,3.67,5a27.36,27.36,0,0,0,31.64-10.67,14.62,14.62,0,0,0,2-5.66q8.81-46,19.59-91.59c1-4.16,1-4.11,5-4.65q19.63-2.62,39.27-5.3C395.11,71.39,396.78,71.3,399.18,71.08ZM624.59,246.13c0,2.64-.22,5.3,0,7.91.52,5.12,1.45,10.15,4.67,14.43a10.35,10.35,0,0,0,6.37,4.35,21,21,0,0,0,15.66-2.58c9.28-5.76,14.59-14.4,16.9-24.7,5.52-24.68,10.63-49.44,15.82-74.19a12.13,12.13,0,0,0-10.53-14.81,21,21,0,0,0-16.12,4.6,47.46,47.46,0,0,0-11.64,12.58C632,195.9,625.86,220.32,624.59,246.13Zm224.27-89.8a21.55,21.55,0,0,0-12.52,4.46,50.06,50.06,0,0,0-11.28,11.68,110.8,110.8,0,0,0-12.56,25.39c-6.07,16.94-9.88,34.32-9.63,52.4.09,6.22.91,12.41,4.62,17.77,1.55,2.25,3.45,4.07,6.16,4.67a20.94,20.94,0,0,0,14.09-1.31c10.39-5.1,16.24-13.83,18.72-24.75,1.26-5.58,2.23-11.25,3.41-16.86q6.15-29.16,12.41-58.3a11.42,11.42,0,0,0-.21-6.84C859.88,159.12,855.71,156.34,848.86,156.33ZM208.32,248.21c0,1.24,0,2.48,0,3.72.15,5.29.37,10.55,2.5,15.53,1.82,4.25,5.06,6.47,9.55,7.2a19.46,19.46,0,0,0,17.5-5.46,53.26,53.26,0,0,0,8.51-10.44c9.54-15.48,14.14-32.64,17-50.38.25-1.54,0-2.59-1.77-3.2-3.35-1.17-5.17-3.82-6-7.16-2-8-.5-18.26,7.61-23.12,1.11-.67,2.12-1.3,1.88-2.85-.62-4-.85-8-2.58-11.77a9.12,9.12,0,0,0-7.48-5.55c-5.46-.77-10.11,1.06-14.15,4.57a49.9,49.9,0,0,0-10.25,12C216.33,194.94,209.58,220.78,208.32,248.21Zm770.93,0c0,2-.17,4,0,6,.48,4.62.59,9.31,2.7,13.64a11.19,11.19,0,0,0,8,6.46c6.42,1.34,12.35.45,17.48-4a47.88,47.88,0,0,0,8.86-10.15c10.16-15.72,15.05-33.28,17.87-51.55.27-1.77-.06-2.9-1.9-3.6-3.55-1.34-5-4.32-6-7.79-2-7.46.28-18,7.64-22.29,1.34-.78,2.13-1.64,2-3.31-.42-4-.91-8-2.68-11.74a8.7,8.7,0,0,0-6.76-5.11c-5.63-1-10.45.78-14.64,4.41A52.23,52.23,0,0,0,1001.1,172C987.16,195.52,980.55,221.13,979.25,248.24Zm-482.9-65.77-.32.23c.09.09.18.23.27.24s.2-.13.3-.2Z"/><path class="cls-1" d="M122.55,159.85a39.61,39.61,0,0,0,17.27-4.95c10.7-5.64,19.1-13.83,25.8-23.78A105.31,105.31,0,0,0,183.92,77c.61-11.63-.95-23-7-33.28S162,27.18,150.5,25.79c-24.63-3-48.37.57-69,15.08C55.6,59.06,43.63,84.57,45.37,116.31A44.23,44.23,0,0,0,47,125.46a44.39,44.39,0,0,0,3.69,8.38c-.91,1.37-2.08.91-3.06.91A70.36,70.36,0,0,1,27,131.84c-13-4-20.2-13.54-21-27.15a51.3,51.3,0,0,1,8.11-31,98.66,98.66,0,0,1,13-16.41c21.47-22.17,47.61-36,77.27-43.8a137.72,137.72,0,0,1,53.59-3.74c17.52,2.31,33.44,8.49,46.28,21,15.2,14.84,20.52,33.45,18.68,54.08-4.49,50.3-46.65,83.24-87.49,87.33a122.68,122.68,0,0,1-12.55.76c-2.66,0-3.75.79-4.32,3.48q-4.26,19.81-9,39.54c-5.76,24.49-11.32,49-18.36,73.2-7.13,24.5-23.83,37.76-48.64,41.44-4.58.68-9.2,1.39-14.28.66,1.45-5.7,2.84-11.24,4.27-16.76C40,285.6,47.78,256.8,54,227.64c4.92-23.09,9-46.35,13.65-69.5,6.52-32.76,13.14-65.49,23.29-97.38,1.13-3.55,2.46-7,3.54-10.61a15,15,0,0,1,6.88-8.48c11.55-7.2,31.48-6.52,42.68,1.24,2.37,1.65,2.09,3.35,1.51,5.59-4.48,17.3-8.63,34.67-12.1,52.2-3.68,18.58-7.11,37.22-10.63,55.84C122.64,157.44,122.66,158.37,122.55,159.85Z"/><path class="cls-2" d="M1230.12,305.52c-15.26,0-27.94-12.13-27.74-27.35.22-17,13.31-27.61,27.47-27.69,15.21-.08,27.91,12.29,27.75,27.4C1257.42,295.72,1242.62,306,1230.12,305.52Z"/><path class="cls-3" d="M496.35,182.47l.25.27c-.1.07-.21.21-.3.2s-.18-.15-.27-.24Z"/></svg>