<svg id="Layer_1" data-name="Layer 1" xmlns="http://www.w3.org/2000/svg" xmlns:xlink="http://www.w3.org/1999/xlink" viewBox="0 0 1364.44 335.76"><defs><style>.cls-1{fill:url(#linear-gradient);}.cls-2{fill:url(#linear-gradient-2);}.cls-3{fill:url(#linear-gradient-3);}.cls-4,.cls-5{fill:#fff;}.cls-5{fill-rule:evenodd;}</style><linearGradient id="linear-gradient" x1="373.75" y1="-548.9" x2="154.09" y2="-128.15" gradientTransform="translate(0 524.04)" gradientUnits="userSpaceOnUse"><stop offset="0" stop-color="#00ffa3"/><stop offset="1" stop-color="#dc1fff"/></linearGradient><linearGradient id="linear-gradient-2" x1="277.7" y1="-599.05" x2="58.04" y2="-178.3" xlink:href="#linear-gradient"/><linearGradient id="linear-gradient-3" x1="325.42" y1="-574.13" x2="105.76" y2="-153.39" xlink:href="#linear-gradient"/></defs><path class="cls-1" d="M77.51,250.51a13,13,0,0,1,9.17-3.8h317.4a6.49,6.49,0,0,1,4.58,11.08L346,320.46a13,13,0,0,1-9.18,3.8H19.38a6.49,6.49,0,0,1-4.59-11.08Z"/><path class="cls-2" d="M77.51,16.39a13,13,0,0,1,9.17-3.8h317.4a6.49,6.49,0,0,1,4.58,11.08L346,86.34a13,13,0,0,1-9.18,3.8H19.38a6.49,6.49,0,0,1-4.59-11.08Z"/><path class="cls-3" d="M346,132.71a13,13,0,0,0-9.18-3.8H19.38A6.49,6.49,0,0,0,14.79,140l62.72,62.66a12.93,12.93,0,0,0,9.17,3.8h317.4a6.49,6.49,0,0,0,4.58-11.08Z"/><path class="cls-4" d="M524.78,178.82h46.81a12.07,12.07,0,0,1,0,24.14H515.12a3.67,3.67,0,0,0-2.4.9l-17.05,14.79a3.76,3.76,0,0,0,2.4,6.6h70.69m0-.05a.06.06,0,0,1,.06-.06c.89.07,1.79.11,2.7.11a34.38,34.38,0,0,0,2.8-68.6.06.06,0,0,1,0-.06.05.05,0,0,0-.06-.05H523.83a12.07,12.07,0,0,1,0-24.14h56.39a3.65,3.65,0,0,0,2.5-1l15.84-14.78a3.76,3.76,0,0,0-2.51-6.51h-72.2a34.36,34.36,0,0,0,0,68.71h.93Z"/><path class="cls-4" d="M797.44,110.11a3.73,3.73,0,0,0-3.7,3.75V221.5a3.73,3.73,0,0,0,3.7,3.75h85.73a3.7,3.7,0,0,0,2.7-1.18l10.73-11.58a3.76,3.76,0,0,0-2.7-6.32H819.05a3.73,3.73,0,0,1-3.71-3.73h0V113.86a3.73,3.73,0,0,0-3.69-3.75H797.44Z"/><path class="cls-5" d="M660.14,110.11h0a21.27,21.27,0,0,0-20.22,20.4h0V203h0v.92a21.28,21.28,0,0,0,20.24,21.34H738a21.29,21.29,0,0,0,20.25-21.34V203h0V130.55h0A21.28,21.28,0,0,0,738,110.13H660.14Zm14.5,20.43h0A13.33,13.33,0,0,0,662,143.38h0v45.54h0v.58A13.34,13.34,0,0,0,674.63,203h48.81a13.35,13.35,0,0,0,12.66-13.42V189h0V143.4h0a13.33,13.33,0,0,0-12.64-12.83h-48.8Z"/><path class="cls-5" d="M1021.25,221.5a3.72,3.72,0,0,0,3.68,3.75h14.54a3.71,3.71,0,0,0,3.67-3.75h0V132.4h0v-.92a21.19,21.19,0,0,0-20.05-21.34h-75.6a21.17,21.17,0,0,0-21,21.34v.94h0v89.1a3.72,3.72,0,0,0,3.68,3.75h14.54a3.71,3.71,0,0,0,3.67-3.75h0V184.43a3.72,3.72,0,0,1,3.68-3.75h65.52a3.71,3.71,0,0,1,3.67,3.75h0Zm-72.87-61.28V141.68a12.89,12.89,0,0,1,12.77-13h47.34a12.88,12.88,0,0,1,12.76,13h0v18.54a3.7,3.7,0,0,1-3.66,3.74H952.06a3.71,3.71,0,0,1-3.68-3.74Z"/><path class="cls-5" d="M1328.14,225.25a3.73,3.73,0,0,1-3.71-3.75h0V184.43a3.73,3.73,0,0,0-3.71-3.75h-66.24a3.73,3.73,0,0,0-3.71,3.75h0V221.5a3.73,3.73,0,0,1-3.71,3.75h-14.68a3.73,3.73,0,0,1-3.71-3.75h0V132.4h0v-.92a21.27,21.27,0,0,1,21.18-21.36h76.39a21.27,21.27,0,0,1,20.25,21.34v.92h0v89.1a3.73,3.73,0,0,1-3.71,3.75h0Zm-77.37-83.57v18.54a3.73,3.73,0,0,0,3.7,3.74h66.25a3.73,3.73,0,0,0,3.71-3.73h0V141.68a12.94,12.94,0,0,0-12.88-13h-47.89a12.94,12.94,0,0,0-12.89,13Z"/><path class="cls-4" d="M1097.87,110.11a3.63,3.63,0,0,1,2.79,1.32l65.21,78.21a3.66,3.66,0,0,0,6.47-2.43V113.86a3.71,3.71,0,0,1,3.67-3.75h14.54a3.72,3.72,0,0,1,3.68,3.75V221.5a3.72,3.72,0,0,1-3.68,3.75h-18.07a.14.14,0,0,1-.14-.14h0a.14.14,0,0,0,0-.09L1106,147.35a3.67,3.67,0,0,0-6.45,2.47V221.5a3.71,3.71,0,0,1-3.67,3.75h-14.63a3.72,3.72,0,0,1-3.68-3.75V113.86a3.72,3.72,0,0,1,3.68-3.75Z"/></svg>