<svg id="Layer_1" data-name="Layer 1" xmlns="http://www.w3.org/2000/svg" xmlns:xlink="http://www.w3.org/1999/xlink" viewBox="0 0 178.57 124.04"><defs><style>.cls-1{fill:url(#linear-gradient);}</style><linearGradient id="linear-gradient" x1="1.81" y1="62.12" x2="176.22" y2="62.12" gradientUnits="userSpaceOnUse"><stop offset="0" stop-color="#c901fd"/><stop offset="1" stop-color="#00ff57"/></linearGradient></defs><path class="cls-1" d="M90,65.24c-1.11,1.75-.6,3.45-.61,5.05,0,14.91-.1,29.82,0,44.73,0,3.55-1.07,5.14-4.82,5-6.95-.19-13.91,0-20.87-.06-1.82,0-4,.14-4.11-2.41-.1-3,2.34-2.65,4.3-2.66,5.8,0,11.6-.12,17.39,0,2.43.06,3-.77,3-3.11q-.15-22.12,0-44.23c0-2.62-.75-3.44-3.37-3.36-5.62.19-11.26.06-16.89.06-1.93,0-4-.28-3.81-2.72.15-2,2-2.25,3.82-2.22,5.63.06,11.26-.07,16.89.07,2.32,0,3.18-.59,3.15-3.06-.12-10.76,0-21.53-.09-32.3-.07-5.54-2.46-7.74-8-7.76q-18.89-.09-37.76,0c-5.29,0-6.52,1.9-4.51,6.89C40.14,39,46.27,54.87,53.12,70.42c4.56,10.33,3.46,19.44-4,27.51C41.38,106.32,31.5,109,20.61,105.5,9.92,102.05,3.8,94.22,2,83.12a15.87,15.87,0,0,1,1.41-8.69c6.73-16.5,13.33-33.06,20.1-49.56,1.21-2.94,1.68-5.47-.25-8.35s-1.45-5.77,1.38-7.9,6-2.23,8.59.26a8.1,8.1,0,0,0,6.23,2.33c12.25-.05,24.51-.07,36.77,0a6.48,6.48,0,0,0,6.14-3.09c3.87-5.62,11.45-5.54,15.36.09a6.19,6.19,0,0,0,5.75,3q18.14-.08,36.27,0a7,7,0,0,0,5.39-1.95c2.72-2.74,6-3,8.92-.62s3.21,5.86.93,8.86c-1.61,2.11-1.23,3.75-.36,5.87,6.46,15.73,12.81,31.5,19.22,47.25,5.8,14.24.87,27.61-12.55,34a27.45,27.45,0,0,1-35.61-11.49c-3.41-6.19-4.37-12.41-1.35-19.4,6.92-16.06,13.29-32.36,19.87-48.58,2.65-6.53,1.39-8.51-5.47-8.52q-17.64,0-35.28,0c-4.86,0-7.57,2.3-7.64,7.06-.16,11.1,0,22.2-.09,33.3,0,2.43.87,3.14,3.2,3.08,5.3-.13,10.6,0,15.9-.07,1.81,0,3.72.25,3.83,2.2.14,2.34-2,2.73-3.88,2.75-5.3,0-10.61.09-15.9,0-2.32-.06-3.18.62-3.16,3.06q.14,22.11,0,44.23c0,2.56,1.07,3,3.25,2.94,5.14-.1,10.27-.06,15.41,0,1.81,0,3.91-.06,4,2.55.1,2.77-2.1,2.55-3.87,2.57-5.8.07-11.59,0-17.39,0-6.18,0-6.51-.33-6.52-6.41,0-14.58,0-29.16,0-43.74C90.54,68.56,91,66.91,90,65.24Zm59.67-40.46c-7.29,18-14.13,34.88-21.16,52.22,13.5,0,26.21,0,38.92,0,2.22,0,3.09-.49,2.18-2.77C163.08,58.1,156.57,41.93,149.67,24.78Zm-120.45.4C22.4,42,15.83,58.12,9.23,74.26c-.83,2-.7,2.93,1.85,2.91,12.06-.08,24.12,0,36.18,0,1.81,0,2.92-.17,2-2.44C42.63,58.42,36.06,42.1,29.22,25.18ZM149.75,82.45c-6.29,0-12.58.13-18.87,0-3-.09-3.4,1.21-2.66,3.58a22.11,22.11,0,0,0,5.53,9.27c11.37,11.22,31.31,7.25,36.64-7.35,1.1-3,2-5.82-3.27-5.52C161.35,82.71,155.54,82.45,149.75,82.45ZM28.85,82.2c-6,0-11.93.16-17.88-.06-3.19-.12-4.05.7-3.24,3.9,2.15,8.62,12.13,16,21.76,15.73s19.18-7.51,21-16.07c.49-2.36.27-3.66-2.74-3.56C41.43,82.35,35.14,82.2,28.85,82.2ZM89.51,58.9h.54v-35h-.54ZM29.22,11.47a2,2,0,0,0-2.31,1.94,2,2,0,0,0,2.15,2.18,1.78,1.78,0,0,0,2-1.71A2,2,0,0,0,29.22,11.47Zm120.65,4.11c1.27-.12,2.18-.69,2.07-2.13a2,2,0,0,0-2.3-2,1.71,1.71,0,0,0-1.81,1.86A2,2,0,0,0,149.87,15.58Z"/></svg>