<svg id="Layer_1" data-name="Layer 1" xmlns="http://www.w3.org/2000/svg" xmlns:xlink="http://www.w3.org/1999/xlink" viewBox="0 0 152.48 155.76"><defs><style>.cls-1{fill:url(#linear-gradient);}.cls-2{fill:url(#linear-gradient-2);}.cls-3{fill:url(#linear-gradient-3);}</style><linearGradient id="linear-gradient" x1="1.8" y1="117.58" x2="148.95" y2="117.58" gradientUnits="userSpaceOnUse"><stop offset="0" stop-color="#c901fd"/><stop offset="1" stop-color="#00ff57"/></linearGradient><linearGradient id="linear-gradient-2" x1="60.28" y1="41.99" x2="143.89" y2="41.99" xlink:href="#linear-gradient"/><linearGradient id="linear-gradient-3" x1="77.49" y1="42.02" x2="127.03" y2="42.02" xlink:href="#linear-gradient"/></defs><path class="cls-1" d="M25,144.73c0,1.29,0,2.44,0,3.6,0,1.62-.63,2.27-2.23,2.28q-9.36,0-18.7,0c-1.6,0-2.25-.64-2.25-2.27,0-7.43.07-14.85.07-22.28,0-5-.05-10-.07-15,0-2,.57-2.56,2.57-2.57,6,0,12,0,18,0,1.21,0,2.23.19,2.63,1.47a61.45,61.45,0,0,1,6.33-3.65C36.66,104,42.12,102,47.5,99.78Q63,93.44,78.38,87c1.69-.7,3.37-1.45,5.08-2.12,1.93-.74,3.28-.38,4.3,1.41,2.87,5,2.7,9.12-.56,13.78-2.93,4.2-7.16,6.49-12,7.91-1.72.51-3.46,1-5.17,1.5a9.45,9.45,0,0,0-2,1c-2.52,1.55-2.42,4.36.24,5.75a23.26,23.26,0,0,0,9.23,2.32,2.19,2.19,0,0,0,1.3-.67,169,169,0,0,1,20.14-15.63c3.75-2.46,7.78-3.87,12.37-2.8a1.76,1.76,0,0,0,1.21-.52,17.06,17.06,0,0,1,8.61-4.2,12,12,0,0,1,4.82.32,4.19,4.19,0,0,1,2.68,6.13,32.55,32.55,0,0,1-3.87,5.11,6,6,0,0,1-1.49,1l.44.51c.8-.31,1.58-.69,2.41-.93a85.62,85.62,0,0,1,9.32-2.52,13.6,13.6,0,0,1,10,2,7.36,7.36,0,0,1,3.43,4.72,3.63,3.63,0,0,1-2.37,4.32c-11.72,4-22.64,9.74-33.83,14.93Q101.1,135.67,89.6,141.2a27.34,27.34,0,0,1-10.67,2.73c-14.09.74-28.17,1.42-42.28,1.19-3.48-.05-6.95-.25-10.42-.38C25.88,144.72,25.53,144.73,25,144.73Zm59.7-56.41-2.82,1.17c-9.86,4.15-19.7,8.35-29.6,12.42-5.79,2.37-11.72,4.42-17.52,6.8a25.66,25.66,0,0,0-8.56,5.4,3.93,3.93,0,0,0-1.22,3q.06,11.39,0,22.77c0,.85.17,1.21,1.1,1.23,3.6.09,7.19.33,10.78.39,13.67.21,27.32-.37,41-1.2,2.77-.17,5.53-.21,8.18-1.48q18.26-8.72,36.63-17.22c6.71-3.09,13.53-5.93,20.3-8.86.76-.33,1.56-.55,2.53-.89a12.2,12.2,0,0,0-1.13-1.66A8,8,0,0,0,139.4,108a18.26,18.26,0,0,0-9.05,1.23c-4.62,1.78-9.18,3.72-13.8,5.49-11.58,4.43-23.38,7.85-36,7.67a38.53,38.53,0,0,1-12.53-2.22,8.75,8.75,0,0,1-4.6-3.78c-1.82-2.88-1.09-6.24,1.76-8.38a20.37,20.37,0,0,1,7.59-3.11c3.91-1,7.58-2.44,10.29-5.52C86.52,95.45,87,92.54,84.69,88.32ZM5.46,146.91c.52,0,.87.06,1.22.06,4.43,0,8.87,0,13.3,0,1.13,0,1.39-.33,1.39-1.41,0-10.71,0-21.41,0-32.12,0-.38,0-.77-.06-1.21-.47,0-.83-.06-1.18-.06-4.47,0-8.95,0-13.42,0-1,0-1.26.32-1.25,1.3q0,16,0,32Zm94.39-31,.19.22a3.56,3.56,0,0,0,.57-.09c3.92-1.23,7.85-2.46,11.76-3.72a2.83,2.83,0,0,0,1-.58c3.58-3.36,7.17-6.7,10.66-10.15.66-.65,1.43-2,1.17-2.62-.5-1.18-2-.91-3.11-.76a12.66,12.66,0,0,0-6.75,3.15c-3.83,3.38-7.6,6.83-11.35,10.31C102.57,113,101.23,114.52,99.85,115.94Zm-16.2,2.53.18.45c3-.38,6-.74,9-1.18A2.37,2.37,0,0,0,94,117q6.58-6.63,13.15-13.28l.87-.93a13.8,13.8,0,0,0-6.83,2.43q-6,4.23-11.81,8.61C87.37,115.26,85.54,116.9,83.65,118.47Z"/><path class="cls-2" d="M77.59,8.52c.57.21,1.07.35,1.54.57,2.13,1,4.27,2,6.38,3a2.07,2.07,0,0,0,2.33,0,3.71,3.71,0,0,1,1.3-.58c2.08-.41,3-1.77,3.4-3.73s1.2-3.73,1.78-5.59a2,2,0,0,1,2-1.62c3.47-.1,6.94-.16,10.4-.21a2.41,2.41,0,0,1,2.5,2q1.15,3.53,2.53,7A2.81,2.81,0,0,0,113,10.57c.65.37,1.49.43,2.1.83,1.42.93,2.63.6,4-.18,1.84-1.05,3.77-1.92,5.64-2.91a2.17,2.17,0,0,1,2.76.28q3.78,3.66,7.52,7.35a2.16,2.16,0,0,1,.34,2.74c-1.11,2.26-2.13,4.56-3.25,6.81a1.71,1.71,0,0,0,0,1.89,4.34,4.34,0,0,1,.69,1.52c.38,2.11,1.8,3,3.73,3.41,1.77.43,3.48,1.15,5.24,1.66a2.42,2.42,0,0,1,2,2.46c.05,3.34.13,6.69.16,10A2.43,2.43,0,0,1,141.94,49c-2.28.74-4.51,1.63-6.78,2.38a1.92,1.92,0,0,0-1.5,1.48,6.64,6.64,0,0,1-.77,2,3.38,3.38,0,0,0,.16,4c1.06,1.78,1.89,3.7,2.87,5.53a2.29,2.29,0,0,1-.29,3c-2.5,2.56-5,5.13-7.54,7.65a1.93,1.93,0,0,1-2.35.19c-2.33-1.12-4.66-2.26-7-3.28a2.62,2.62,0,0,0-1.89,0c-4.21,1.77-4.35,2-5.48,6.19-.34,1.27-.82,2.5-1.15,3.77A2.14,2.14,0,0,1,108,83.47c-3.5.1-7,.09-10.51.12a2,2,0,0,1-2.06-1.66c-.84-2.41-1.67-4.83-2.61-7.2a2.88,2.88,0,0,0-1.26-1.23c-.68-.38-1.55-.46-2.21-.89a3.23,3.23,0,0,0-3.74.14c-1.9,1.1-3.91,2-5.86,3a2.09,2.09,0,0,1-2.64-.29q-3.75-3.6-7.46-7.24a2.36,2.36,0,0,1-.35-3c1.12-2.21,2.18-4.45,3.16-6.72a2.86,2.86,0,0,0,0-1.76c-.18-.68-.68-1.29-.84-2a3.51,3.51,0,0,0-3-2.81c-2.08-.52-4.1-1.32-6.16-2a2.14,2.14,0,0,1-1.63-1.84,33.11,33.11,0,0,1-.19-11,2.37,2.37,0,0,1,1.82-2.09c2.43-.75,4.86-1.54,7.26-2.38a1.93,1.93,0,0,0,1-1c.7-1.56,1.35-3.14,1.93-4.75a1.84,1.84,0,0,0-.12-1.3q-1.77-3.27-3.64-6.46a2.22,2.22,0,0,1,.27-3c2.37-2.32,4.73-4.63,7.13-6.92A6,6,0,0,1,77.59,8.52Zm10,59.34,1.25.48c1.7.67,3.38,1.42,5.11,2a2.79,2.79,0,0,1,1.95,1.9c.78,2.3,1.66,4.57,2.44,6.87a1.24,1.24,0,0,0,1.36,1q3.16-.1,6.34-.14c.76,0,1.08-.34,1.31-1.07.75-2.39,1.61-4.76,2.39-7.15a2.56,2.56,0,0,1,1.68-1.69c1.75-.66,3.47-1.41,5.16-2.22a2.51,2.51,0,0,1,2.38,0c2.26,1.11,4.57,2.13,6.82,3.24a1.2,1.2,0,0,0,1.59-.23c1.47-1.52,2.92-3,4.42-4.53a1.3,1.3,0,0,0,.18-1.8c-1.13-2.11-2.15-4.28-3.29-6.39a2.81,2.81,0,0,1,0-2.82,42.15,42.15,0,0,0,1.94-4.89,2.83,2.83,0,0,1,2-2c2.31-.77,4.58-1.65,6.89-2.43a1.16,1.16,0,0,0,.94-1.28c0-2.08-.06-4.15-.07-6.23A1.41,1.41,0,0,0,139.12,37c-2.33-.69-4.62-1.52-7-2.23A2.59,2.59,0,0,1,130.38,33c-.67-1.75-1.4-3.48-2.23-5.16a2.72,2.72,0,0,1,0-2.61c1.08-2.18,2.07-4.41,3.16-6.59a1.25,1.25,0,0,0-.23-1.69c-1.52-1.46-3-2.94-4.53-4.43a1.28,1.28,0,0,0-1.71-.18c-2.22,1.18-4.44,2.36-6.74,3.39a3.28,3.28,0,0,1-2.23,0c-1.81-.6-3.55-1.43-5.35-2.06a2.64,2.64,0,0,1-1.8-1.74c-.81-2.38-1.65-4.75-2.56-7.09A1.6,1.6,0,0,0,105,4c-2.11-.07-4.23,0-6.35,0-.86,0-1.23.44-1.47,1.24C96.49,7.51,95.7,9.77,95,12.06a2.71,2.71,0,0,1-1.82,1.87c-1.72.64-3.41,1.38-5,2.18a2.72,2.72,0,0,1-2.61.06c-2.22-1.1-4.49-2.1-6.71-3.2a1.17,1.17,0,0,0-1.58.2c-1.39,1.38-2.79,2.75-4.21,4.09a1.08,1.08,0,0,0-.19,1.56C74,20.93,75.23,23,76.33,25.21a2.8,2.8,0,0,1,.25,2c-.83,2.27-1.91,4.45-2.75,6.72a2.93,2.93,0,0,1-2.13,2c-2.22.64-4.4,1.42-6.62,2.11-.64.2-1,.47-1,1.22.06,2.15.09,4.3.13,6.45a1.28,1.28,0,0,0,1.08,1.33c2.29.69,4.55,1.5,6.85,2.19a2.94,2.94,0,0,1,2.09,2.06,47.74,47.74,0,0,0,2.15,4.93,2.61,2.61,0,0,1,0,2.5c-1.11,2.26-2.14,4.56-3.25,6.81A1.12,1.12,0,0,0,73.38,67c1.52,1.47,3,2.93,4.52,4.44a1.38,1.38,0,0,0,1.9.19c2.15-1.15,4.33-2.23,6.51-3.32A10.49,10.49,0,0,1,87.54,67.86Z"/><path class="cls-3" d="M127,42.07A24.77,24.77,0,1,1,102.3,17.25,24.74,24.74,0,0,1,127,42.07Zm-24.7-21.16a21.12,21.12,0,1,0,21,21.05A21,21,0,0,0,102.33,20.91Z"/></svg>