<svg id="Layer_1" data-name="Layer 1" xmlns="http://www.w3.org/2000/svg" xmlns:xlink="http://www.w3.org/1999/xlink" viewBox="0 0 168.95 163.6"><defs><style>.cls-1{fill:url(#linear-gradient);}.cls-2{fill:url(#linear-gradient-2);}.cls-3{fill:url(#linear-gradient-3);}.cls-4{fill:url(#linear-gradient-4);}.cls-5{fill:url(#linear-gradient-5);}.cls-6{fill:url(#linear-gradient-6);}.cls-7{fill:url(#linear-gradient-7);}</style><linearGradient id="linear-gradient" x1="39.39" y1="81.29" x2="131.37" y2="81.29" gradientUnits="userSpaceOnUse"><stop offset="0" stop-color="#c901fd"/><stop offset="1" stop-color="#00ff57"/></linearGradient><linearGradient id="linear-gradient-2" x1="87.5" y1="39.28" x2="131.33" y2="39.28" xlink:href="#linear-gradient"/><linearGradient id="linear-gradient-3" x1="39.39" y1="123.21" x2="83.26" y2="123.21" xlink:href="#linear-gradient"/><linearGradient id="linear-gradient-4" x1="5.13" y1="105.26" x2="70.98" y2="105.26" xlink:href="#linear-gradient"/><linearGradient id="linear-gradient-5" x1="99.94" y1="105.32" x2="165.55" y2="105.32" xlink:href="#linear-gradient"/><linearGradient id="linear-gradient-6" x1="99.63" y1="57.29" x2="165.56" y2="57.29" xlink:href="#linear-gradient"/><linearGradient id="linear-gradient-7" x1="5.16" y1="57.24" x2="70.84" y2="57.24" xlink:href="#linear-gradient"/></defs><path class="cls-1" d="M104.28,143.71V135c0-5.58,0-11.16,0-16.74a4.47,4.47,0,0,0-.74-2.35Q80.83,83.6,58.06,51.35a9.15,9.15,0,0,1-1.77-5.57c.07-9,0-17.93,0-27.23-.51.45-.86.71-1.16,1-2.36,2.35-4.71,4.74-7.09,7.07a4.88,4.88,0,0,1-5.28,1.24,4.8,4.8,0,0,1-3.36-4.24,4.87,4.87,0,0,1,1.48-4.16q8.3-8.29,16.61-16.57C60,.48,62.8.47,65.22,2.87q8.27,8.22,16.5,16.48a5.07,5.07,0,1,1-7.12,7.2c-2.64-2.61-5.21-5.28-8.08-8.18,0,.88-.08,1.38-.08,1.87,0,8,0,16,0,24.05a4.32,4.32,0,0,0,.74,2.34Q89.89,79,112.65,111.2a9,9,0,0,1,1.78,5.56c-.08,8.4,0,16.79,0,25.19v2.26c2.9-2.93,5.49-5.57,8.12-8.18a5.09,5.09,0,0,1,6.16-1,5,5,0,0,1,1.33,7.82c-5.7,5.83-11.49,11.58-17.3,17.3a4.84,4.84,0,0,1-6.87-.12q-8.57-8.43-17-17a5,5,0,0,1,.06-7.2,5.08,5.08,0,0,1,7.2.16c2.65,2.6,5.24,5.26,7.86,7.89Z"/><path class="cls-2" d="M103.94,18.66c-2.57,2.6-5.12,5.21-7.7,7.79a5.31,5.31,0,0,1-6.16,1.16c-3-1.41-3.27-6.07-1.35-8C94.47,13.9,100.16,8.13,106,2.45c2-2,5-1.78,7.18.36,4.34,4.29,8.64,8.62,13,12.94,1.22,1.21,2.44,2.41,3.64,3.64a5.06,5.06,0,1,1-7.08,7.24c-2.46-2.39-4.86-4.85-7.29-7.28a8.89,8.89,0,0,1-.61-.74l-.34.16v1.5c0,8.83,0,17.65,0,26.47a6.57,6.57,0,0,1-1,3.47c-6.23,9-12.56,18-18.87,26.93a2.2,2.2,0,0,1-.42.34l-6.12-8.67L99.15,52.87a21.37,21.37,0,0,1,1.74-2.43c3-3.1,3.63-6.79,3.46-11-.27-6.86-.07-13.73-.07-20.59Z"/><path class="cls-3" d="M66.65,144.12c2.6-2.67,5-5.24,7.53-7.65a7.87,7.87,0,0,1,3.36-1.94,4.67,4.67,0,0,1,5.24,2.59,5.57,5.57,0,0,1-1.07,6.08q-5.2,5.22-10.42,10.42c-2,2-4,4.06-6.08,6.07-2.41,2.37-5.3,2.36-7.7,0q-8.26-8.22-16.5-16.48a5.06,5.06,0,1,1,7.08-7.24c2.43,2.35,4.79,4.78,7.19,7.17.26.25.55.47,1,.9v-1.49c0-8.73,0-17.46,0-26.19a7.84,7.84,0,0,1,1.53-4.78c6.24-8.78,12.42-17.6,18.74-26.58l6.21,8.77-7.32,10.42c-2.82,4-5.66,8-8.46,12.06a2.67,2.67,0,0,0-.54,1.41q0,12.87,0,25.76A4.33,4.33,0,0,0,66.65,144.12Z"/><path class="cls-4" d="M71,85.55Q62.73,97.28,54.45,109c-.93,1.31-2.45,1.33-3.9,1.33H22.46c2.89,2.87,5.48,5.45,8.08,8a5.06,5.06,0,1,1-6.76,7.54c-5.8-5.67-11.51-11.42-17.19-17.2a4.77,4.77,0,0,1,0-6.86q8.5-8.67,17.19-17.2a4.93,4.93,0,0,1,7.07.2,5,5,0,0,1,0,7c-2.25,2.34-4.58,4.6-6.87,6.89-.39.39-.77.8-1.32,1.39.69,0,1.14.08,1.59.08,8.06,0,16.12,0,24.18,0a4.38,4.38,0,0,0,2.34-.77c6.7-4.64,13.35-9.35,20-14Z"/><path class="cls-5" d="M100.17,85.51,109.36,92c3.59,2.52,7.16,5.06,10.77,7.56a3.21,3.21,0,0,0,1.67.63c8.49,0,17,0,25.47,0,.17,0,.35,0,.82-.09l-3.51-3.55c-1.55-1.55-3.15-3.05-4.64-4.65a5,5,0,0,1,1.12-8,5.54,5.54,0,0,1,6.11.87q8.42,8.37,16.78,16.81c2.23,2.26,2.1,5.22-.18,7.49l-16.29,16.29c-2.33,2.33-5.39,2.5-7.49.4s-2-5.22.28-7.51c2.54-2.56,5.11-5.11,7.94-7.94h-1.83c-8.68,0-17.36,0-26,0a5.42,5.42,0,0,1-5-2.57c-4.84-7.09-9.84-14.06-14.78-21.08-.22-.31-.41-.63-.61-.95Z"/><path class="cls-6" d="M147.8,62.36h-1.24c-8.11,0-16.22,0-24.32,0a4.15,4.15,0,0,0-2.21.72c-6.65,4.62-13.27,9.3-19.89,14a2.1,2.1,0,0,1-.51.13c1.72-2.47,3.32-4.79,4.94-7.09,3.68-5.22,7.43-10.4,11-15.69a4.75,4.75,0,0,1,4.34-2.19q11,0,22,0H148c-.37-.45-.56-.74-.8-1l-7-7C138,42,137.88,38.84,140,36.75s5.18-1.91,7.41.32q8,8,16.08,16.09c2.74,2.76,2.76,5.48,0,8.22q-8.09,8.12-16.18,16.19a5.06,5.06,0,1,1-7.2-7.1c2.57-2.62,5.2-5.18,7.81-7.76Z"/><path class="cls-7" d="M22.45,62.46c2.29,2.24,4.33,4.21,6.35,6.2a26.1,26.1,0,0,1,2.46,2.59,5,5,0,0,1-1.89,7.51,5.55,5.55,0,0,1-5.73-.94c-5.68-5.65-11.36-11.3-17-17-2.12-2.16-2-5.07.32-7.39C11.37,49,15.8,44.59,20.22,40.17c1.08-1.08,2.15-2.16,3.24-3.23a5.06,5.06,0,1,1,7.17,7.14c-2.27,2.32-4.58,4.59-6.87,6.89-.33.33-.63.67-1.1,1.18.63,0,1,.08,1.44.08,8.77,0,17.55,0,26.32,0a5.41,5.41,0,0,1,5,2.58c4.84,7.09,9.83,14.07,14.77,21.08a4.07,4.07,0,0,1,.65,1.32c-.33-.21-.67-.42-1-.64q-9.6-6.75-19.19-13.48a3.37,3.37,0,0,0-1.79-.67c-8.44,0-16.88,0-25.32,0C23.33,62.37,23.11,62.41,22.45,62.46Z"/></svg>