<svg xmlns="http://www.w3.org/2000/svg" xmlns:xlink="http://www.w3.org/1999/xlink" viewBox="0 0 199.6 189.62"><defs><style>.cls-1,.cls-10,.cls-12{fill:none;}.cls-2{isolation:isolate;}.cls-3{fill:#f4e6e1;}.cls-4{clip-path:url(#clip-path);}.cls-5{fill:#d88d48;}.cls-6{fill:#9fc9c1;}.cls-7{fill:#79b2a7;}.cls-11,.cls-8{fill:#f1b69a;}.cls-9{fill:#150a08;}.cls-10{stroke:#e07e61;}.cls-10,.cls-12{stroke-linecap:round;stroke-miterlimit:10;}.cls-11{opacity:0.5;mix-blend-mode:multiply;}.cls-12{stroke:#150a08;}</style><clipPath id="clip-path"><circle class="cls-1" cx="99.8" cy="94.81" r="94.77" transform="translate(-37.81 98.34) rotate(-45)"/></clipPath></defs><g class="cls-2"><g id="OBJECTS"><circle class="cls-3" cx="99.8" cy="94.81" r="94.77" transform="translate(-37.81 98.34) rotate(-45)"/><g class="cls-4"><path class="cls-5" d="M64.15,81.32c-19.64-25.11-3-52,12.13-60.42,22.16-12.4,59.37-8.61,64.21.85,4.21,8.22-3.1,15.59-3.1,15.59s11.13,2.95,10.72,13-13,15-13,15,12.95,8-10.72,23.18S68.36,86.69,64.15,81.32Z"/><path class="cls-6" d="M182.35,191.55H17.25s5-27.69,16.35-43.63,53.47-21.77,53.47-21.77l12.73,2,12.74-2S154.66,132,166,147.92,182.35,191.55,182.35,191.55Z"/><path class="cls-7" d="M140.58,131.52c-1.92,14.09-13.82,22.53-24.23,27.29a39.05,39.05,0,0,1-32.56,0c-10.41-4.76-22.31-13.2-24.23-27.29l7.35-1.37c1.66,12.15,12.39,19.17,21.2,22.94a30.39,30.39,0,0,0,23.92,0c8.82-3.77,19.55-10.79,21.2-22.94Z"/><path class="cls-8" d="M133.23,130.15c-1.72,12.67-13.31,19.76-22.31,23.4a28.89,28.89,0,0,1-21.7,0c-9-3.64-20.58-10.73-22.31-23.4,12.85-4.24,30.59-6.07,30.9-6.1,1.46-.09,2.26-.11,2.26-.11s.8,0,2.26.11C102.64,124.08,120.38,125.91,133.23,130.15Z"/><path class="cls-8" d="M99.53,140.22h0A11.19,11.19,0,0,1,88.34,129V107.67h22.37V129A11.19,11.19,0,0,1,99.53,140.22Z"/><path class="cls-9" d="M110.71,105.2v13.11s-3.75,6.53-11.18,6.53c-6,0-11.18-5.66-11.18-5.66v-14Z"/><path class="cls-8" d="M68.24,82.23c-6-9.18-13.07-3.28-13.07,3.19,0,9.36,10.16,17.43,16,10.71S68.24,82.23,68.24,82.23Z"/><path class="cls-10" d="M66.91,86.48c-3.76-7-9-.47-7,2.13"/><path class="cls-8" d="M128.65,82.23c6-9.18,13.06-3.28,13.06,3.19,0,9.36-10.16,17.43-16,10.71S128.65,82.23,128.65,82.23Z"/><path class="cls-10" d="M130,86.48c3.77-7,9-.47,7,2.13"/><path class="cls-8" d="M98.42,118.31c-23.9,0-38-26.12-32.45-52.93,4.61-22.1,60.34-22.09,64.94,0C136.5,92.19,122.32,118.32,98.42,118.31Z"/><path class="cls-11" d="M95.24,91.47c2.46,1.18,8-1.43,8.12,0s-2.94,2.7-4.06,2.7S95.24,91.47,95.24,91.47Z"/><path class="cls-10" d="M95.32,84.27c-3.49,7.53,1.73,9,3.12,9.18"/><path class="cls-12" d="M90.1,97.55c9.23,1.77,16.54.29,19.49-2.07"/><path class="cls-5" d="M89,63.72c-1.49-3.33-10.24-1.81-11.48.57s2.86,3,5.9,2.89S89.94,65.84,89,63.72Z"/><path class="cls-5" d="M107.55,66.42C109,63.09,117.79,64.61,119,67s-2.86,3-5.9,2.89S106.59,68.55,107.55,66.42Z"/><path class="cls-11" d="M96.29,102.09c3.35,0,8.14-1.73,8.89,0s-3.35,5.2-5.88,5S92.47,102.08,96.29,102.09Z"/><path class="cls-9" d="M82.67,76.57a2.41,2.41,0,1,0,2.4-2.4A2.41,2.41,0,0,0,82.67,76.57Z"/><path class="cls-9" d="M114.22,76.57a2.41,2.41,0,1,1-2.41-2.4A2.41,2.41,0,0,1,114.22,76.57Z"/><path class="cls-5" d="M82.13,41.2c-.58,15.3,34.3,23.51,43.55,22.1s12-13.45-2.48-23.33S82.39,34.41,82.13,41.2Z"/></g></g></g></svg>