<svg xmlns="http://www.w3.org/2000/svg" xmlns:xlink="http://www.w3.org/1999/xlink" viewBox="0 0 199.6 189.62"><defs><style>.cls-1,.cls-10,.cls-12{fill:none;}.cls-2{isolation:isolate;}.cls-3{fill:#f4e6e1;}.cls-4{clip-path:url(#clip-path);}.cls-5{fill:#5b4852;}.cls-6{fill:#d88d48;}.cls-7{fill:#fff;}.cls-11,.cls-8{fill:#f1b69a;}.cls-9{fill:#150a08;}.cls-10{stroke:#e07e61;}.cls-10,.cls-12{stroke-linecap:round;stroke-miterlimit:10;}.cls-11{opacity:0.5;mix-blend-mode:multiply;}.cls-12{stroke:#150a08;}</style><clipPath id="clip-path"><circle class="cls-1" cx="99.8" cy="94.81" r="94.81" transform="translate(-37.81 98.34) rotate(-45)"/></clipPath></defs><g class="cls-2"><g id="OBJECTS"><circle class="cls-3" cx="99.8" cy="94.81" r="94.81" transform="translate(-37.81 98.34) rotate(-45)"/><g class="cls-4"><path class="cls-5" d="M135.63,77.5c13-23.49,2.71-37-5.64-32.56,0,0-1.27-14.56-20.39-23.35C87.47,11.43,58.89,19.35,53.32,34.66c-5.14,14.13,4,20.94,4,20.94s-5.68,10.15,4,25.34S129.78,88,135.63,77.5Z"/><path class="cls-6" d="M182.39,191.6H17.21s5-27.71,16.36-43.66,53.49-21.77,53.49-21.77l12.74,2,12.74-2S154.69,132,166,147.94,182.39,191.6,182.39,191.6Z"/><path class="cls-7" d="M87.06,126.17l-16.31,3.06s3.76,18.45,18.67,27.68L99.55,144.5V131.18Z"/><path class="cls-7" d="M111.41,126.17l16.32,3.06s-3.76,18.45-18.68,27.68L98.92,144.5V131.18Z"/><path class="cls-8" d="M99.53,140.24h0a11.19,11.19,0,0,1-11.19-11.19V107.67h22.38v21.38A11.19,11.19,0,0,1,99.53,140.24Z"/><path class="cls-9" d="M110.72,105.2v13.12s-3.76,6.54-11.19,6.54c-6,0-11.19-5.67-11.19-5.67v-14Z"/><path class="cls-8" d="M68.22,82.23c-6-9.19-13.07-3.29-13.07,3.18,0,9.37,10.17,17.44,16,10.72S68.22,82.23,68.22,82.23Z"/><path class="cls-10" d="M66.9,86.47c-3.77-7-9-.47-7,2.14"/><path class="cls-8" d="M128.66,82.23c6.05-9.19,13.07-3.29,13.07,3.18,0,9.37-10.16,17.44-16,10.72S128.66,82.23,128.66,82.23Z"/><path class="cls-10" d="M130,86.47c3.76-7,9-.47,7,2.14"/><path class="cls-8" d="M98.41,118.32c-23.9,0-38-26.13-32.45-53,4.6-22.1,60.36-22.09,65,0C136.52,92.19,122.33,118.33,98.41,118.32Z"/><path class="cls-11" d="M95.24,91.47c2.46,1.17,8-1.43,8.12,0s-2.94,2.7-4.06,2.7S95.24,91.47,95.24,91.47Z"/><path class="cls-10" d="M95.32,84.26c-3.49,7.54,1.73,9,3.12,9.19"/><path class="cls-12" d="M90.1,97.55c9.23,1.77,16.54.29,19.5-2.07"/><path class="cls-9" d="M89,63.71c-1.5-3.34-10.25-1.81-11.49.56s2.86,3,5.9,2.89S89.94,65.83,89,63.71Z"/><path class="cls-9" d="M107.9,63.71c1.49-3.34,10.25-1.81,11.49.56s-2.86,3-5.9,2.89S107,65.83,107.9,63.71Z"/><path class="cls-11" d="M96.29,102.1c3.35,0,8.15-1.73,8.89,0s-3.34,5.2-5.88,5S92.47,102.09,96.29,102.1Z"/><path class="cls-9" d="M82.66,76.57a2.41,2.41,0,1,0,2.41-2.41A2.41,2.41,0,0,0,82.66,76.57Z"/><path class="cls-9" d="M114.22,76.57a2.41,2.41,0,1,1-2.4-2.41A2.4,2.4,0,0,1,114.22,76.57Z"/><path class="cls-5" d="M119.61,48.79c-6.2,13.9-19.76,6-19.76,6a30.7,30.7,0,0,1-22.58,7c-13.67-1.33-20.8-17.73-4.15-24.67S128.33,29.24,119.61,48.79Z"/></g></g></g></svg>