<svg xmlns="http://www.w3.org/2000/svg" xmlns:xlink="http://www.w3.org/1999/xlink" viewBox="0 0 199.6 189.62"><defs><style>.cls-1,.cls-11,.cls-9{fill:none;}.cls-2{isolation:isolate;}.cls-3{fill:#f4ddd4;}.cls-4{clip-path:url(#clip-path);}.cls-5{fill:#d76a40;}.cls-6{fill:#d88d48;}.cls-10,.cls-7{fill:#f1b69a;}.cls-8{fill:#150a08;}.cls-9{stroke:#e07e61;}.cls-11,.cls-9{stroke-linecap:round;stroke-miterlimit:10;}.cls-10{opacity:0.5;mix-blend-mode:multiply;}.cls-11{stroke:#150a08;}</style><clipPath id="clip-path"><circle class="cls-1" cx="99.8" cy="94.81" r="94.58"/></clipPath></defs><g class="cls-2"><g id="OBJECTS"><circle class="cls-3" cx="99.8" cy="94.81" r="94.58"/><g class="cls-4"><path class="cls-5" d="M59.3,78.09c-5.41-37,20.47-50.43,43-49.93s33.15,18.41,33.15,18.41,16.11,23.9-3.61,45.83S59.3,78.09,59.3,78.09Z"/><path class="cls-6" d="M173.47,189.39H26.14S33,162.87,42.78,147.16s45.66-21.07,45.66-21.07L99.8,128l11.37-1.91s35.89,5.35,45.66,21.07S173.47,189.39,173.47,189.39Z"/><path class="cls-7" d="M99.53,140.13h0A11.16,11.16,0,0,1,88.37,129V107.64h22.32V129A11.16,11.16,0,0,1,99.53,140.13Z"/><path class="cls-8" d="M110.69,105.18v13.09s-3.75,6.52-11.16,6.52c-6,0-11.16-5.65-11.16-5.65v-14Z"/><path class="cls-7" d="M68.3,82.26c-6-9.17-13-3.28-13,3.18,0,9.34,10.14,17.39,15.93,10.68S68.3,82.26,68.3,82.26Z"/><path class="cls-9" d="M67,86.49c-3.76-7-9-.47-7,2.14"/><path class="cls-7" d="M128.59,82.26c6-9.17,13-3.28,13,3.18,0,9.34-10.14,17.39-15.93,10.68S128.59,82.26,128.59,82.26Z"/><path class="cls-9" d="M129.91,86.49c3.76-7,9-.47,7,2.14"/><path class="cls-7" d="M98.42,118.27c-23.85,0-38-26.07-32.38-52.84,4.59-22.05,60.22-22,64.81,0C136.43,92.2,122.28,118.28,98.42,118.27Z"/><path class="cls-10" d="M95.25,91.48c2.45,1.17,8-1.43,8.1,0s-2.93,2.69-4,2.69S95.25,91.48,95.25,91.48Z"/><path class="cls-9" d="M95.33,84.29c-3.48,7.52,1.72,9,3.12,9.16"/><path class="cls-5" d="M89,63.78c-1.49-3.33-10.22-1.81-11.46.56s2.86,3,5.89,2.89S90,65.9,89,63.78Z"/><path class="cls-5" d="M107.88,63.78c1.49-3.33,10.22-1.81,11.46.56s-2.85,3-5.89,2.89S106.93,65.9,107.88,63.78Z"/><path class="cls-8" d="M82.7,76.61a2.4,2.4,0,1,0,2.4-2.4A2.41,2.41,0,0,0,82.7,76.61Z"/><path class="cls-8" d="M114.19,76.61a2.4,2.4,0,1,1-2.4-2.4A2.41,2.41,0,0,1,114.19,76.61Z"/><path class="cls-11" d="M90.07,98.16c9.21,1.76,16.51.29,19.46-2.07"/><path class="cls-10" d="M96.25,102.69c3.34,0,8.13-1.72,8.87,0s-3.33,5.19-5.86,4.94S92.44,102.68,96.25,102.69Z"/></g><path class="cls-5" d="M140.23,134.41c-1.91,14.06-13.79,22.49-24.18,27.24a39.07,39.07,0,0,1-32.5,0c-10.38-4.75-22.26-13.18-24.18-27.24L66.71,133c1.65,12.13,12.36,19.14,21.15,22.9a30.38,30.38,0,0,0,23.88,0c8.8-3.76,19.51-10.77,21.16-22.9Z"/></g></g></svg>