<svg xmlns="http://www.w3.org/2000/svg" xmlns:xlink="http://www.w3.org/1999/xlink" viewBox="0 0 199.6 189.62"><defs><style>.cls-1,.cls-10,.cls-12{fill:none;}.cls-2{isolation:isolate;}.cls-3{fill:#f4ddd4;}.cls-4{clip-path:url(#clip-path);}.cls-5{fill:#5b4852;}.cls-6{fill:#d66572;}.cls-7{fill:#fff;}.cls-11,.cls-8{fill:#f1b69a;}.cls-9{fill:#150a08;}.cls-10{stroke:#e07e61;}.cls-10,.cls-12{stroke-linecap:round;stroke-miterlimit:10;}.cls-11{opacity:0.5;mix-blend-mode:multiply;}.cls-12{stroke:#150a08;}</style><clipPath id="clip-path"><circle class="cls-1" cx="99.8" cy="94.81" r="94.48" transform="translate(-37.81 98.34) rotate(-45)"/></clipPath></defs><g class="cls-2"><g id="OBJECTS"><circle class="cls-3" cx="99.8" cy="94.81" r="94.48" transform="translate(-37.81 98.34) rotate(-45)"/><g class="cls-4"><path class="cls-5" d="M88.08,24.91C54,28.1,54.58,57.47,59.62,79a324,324,0,0,1,6.7,42.26s36,6.72,65.71-2.51c0,0,16-57,4.05-78.53S92.68,18.12,88.08,24.91Z"/><path class="cls-6" d="M173.38,189.29H26.22s6.86-26.49,16.63-42.19,45.6-21,45.6-21L99.8,128l11.35-1.9s35.86,5.34,45.62,21S173.38,189.29,173.38,189.29Z"/><path class="cls-7" d="M87.11,126.06l-16.26,3.05s3.75,18.38,18.61,27.58l10.09-12.37V131.05Z"/><path class="cls-7" d="M111.37,126.06l16.26,3.05s-3.75,18.38-18.61,27.58L98.93,144.32V131.05Z"/><path class="cls-8" d="M99.53,140.08h0a11.15,11.15,0,0,1-11.15-11.15v-21.3h22.3v21.3A11.15,11.15,0,0,1,99.53,140.08Z"/><path class="cls-9" d="M110.68,105.16v13.08s-3.75,6.51-11.15,6.51c-6,0-11.15-5.64-11.15-5.64v-14Z"/><path class="cls-8" d="M68.33,82.27c-6-9.16-13-3.27-13,3.18,0,9.33,10.13,17.37,15.92,10.67S68.33,82.27,68.33,82.27Z"/><path class="cls-10" d="M67,86.5c-3.76-7-8.94-.47-7,2.13"/><path class="cls-8" d="M128.56,82.27c6-9.16,13-3.27,13,3.18,0,9.33-10.12,17.37-15.91,10.67S128.56,82.27,128.56,82.27Z"/><path class="cls-10" d="M129.88,86.5c3.75-7,8.94-.47,7,2.13"/><path class="cls-8" d="M98.42,118.24c-23.82,0-37.91-26-32.34-52.77,4.59-22,60.15-22,64.74,0C136.39,92.2,122.25,118.25,98.42,118.24Z"/><path class="cls-11" d="M95.26,91.48c2.45,1.17,8-1.42,8.09,0s-2.94,2.69-4,2.69S95.26,91.48,95.26,91.48Z"/><path class="cls-10" d="M95.33,84.3c-3.47,7.51,1.73,9,3.12,9.15"/><path class="cls-9" d="M89,63.82c-1.49-3.33-10.22-1.81-11.45.56s2.85,3,5.88,2.88S90,65.93,89,63.82Z"/><path class="cls-9" d="M107.87,63.82c1.49-3.33,10.21-1.81,11.45.56s-2.85,3-5.88,2.88S106.92,65.93,107.87,63.82Z"/><path class="cls-9" d="M82.72,76.63a2.4,2.4,0,1,0,2.4-2.4A2.41,2.41,0,0,0,82.72,76.63Z"/><path class="cls-9" d="M114.17,76.63a2.4,2.4,0,1,1-2.39-2.4A2.4,2.4,0,0,1,114.17,76.63Z"/><path class="cls-12" d="M90.08,98.15c9.2,1.77,16.49.3,19.44-2.06"/><path class="cls-11" d="M96.26,102.68c3.33,0,8.11-1.72,8.85,0s-3.33,5.18-5.85,4.94S92.45,102.67,96.26,102.68Z"/></g></g></g></svg>