<svg xmlns="http://www.w3.org/2000/svg" xmlns:xlink="http://www.w3.org/1999/xlink" viewBox="0 0 199.6 189.62"><defs><style>.cls-1,.cls-12,.cls-14{fill:none;}.cls-2{isolation:isolate;}.cls-3{fill:#f4ddd4;}.cls-4{fill:#f4e6e1;}.cls-5{clip-path:url(#clip-path);}.cls-6{fill:#5b4852;}.cls-7{fill:#d66572;}.cls-8{clip-path:url(#clip-path-2);}.cls-9{fill:#e28693;}.cls-10,.cls-13{fill:#f1b69a;}.cls-11{fill:#150a08;}.cls-12{stroke:#e07e61;}.cls-12,.cls-14{stroke-linecap:round;stroke-miterlimit:10;}.cls-13{opacity:0.5;mix-blend-mode:multiply;}.cls-14{stroke:#150a08;}</style><clipPath id="clip-path"><circle class="cls-1" cx="99.8" cy="94.81" r="94.81" transform="translate(-37.81 98.34) rotate(-45)"/></clipPath><clipPath id="clip-path-2"><path class="cls-1" d="M182.39,191.6H17.21s5-27.71,16.36-43.66,53.49-21.77,53.49-21.77l12.74,2,12.74-2S154.69,132,166,147.94,182.39,191.6,182.39,191.6Z"/></clipPath></defs><g class="cls-2"><g id="OBJECTS"><circle class="cls-3" cx="99.8" cy="94.81" r="94.81" transform="translate(-37.81 98.34) rotate(-45)"/><circle class="cls-4" cx="99.8" cy="94.81" r="94.81" transform="translate(-37.81 98.34) rotate(-45)"/><g class="cls-5"><path class="cls-6" d="M137.41,79c10.07-18.23,6.14-49.21-15.86-56.9-22.84-8-42.51-1.22-44.28,11,0,0-12.08-2.83-20.09,10.1S54.93,77.88,66.9,91,129.22,93.8,137.41,79Z"/><path class="cls-7" d="M182.39,191.6H17.21s5-27.71,16.36-43.66,53.49-21.77,53.49-21.77l12.74,2,12.74-2S154.69,132,166,147.94,182.39,191.6,182.39,191.6Z"/><g class="cls-8"><polygon class="cls-9" points="18.76 136.2 190.51 136.2 190.51 151.19 6.37 151.19 6.37 136.2 18.76 136.2"/><polygon class="cls-9" points="18.76 158.94 190.51 158.94 190.51 173.93 6.37 173.93 6.37 158.94 18.76 158.94"/><polygon class="cls-9" points="18.76 181.69 190.51 181.69 190.51 196.68 6.37 196.68 6.37 181.69 18.76 181.69"/></g><path class="cls-10" d="M75.11,128.27s7.67,19.06,24.91,19.06,23.74-19.06,23.74-19.06S100.45,119.28,75.11,128.27Z"/><path class="cls-10" d="M99.53,140.24h0a11.19,11.19,0,0,1-11.19-11.19V107.67h22.38v21.38A11.19,11.19,0,0,1,99.53,140.24Z"/><path class="cls-11" d="M110.72,105.2v13.12s-3.76,6.54-11.19,6.54c-6,0-11.19-5.67-11.19-5.67v-14Z"/><path class="cls-10" d="M68.22,82.23c-6-9.19-13.07-3.29-13.07,3.18,0,9.37,10.17,17.44,16,10.72S68.22,82.23,68.22,82.23Z"/><path class="cls-12" d="M66.9,86.47c-3.77-7-9-.47-7,2.14"/><path class="cls-10" d="M128.66,82.23c6.05-9.19,13.07-3.29,13.07,3.18,0,9.37-10.16,17.44-16,10.72S128.66,82.23,128.66,82.23Z"/><path class="cls-12" d="M130,86.47c3.76-7,9-.47,7,2.14"/><path class="cls-10" d="M98.41,118.32c-23.9,0-38-26.13-32.45-53,4.6-22.1,60.36-22.09,65,0C136.52,92.19,122.33,118.33,98.41,118.32Z"/><path class="cls-10" d="M107.74,56.29C116.13,41.47,99.22,31,91.62,35.53S82.41,45,82.66,51c0,0-2.92-10.35-9.54-5.57s-4.33,18.06-4.33,18.06l4.33,2.33Z"/><path class="cls-13" d="M95.24,91.47c2.46,1.17,8-1.43,8.12,0s-2.94,2.7-4.06,2.7S95.24,91.47,95.24,91.47Z"/><path class="cls-12" d="M95.32,84.26c-3.49,7.54,1.73,9,3.12,9.19"/><path class="cls-14" d="M90.1,97.55c9.23,1.77,16.54.29,19.5-2.07"/><path class="cls-6" d="M89,63.71c-1.5-3.34-10.25-1.81-11.49.56s2.86,3,5.9,2.89S89.94,65.83,89,63.71Z"/><path class="cls-6" d="M107.9,63.71c1.49-3.34,10.25-1.81,11.49.56s-2.86,3-5.9,2.89S107,65.83,107.9,63.71Z"/><path class="cls-13" d="M96.29,102.1c3.35,0,8.15-1.73,8.89,0s-3.34,5.2-5.88,5S92.47,102.09,96.29,102.1Z"/><path class="cls-11" d="M82.66,76.57a2.41,2.41,0,1,0,2.41-2.41A2.41,2.41,0,0,0,82.66,76.57Z"/><path class="cls-11" d="M114.22,76.57a2.41,2.41,0,1,1-2.4-2.41A2.4,2.4,0,0,1,114.22,76.57Z"/><path class="cls-6" d="M82.66,51c.88-12.18,17.91-4.17,27.36,6,11.12,12,19.88,14.2,27.39,8.82s-2.32-29.66-25.59-35S79.45,42.46,82.66,51Z"/><path class="cls-6" d="M82.66,51c-4.46-8.84-15.76,7.7-17.92,23.2-1.3,9.32-2.9-2.9-5.26-5.24s-2-20.69,11.27-24.8S82.66,51,82.66,51Z"/></g></g></g></svg>