<svg xmlns="http://www.w3.org/2000/svg" xmlns:xlink="http://www.w3.org/1999/xlink" viewBox="0 0 153.09 153.4"><defs><style>.cls-1,.cls-12,.cls-9{fill:none;}.cls-2{isolation:isolate;}.cls-3{fill:#f4ddd4;}.cls-4{clip-path:url(#clip-path);}.cls-5{fill:#9fc9c1;}.cls-6{fill:#fff;}.cls-10,.cls-7{fill:#f1b69a;}.cls-8{fill:#150a08;}.cls-9{stroke:#e07e61;}.cls-12,.cls-9{stroke-linecap:round;stroke-miterlimit:10;}.cls-10{opacity:0.5;mix-blend-mode:multiply;}.cls-11{fill:#d88d48;}.cls-12{stroke:#150a08;}</style><clipPath id="clip-path"><circle class="cls-1" cx="76.38" cy="76.64" r="76.71" transform="translate(-31.82 76.46) rotate(-45)"/></clipPath></defs><g class="cls-2"><g id="OBJECTS"><circle class="cls-3" cx="76.38" cy="76.64" r="76.71" transform="translate(-31.82 76.46) rotate(-45)"/><g class="cls-4"><path class="cls-5" d="M136.12,153.34H16.64s5.57-21.51,13.5-34.25,37-17.09,37-17.09l9.21,1.55L85.6,102s29.11,4.34,37,17.09S136.12,153.34,136.12,153.34Z"/><path class="cls-6" d="M67.17,102c-12.1,2.72-17.68,11.53-6.79,13.84,0,0-4.17,7.69,6,11s12.85-5.23,12.85-5.23,6,8.84,13.15,5.23,7.83-10.38,1.11-13.48c0,0,3.94,2.45,5.79-1.25S93.87,102.76,82.8,102,67.17,102,67.17,102Z"/><path class="cls-7" d="M76.16,113.39h0a9.06,9.06,0,0,1-9-9.06V87h18.1v17.29A9.06,9.06,0,0,1,76.16,113.39Z"/><path class="cls-8" d="M85.21,85V95.66s-3,5.28-9,5.28c-4.83,0-9-4.58-9-4.58V85Z"/><path class="cls-7" d="M50.83,66.45C45.94,59,40.26,63.8,40.26,69c0,7.58,8.22,14.11,12.92,8.67S50.83,66.45,50.83,66.45Z"/><path class="cls-9" d="M49.76,69.89c-3-5.69-7.26-.38-5.65,1.73"/><path class="cls-7" d="M99.73,66.45C104.63,59,110.3,63.8,110.3,69c0,7.58-8.22,14.11-12.92,8.67S99.73,66.45,99.73,66.45Z"/><path class="cls-9" d="M100.8,69.89c3-5.69,7.26-.38,5.65,1.73"/><path class="cls-7" d="M75.26,95.66C55.92,95.65,44.48,74.51,49,52.81c3.73-17.88,48.84-17.88,52.56,0C106.08,74.51,94.61,95.67,75.26,95.66Z"/><path class="cls-10" d="M72.69,73.93c2,.95,6.48-1.15,6.57,0S76.88,76.11,76,76.11,72.69,73.93,72.69,73.93Z"/><path class="cls-9" d="M72.75,68.1c-2.82,6.1,1.4,7.28,2.53,7.43"/><path class="cls-11" d="M67.63,51.47c-1.21-2.7-8.29-1.47-9.29.46s2.31,2.46,4.77,2.34S68.4,53.19,67.63,51.47Z"/><path class="cls-11" d="M82.93,51.47c1.21-2.7,8.29-1.47,9.3.46s-2.32,2.46-4.78,2.34S82.16,53.19,82.93,51.47Z"/><path class="cls-8" d="M62.51,61.87a2,2,0,1,0,1.95-1.94A2,2,0,0,0,62.51,61.87Z"/><path class="cls-8" d="M88.05,61.87a1.95,1.95,0,1,1-2-1.94A1.95,1.95,0,0,1,88.05,61.87Z"/><path class="cls-12" d="M68.49,79.35c7.47,1.43,13.39.24,15.78-1.68"/><path class="cls-10" d="M73.5,83c2.71,0,6.59-1.4,7.19,0s-2.7,4.2-4.75,4S70.41,83,73.5,83Z"/><path class="cls-7" d="M77.55,45.4C80.11,39,79.17,31.14,75.28,31s-8.87,5.72-8.87,5.72l2.08,8.71Z"/><path class="cls-11" d="M73.92,30.8C72,46,98.16,53,103.76,52s4.13-18.88-10-22.12S74.65,25,73.92,30.8Z"/><path class="cls-11" d="M75.28,31c1.91,15.2-24.19,22-29.8,21s-4.13-18.88,10-22.12S74.55,25.15,75.28,31Z"/></g></g></g></svg>