<?xml version="1.0" encoding="utf-8"?>
<!-- Generator: Adobe Illustrator 25.2.0, SVG Export Plug-In . SVG Version: 6.00 Build 0)  -->
<svg version="1.1" xmlns="http://www.w3.org/2000/svg" xmlns:xlink="http://www.w3.org/1999/xlink" x="0px" y="0px"
	 viewBox="0 0 158.97 162.18" style="enable-background:new 0 0 158.97 162.18;" xml:space="preserve">
<style type="text/css">
	.st0{fill:#F4E6E1;}
	.st1{clip-path:url(#SVGID_2_);}
	.st2{fill:#D76A40;}
	.st3{fill:#4C2759;}
	.st4{fill:#FFFFFF;}
	.st5{fill:#F1B69A;}
	.st6{fill:#150A08;}
	.st7{fill:none;stroke:#E07E61;stroke-linecap:round;stroke-miterlimit:10;}
	.st8{opacity:0.5;fill:#F1B69A;}
	.st9{clip-path:url(#SVGID_4_);}
	.st10{fill:#5B4852;}
	.st11{fill:#320E96;}
	.st12{fill:#16084C;}
	.st13{fill:none;stroke:#150A08;stroke-linecap:round;stroke-miterlimit:10;}
	.st14{fill:#D88D48;}
</style>
<g id="BACKGROUND">
</g>
<g id="OBJECTS">
	<g>
		
			<ellipse transform="matrix(0.1641 -0.9864 0.9864 0.1641 -13.5481 146.1903)" class="st0" cx="79.49" cy="81.09" rx="79.49" ry="79.49"/>
		<g>
			<defs>
				
					<ellipse id="SVGID_3_" transform="matrix(0.1641 -0.9864 0.9864 0.1641 -13.5481 146.1903)" cx="79.49" cy="81.09" rx="79.49" ry="79.49"/>
			</defs>
			<clipPath id="SVGID_2_">
				<use xlink:href="#SVGID_3_"  style="overflow:visible;"/>
			</clipPath>
			<g class="st1">
				<path class="st10" d="M49.59,69.77C33.11,48.71,47.08,26.2,59.76,19.1c18.59-10.4,49.79-7.22,53.85,0.71
					c3.53,6.9-2.6,13.08-2.6,13.08s9.34,2.48,8.99,10.9c-0.35,8.42-10.9,12.57-10.9,12.57s10.86,6.67-8.99,19.44
					C80.26,88.56,53.12,74.28,49.59,69.77z"/>
				<g>
					<path class="st11" d="M148.72,162.23H10.25c0,0,4.2-23.22,13.72-36.59c9.52-13.38,44.84-18.26,44.84-18.26l10.68,1.65
						l10.68-1.65c0,0,35.33,4.88,44.85,18.26C144.54,139,148.72,162.23,148.72,162.23z"/>
					<path class="st12" d="M113.69,111.88c-1.61,11.82-11.59,18.9-20.32,22.89c-8.69,3.97-18.62,3.97-27.31,0
						c-8.73-3.99-18.71-11.07-20.32-22.89l6.17-1.15c1.39,10.2,10.39,16.08,17.78,19.24c6.42,2.74,13.65,2.74,20.07,0
						c7.39-3.16,16.4-9.05,17.78-19.24L113.69,111.88z"/>
					<path class="st5" d="M107.52,110.72c-1.44,10.63-11.16,16.58-18.71,19.63c-5.84,2.37-12.36,2.37-18.21,0
						c-7.55-3.06-17.26-9-18.71-19.63c10.78-3.55,25.66-5.09,25.92-5.11c1.22-0.08,1.9-0.09,1.9-0.09s0.67,0.01,1.9,0.09
						C81.86,105.64,96.74,107.17,107.52,110.72z"/>
					<g>
						<path class="st5" d="M79.26,119.17L79.26,119.17c-5.18,0-9.38-4.2-9.38-9.38V91.87h18.76v17.92
							C88.64,114.97,84.44,119.17,79.26,119.17z"/>
						<path class="st6" d="M88.64,89.8v11c0,0-3.15,5.48-9.38,5.48c-5.01,0-9.38-4.75-9.38-4.75V89.8H88.64z"/>
						<g>
							<path class="st5" d="M53.01,70.54c-5.07-7.71-10.96-2.76-10.96,2.67c0,7.86,8.52,14.62,13.39,8.98
								C60.31,76.55,53.01,70.54,53.01,70.54z"/>
							<path class="st7" d="M51.9,74.1c-3.16-5.9-7.52-0.39-5.85,1.79"/>
							<path class="st5" d="M103.68,70.54c5.07-7.71,10.96-2.76,10.96,2.67c0,7.86-8.52,14.62-13.39,8.98
								C96.38,76.55,103.68,70.54,103.68,70.54z"/>
							<path class="st7" d="M104.79,74.1c3.16-5.9,7.52-0.39,5.85,1.79"/>
						</g>
						<path class="st5" d="M78.32,100.8c-20.04-0.01-31.9-21.91-27.21-44.4c3.86-18.53,50.61-18.52,54.47,0
							C110.26,78.89,98.38,100.81,78.32,100.8z"/>
						<path class="st8" d="M75.66,78.29c2.06,0.98,6.71-1.2,6.81,0s-2.47,2.26-3.4,2.26C78.13,80.55,75.66,78.29,75.66,78.29z"/>
						<path class="st7" d="M75.73,72.24c-2.92,6.32,1.45,7.55,2.62,7.7"/>
						<path class="st13" d="M71.35,83.38c7.74,1.49,13.87,0.25,16.35-1.73"/>
						<path class="st14" d="M70.42,55.01c-1.25-2.8-8.59-1.52-9.63,0.47c-1.04,1.99,2.4,2.55,4.95,2.43
							C68.28,57.79,71.22,56.79,70.42,55.01z"/>
						<path class="st14" d="M85.98,57.28c1.25-2.8,8.59-1.52,9.63,0.47c1.04,1.99-2.4,2.55-4.95,2.43
							C88.11,60.05,85.18,59.06,85.98,57.28z"/>
						<path class="st8" d="M76.54,87.2c2.81,0.01,6.83-1.45,7.45,0c0.62,1.45-2.8,4.36-4.93,4.15
							C76.94,91.14,73.34,87.19,76.54,87.2z"/>
						<path class="st6" d="M65.12,65.79c0,1.11,0.9,2.02,2.02,2.02c1.11,0,2.02-0.9,2.02-2.02c0-1.11-0.9-2.02-2.02-2.02
							C66.02,63.78,65.12,64.68,65.12,65.79z"/>
						<path class="st6" d="M91.58,65.79c0,1.11-0.9,2.02-2.02,2.02c-1.11,0-2.02-0.9-2.02-2.02c0-1.11,0.9-2.02,2.02-2.02
							C90.67,63.78,91.58,64.68,91.58,65.79z"/>
					</g>
				</g>
			</g>
		</g>
	</g>
</g>
</svg>
