<?xml version="1.0" encoding="utf-8"?>
<!-- Generator: Adobe Illustrator 25.2.0, SVG Export Plug-In . SVG Version: 6.00 Build 0)  -->
<svg version="1.1" xmlns="http://www.w3.org/2000/svg" xmlns:xlink="http://www.w3.org/1999/xlink" x="0px" y="0px"
	 viewBox="0 0 158.97 162.18" style="enable-background:new 0 0 158.97 162.18;" xml:space="preserve">
<style type="text/css">
	.st0{fill:#F4E6E1;}
	.st1{clip-path:url(#SVGID_2_);}
	.st2{fill:#D76A40;}
	.st3{fill:#4C2759;}
	.st4{fill:#FFFFFF;}
	.st5{fill:#F1B69A;}
	.st6{fill:#150A08;}
	.st7{fill:none;stroke:#E07E61;stroke-linecap:round;stroke-miterlimit:10;}
	.st8{opacity:0.5;fill:#F1B69A;}
	.st9{clip-path:url(#SVGID_4_);}
	.st10{fill:#5B4852;}
	.st11{fill:#320E96;}
	.st12{fill:#16084C;}
	.st13{fill:none;stroke:#150A08;stroke-linecap:round;stroke-miterlimit:10;}
	.st14{fill:#D88D48;}
</style>
<g id="BACKGROUND">
</g>
<g id="OBJECTS">
	<g>
		
			<ellipse transform="matrix(0.1641 -0.9864 0.9864 0.1641 -13.8103 146.4345)" class="st0" cx="79.5" cy="81.37" rx="79.47" ry="79.47"/>
		<g>
			<defs>
				
					<ellipse id="SVGID_1_" transform="matrix(0.1641 -0.9864 0.9864 0.1641 -13.8103 146.4345)" cx="79.5" cy="81.37" rx="79.47" ry="79.47"/>
			</defs>
			<clipPath id="SVGID_2_">
				<use xlink:href="#SVGID_1_"  style="overflow:visible;"/>
			</clipPath>
			<g class="st1">
				<path class="st2" d="M111.01,66.78c0.64-8.86,7.38-33.51-7.16-31.83c-1.88-12.83-13.91-19.33-25.49-18.74
					C46.93,17.82,42.07,46.52,47,66.78c7.97,21.24,48.95,4.63,64.01,0.03C111.01,66.8,111.01,66.79,111.01,66.78z"/>
				<g>
					<path class="st3" d="M148.73,162.49H10.27c0,0,4.2-23.22,13.71-36.59c9.52-13.38,44.83-18.25,44.83-18.25l10.68,1.65
						l10.68-1.65c0,0,35.33,4.88,44.84,18.25C144.54,139.27,148.73,162.49,148.73,162.49z"/>
					<path class="st4" d="M60.61,108.65c9.41-2.17,17.42-1.53,18.7-1.41c0,0,0,0,0.01,0c1.28-0.12,9.29-0.76,18.7,1.41
						c0.9,8.42-2.58,19.03-18.53,19.08C63.35,127.78,59.7,117.18,60.61,108.65z"/>
					<g>
						<path class="st5" d="M79.27,119.44L79.27,119.44c-5.18,0-9.38-4.2-9.38-9.38V92.15h18.76v17.92
							C88.65,115.24,84.45,119.44,79.27,119.44z"/>
						<path class="st6" d="M88.65,91.1v11c0,0-3.15,5.48-9.38,5.48c-5.01,0-9.38-4.75-9.38-4.75V91.1H88.65z"/>
						<g>
							<path class="st5" d="M53.03,70.82c-5.07-7.7-10.95-2.75-10.95,2.67c0,7.85,8.52,14.62,13.39,8.98
								C60.33,76.83,53.03,70.82,53.03,70.82z"/>
							<path class="st7" d="M51.92,74.38c-3.16-5.9-7.52-0.39-5.85,1.79"/>
							<path class="st5" d="M103.69,70.82c5.07-7.7,10.95-2.75,10.95,2.67c0,7.85-8.52,14.62-13.39,8.98
								C96.39,76.83,103.69,70.82,103.69,70.82z"/>
							<path class="st7" d="M104.8,74.38c3.16-5.9,7.52-0.39,5.85,1.79"/>
						</g>
						<path class="st5" d="M78.34,101.07c-20.04-0.01-31.89-21.91-27.21-44.39c3.86-18.53,50.6-18.52,54.46,0
							C110.27,79.17,98.39,101.08,78.34,101.07z"/>
						<path class="st8" d="M75.67,78.57c2.06,0.98,6.71-1.2,6.81,0c0.1,1.2-2.47,2.26-3.4,2.26S75.67,78.57,75.67,78.57z"/>
						<path class="st7" d="M75.74,72.52c-2.92,6.32,1.45,7.55,2.62,7.7"/>
						<path class="st4" d="M71.07,84.55c7.67,0.82,12.8-0.02,16.44,0.11c0,0-4.59,6.49-10,5.2S71.07,84.55,71.07,84.55z"/>
						<path class="st2" d="M70.43,55.29c-1.25-2.8-8.59-1.52-9.63,0.47c-1.04,1.99,2.4,2.55,4.95,2.43
							C68.3,58.07,71.23,57.07,70.43,55.29z"/>
						<path class="st2" d="M86.28,55.29c1.25-2.8,8.59-1.52,9.63,0.47c1.04,1.99-2.4,2.55-4.95,2.43
							C88.42,58.07,85.49,57.07,86.28,55.29z"/>
						<path class="st8" d="M76.37,91.74c2.81,0.01,6.83-1.45,7.45,0c0.62,1.45-2.8,4.36-4.93,4.15
							C76.77,95.68,73.17,91.73,76.37,91.74z"/>
						<path class="st6" d="M65.13,66.07c0,1.11,0.9,2.02,2.02,2.02c1.11,0,2.02-0.9,2.02-2.02c0-1.11-0.9-2.02-2.02-2.02
							C66.03,64.06,65.13,64.96,65.13,66.07z"/>
						<circle class="st6" cx="89.57" cy="66.07" r="2.02"/>
					</g>
				</g>
				<path class="st2" d="M63,43.14l4.67-1.13c0,0-6.08,9.76,6.87,11.63c12.95,1.87,26.45-6.9,15.69-11.37l3.91-0.26l-9.41-7.22
					L63,43.14z"/>
			</g>
		</g>
	</g>
</g>
</svg>
