<svg id="Layer_1" data-name="Layer 1" xmlns="http://www.w3.org/2000/svg" xmlns:xlink="http://www.w3.org/1999/xlink" viewBox="0 0 858.3 77.29"><defs><style>.cls-1,.cls-10,.cls-11,.cls-12,.cls-13,.cls-14,.cls-15,.cls-16,.cls-17,.cls-18,.cls-19,.cls-2,.cls-3,.cls-4,.cls-5,.cls-6,.cls-7,.cls-8,.cls-9{fill:none;stroke-miterlimit:10;stroke-width:2px;}.cls-1{stroke:url(#linear-gradient);}.cls-2{stroke:url(#linear-gradient-2);}.cls-3{stroke:url(#linear-gradient-3);}.cls-4{stroke:url(#linear-gradient-4);}.cls-5{stroke:url(#linear-gradient-5);}.cls-6{stroke:url(#linear-gradient-6);}.cls-7{stroke:url(#linear-gradient-7);}.cls-8{stroke:url(#linear-gradient-8);}.cls-9{stroke:url(#linear-gradient-9);}.cls-10{stroke:url(#linear-gradient-10);}.cls-11{stroke:url(#linear-gradient-11);}.cls-12{stroke:url(#linear-gradient-12);}.cls-13{stroke:url(#linear-gradient-13);}.cls-14{stroke:url(#linear-gradient-14);}.cls-15{stroke:url(#linear-gradient-15);}.cls-16{stroke:url(#linear-gradient-16);}.cls-17{stroke:url(#linear-gradient-17);}.cls-18{stroke:url(#linear-gradient-18);}.cls-19{stroke:url(#linear-gradient-19);}</style><linearGradient id="linear-gradient" x1="-1.37" y1="32.13" x2="52.39" y2="32.13" gradientUnits="userSpaceOnUse"><stop offset="0" stop-color="#c901fd"/><stop offset="1" stop-color="#00ff57"/></linearGradient><linearGradient id="linear-gradient-2" x1="53.25" y1="32.57" x2="93.02" y2="32.57" xlink:href="#linear-gradient"/><linearGradient id="linear-gradient-3" x1="95.41" y1="39.47" x2="136.43" y2="39.47" xlink:href="#linear-gradient"/><linearGradient id="linear-gradient-4" x1="135.64" y1="39.47" x2="176.93" y2="39.47" xlink:href="#linear-gradient"/><linearGradient id="linear-gradient-5" x1="183.99" y1="39.04" x2="222.27" y2="39.04" xlink:href="#linear-gradient"/><linearGradient id="linear-gradient-6" x1="225.39" y1="33.31" x2="255.86" y2="33.31" xlink:href="#linear-gradient"/><linearGradient id="linear-gradient-7" x1="258.4" y1="39.47" x2="299.69" y2="39.47" xlink:href="#linear-gradient"/><linearGradient id="linear-gradient-8" x1="302.53" y1="43.23" x2="350.44" y2="43.23" xlink:href="#linear-gradient"/><linearGradient id="linear-gradient-9" x1="351.17" y1="39.47" x2="393.09" y2="39.47" xlink:href="#linear-gradient"/><linearGradient id="linear-gradient-10" x1="393.94" y1="39.47" x2="433.82" y2="39.47" xlink:href="#linear-gradient"/><linearGradient id="linear-gradient-11" x1="457.9" y1="32.13" x2="508.03" y2="32.13" xlink:href="#linear-gradient"/><linearGradient id="linear-gradient-12" x1="510.12" y1="31" x2="537.49" y2="31" xlink:href="#linear-gradient"/><linearGradient id="linear-gradient-13" x1="562.89" y1="32.13" x2="611.54" y2="32.13" xlink:href="#linear-gradient"/><linearGradient id="linear-gradient-14" x1="618.01" y1="32.13" x2="633.19" y2="32.13" xlink:href="#linear-gradient"/><linearGradient id="linear-gradient-15" x1="636.85" y1="32.13" x2="680.25" y2="32.13" xlink:href="#linear-gradient"/><linearGradient id="linear-gradient-16" x1="680.9" y1="32.13" x2="731.2" y2="32.13" xlink:href="#linear-gradient"/><linearGradient id="linear-gradient-17" x1="736.1" y1="32.13" x2="773.97" y2="32.13" xlink:href="#linear-gradient"/><linearGradient id="linear-gradient-18" x1="782.13" y1="39.01" x2="806.65" y2="39.01" xlink:href="#linear-gradient"/><linearGradient id="linear-gradient-19" x1="809.11" y1="39.47" x2="851.03" y2="39.47" xlink:href="#linear-gradient"/></defs><path class="cls-1" d="M33.37,3.93,51,60.34H36.83L33.36,48.72H15.12L11.58,60.34H0L18.08,3.93ZM18.29,38.31h12L24.32,18.52Z"/><path class="cls-2" d="M92,3.93V60.34H80.66V53.81q-4.23,7.39-11.51,7.39a12.65,12.65,0,0,1-10.9-5.64q-4-5.64-4-15.64,0-10.41,4-16.3t11.56-5.88A11.7,11.7,0,0,1,80.08,23v-19ZM80.08,36.08q0-9.82-6-9.83Q67,26.25,67,40.13q0,12.36,6.67,12.36a5.8,5.8,0,0,0,4.5-2.24,9.44,9.44,0,0,0,1.93-6.36Z"/><path class="cls-3" d="M135,18.6l-14.3,41.74h-9.58L96.81,18.6h12.8l8,26.45,8.23-26.45Z"/><path class="cls-4" d="M175.57,60.34H163.63a29.52,29.52,0,0,1-.58-6.53q-3.13,4.45-6.25,5.93a16.56,16.56,0,0,1-7.08,1.46A13.82,13.82,0,0,1,140.25,58a10.84,10.84,0,0,1-3.61-8.55,13.21,13.21,0,0,1,2.11-7.23,13.81,13.81,0,0,1,6.76-5.19q4.67-1.87,17-2.79V31.87q0-6.07-6.06-6.08-6.47,0-7.2,6.08l-11.37-1.08q1.13-7.11,6.74-10.08a26.81,26.81,0,0,1,12.73-3,31.39,31.39,0,0,1,8,1,13.41,13.41,0,0,1,5.87,3,10.42,10.42,0,0,1,2.85,4.2,27.14,27.14,0,0,1,.74,7.7V52.53A28.6,28.6,0,0,0,175.57,60.34Zm-13.06-20q-12.88,1.27-12.89,7.81A5.61,5.61,0,0,0,151,51.93a4.8,4.8,0,0,0,3.87,1.59,6.77,6.77,0,0,0,5.46-2.71,10.21,10.21,0,0,0,2.2-6.67Z"/><path class="cls-5" d="M221.27,60.34H209V36.91a33.66,33.66,0,0,0-.33-5.83A4.7,4.7,0,0,0,207,28.42a4.78,4.78,0,0,0-3.22-1.1q-6.49,0-6.49,9.59V60.34H185V18.6h11.44v7.07q2.85-5,5.62-6.49a12.82,12.82,0,0,1,6-1.44q6,0,9.59,3.2t3.64,12.58Z"/><path class="cls-6" d="M245.31,28.19V45.83c0,2.21.33,3.68,1,4.42s2.21,1.12,4.65,1.12c1.13,0,2.43-.06,3.91-.17v9.14a53.41,53.41,0,0,1-7.73.9q-7.68,0-10.91-3T233,47.61V28.19h-6.61V18.6h7.31l1-12.31,10.61-.83V18.6h9v9.59Z"/><path class="cls-7" d="M298.33,60.34H286.39a29.52,29.52,0,0,1-.58-6.53q-3.13,4.45-6.25,5.93a16.56,16.56,0,0,1-7.08,1.46A13.82,13.82,0,0,1,263,58a10.84,10.84,0,0,1-3.61-8.55,13.21,13.21,0,0,1,2.11-7.23,13.81,13.81,0,0,1,6.76-5.19q4.67-1.87,17-2.79V31.87q0-6.07-6-6.08-6.48,0-7.21,6.08l-11.37-1.08q1.13-7.11,6.74-10.08a26.81,26.81,0,0,1,12.73-3,31.33,31.33,0,0,1,8,1,13.41,13.41,0,0,1,5.87,3,10.42,10.42,0,0,1,2.85,4.2,27.14,27.14,0,0,1,.74,7.7V52.53A28.6,28.6,0,0,0,298.33,60.34Zm-13.06-20q-12.88,1.27-12.89,7.81a5.61,5.61,0,0,0,1.36,3.78,4.81,4.81,0,0,0,3.87,1.59,6.77,6.77,0,0,0,5.46-2.71,10.21,10.21,0,0,0,2.2-6.67Z"/><path class="cls-8" d="M349.44,19.55a16.48,16.48,0,0,0-3.26-.41q-4.1,0-4.8,3.64a11.2,11.2,0,0,1,3.35,7.93,11,11,0,0,1-4.94,9.42q-4.94,3.51-14.23,3.51a33.51,33.51,0,0,1-6.45-.62A3.65,3.65,0,0,0,317,46.2a2.76,2.76,0,0,0,1.78,2.85q1.79.71,8.55,1a112.85,112.85,0,0,1,13.27,1.2,10.92,10.92,0,0,1,6.11,3.38,9.5,9.5,0,0,1,2.48,6.7q0,5.75-5.31,9.71t-18.82,4q-12.68,0-17.1-2.76t-4.43-7q0-5.58,7.15-7.53-5.28-2.64-5.29-7.43,0-6,8.35-9.34-7.39-3.06-7.4-10.2a11.1,11.1,0,0,1,5.11-9.45q5.1-3.63,14.11-3.63a34,34,0,0,1,11,1.81,11.52,11.52,0,0,1,2.09-5.84q1.71-2.3,7.29-2.3a17.69,17.69,0,0,1,3.47.33Zm-32.19,40.5a3.25,3.25,0,0,0-1.88,1,3.05,3.05,0,0,0-1.13,2.39c0,1.88,1.19,3.05,3.59,3.52a45.2,45.2,0,0,0,8.43.7c4.21,0,7.17-.32,8.86-1s2.54-1.65,2.54-3.06c0-1.07-.7-1.9-2.12-2.48s-5.2-.87-11.35-.87l-2.48.05a24,24,0,0,1-3-.13A7.84,7.84,0,0,0,317.25,60.05Zm8.21-35.66a6.9,6.9,0,0,0-5,1.71,6,6,0,0,0-1.79,4.53q0,6.36,6.8,6.36a7,7,0,0,0,5.17-1.86,6.3,6.3,0,0,0,.1-8.86A6.93,6.93,0,0,0,325.46,24.39Z"/><path class="cls-9" d="M392,41.53H365.18c0,.75,0,1.4,0,1.95,0,3,.79,5.22,2.38,6.73a7.91,7.91,0,0,0,5.68,2.28q6.15,0,7.4-6.58l11.15.83q-4.67,14.46-19,14.46a20.94,20.94,0,0,1-10.6-2.5A19.58,19.58,0,0,1,355,51.41a22.15,22.15,0,0,1-2.83-11.49q0-10,5.68-16.07a20.09,20.09,0,0,1,28.43-.43Q392,29.09,392,41.53Zm-26.9-7.14H380q-.59-8.59-7.07-8.6Q366,25.79,365.14,34.39Z"/><path class="cls-10" d="M431.05,28.68l-9,2.4q-1.57-5.66-8.14-5.66-6.19,0-6.2,3.77a2.88,2.88,0,0,0,1.14,2.38q1.13.88,5.93,1.5a55.4,55.4,0,0,1,10.58,2.18,10.93,10.93,0,0,1,5.43,4.18,12.46,12.46,0,0,1,2,7.23,13,13,0,0,1-4.89,10.49q-4.9,4.05-13.7,4.05-15.94,0-19.05-12.35l10.37-1.53q1.29,5.63,9.26,5.62a11.06,11.06,0,0,0,5.16-1.1,3.3,3.3,0,0,0,2.11-3c0-1.93-1.55-3.08-4.67-3.43q-12.65-1.56-16.63-4.84a11.22,11.22,0,0,1-4-9.16,12.28,12.28,0,0,1,4.63-9.83q4.62-3.89,13-3.88,6.62,0,10.58,2.6C427.62,22.07,429.64,24.86,431.05,28.68Z"/><path class="cls-11" d="M482.76,61.2q-11.4,0-17.63-8.55T458.9,32q0-12.36,6.31-20.62t18-8.26Q495,3.07,501,11.89a35,35,0,0,1,6,20.18q0,12.27-6.19,20.7T482.76,61.2Zm.37-47.35q-10.39,0-10.39,18.26t10.39,18.31q10.06,0,10.06-18.26T483.13,13.85Z"/><path class="cls-12" d="M527.94,28.19V60.34H516V28.19h-4.84V18.6H516a38.74,38.74,0,0,1,.93-9.4A9.65,9.65,0,0,1,521.25,4c2.34-1.52,5.52-2.29,9.54-2.29a40.19,40.19,0,0,1,5.7.46v9.5q-2.64-.21-4.38-.21c-1.68,0-2.79.44-3.34,1.33a8.41,8.41,0,0,0-.83,4.29V18.6h7.56v9.59Z"/><path class="cls-13" d="M563.89,3.93h26.28q7.07,0,10.62,1.74a15.53,15.53,0,0,1,5.87,4.95A13.11,13.11,0,0,1,609,18.47Q609,27.85,598.8,31a14.46,14.46,0,0,1,8.81,5.25,14,14,0,0,1,2.93,8.56,14.7,14.7,0,0,1-4.79,10.94q-4.8,4.6-15.58,4.61H563.89Zm13.18,10V26.25h10c3.66,0,6-.73,6.92-2.17a7.63,7.63,0,0,0,1.43-4.16,5.94,5.94,0,0,0-1.18-3.69,5.09,5.09,0,0,0-2.58-2,25.14,25.14,0,0,0-5.54-.39Zm0,22.4V49.88h10.14c3.47,0,5.91-.6,7.34-1.82a6.73,6.73,0,0,0,.08-9.79q-2.05-2-6.84-2Z"/><path class="cls-14" d="M632.19,3.93V60.34H619V3.93Z"/><path class="cls-15" d="M679.25,3.93V15.09h-14V60.34H651.9V15.09h-14V3.93Z"/><path class="cls-16" d="M730.08,24.92l-13.85.87q-.29-11.94-9.31-11.94-10.35,0-10.35,18.39,0,10.62,2.81,14.4a9.25,9.25,0,0,0,7.87,3.78q8.19,0,10-10.66l12.81.78q-1.25,10.13-7.54,15.4A23.29,23.29,0,0,1,707.1,61.2q-11.19,0-18.2-7.72t-7-21.37q0-12.76,6.77-20.9t18.52-8.14Q727.52,3.07,730.08,24.92Z"/><path class="cls-17" d="M749,3.93V24.28q3.39-6.54,11.28-6.54a13.55,13.55,0,0,1,7.21,1.83,10.24,10.24,0,0,1,4.22,4.73A22.87,22.87,0,0,1,773,32.78V60.34H760.65V36.79a33.34,33.34,0,0,0-.33-5.79,4.73,4.73,0,0,0-1.5-2.62,4.2,4.2,0,0,0-2.94-1.06,7.32,7.32,0,0,0-4.57,1.8Q749,30.92,749,36.79V60.34H737.1V3.93Z"/><path class="cls-18" d="M795.07,60.34H783.13V18.6h11.28v7.77q2.61-8.67,9-8.68c.6,0,1.35,0,2.23.13V30a12.21,12.21,0,0,0-5.85,1.15,8.43,8.43,0,0,0-3.41,4.16,20.31,20.31,0,0,0-1.32,8.07Z"/><path class="cls-19" d="M829.8,17.74q9.54,0,14.88,6.23T850,39.59A22.25,22.25,0,0,1,844.48,55q-5.57,6.16-14.76,6.17-8.91,0-14.26-6.11t-5.35-15.7a24.23,24.23,0,0,1,2.42-11.3,20,20,0,0,1,6.62-7.5A18.61,18.61,0,0,1,829.8,17.74Zm.33,8.05a5.9,5.9,0,0,0-5.27,2.71q-1.77,2.7-1.77,10.76,0,7.4,1.69,10.62a5.56,5.56,0,0,0,5.27,3.22,5.93,5.93,0,0,0,5.07-2.74q1.93-2.74,1.93-10.48,0-8.22-1.71-11.15A5.62,5.62,0,0,0,830.13,25.79Z"/></svg>