<svg xmlns="http://www.w3.org/2000/svg" xmlns:xlink="http://www.w3.org/1999/xlink" viewBox="0 0 199.6 189.62"><defs><style>.cls-1,.cls-10{fill:none;}.cls-2{isolation:isolate;}.cls-3{fill:#f4e6e1;}.cls-4{clip-path:url(#clip-path);}.cls-5{fill:#d76a40;}.cls-6{fill:#5b4850;}.cls-7{fill:#fff;}.cls-11,.cls-8{fill:#f1b69a;}.cls-9{fill:#150a08;}.cls-10{stroke:#e07e61;stroke-linecap:round;stroke-miterlimit:10;}.cls-11{opacity:0.5;mix-blend-mode:multiply;}</style><clipPath id="clip-path"><circle class="cls-1" cx="99.8" cy="94.81" r="94.81" transform="translate(-37.81 98.34) rotate(-45)"/></clipPath></defs><g class="cls-2"><g id="OBJECTS"><circle class="cls-3" cx="99.8" cy="94.81" r="94.81" transform="translate(-37.81 98.34) rotate(-45)"/><g class="cls-4"><path class="cls-5" d="M137.4,77.41c.77-10.57,8.81-40-8.55-38-2.24-15.31-16.59-23.06-30.41-22.35C61,19,55.15,53.24,61,77.41c9.51,25.34,58.4,5.53,76.37,0Z"/><path class="cls-6" d="M182.39,191.6H17.21s5-27.71,16.36-43.66,53.49-21.77,53.49-21.77l12.74,2,12.74-2S154.69,132,166,147.94,182.39,191.6,182.39,191.6Z"/><path class="cls-7" d="M77.27,127.36a75,75,0,0,1,22.31-1.68h0a75,75,0,0,1,22.31,1.68c1.07,10-3.08,22.7-22.11,22.76C80.54,150.18,76.19,137.53,77.27,127.36Z"/><path class="cls-8" d="M99.53,140.24h0a11.19,11.19,0,0,1-11.19-11.19V107.67h22.38v21.38A11.19,11.19,0,0,1,99.53,140.24Z"/><path class="cls-9" d="M110.72,106.42v13.13s-3.76,6.53-11.19,6.53c-6,0-11.19-5.67-11.19-5.67v-14Z"/><path class="cls-8" d="M68.22,82.23c-6-9.19-13.07-3.29-13.07,3.18,0,9.37,10.17,17.44,16,10.72S68.22,82.23,68.22,82.23Z"/><path class="cls-10" d="M66.9,86.47c-3.77-7-9-.47-7,2.14"/><path class="cls-8" d="M128.66,82.23c6.05-9.19,13.07-3.29,13.07,3.18,0,9.37-10.16,17.44-16,10.72S128.66,82.23,128.66,82.23Z"/><path class="cls-10" d="M130,86.47c3.76-7,9-.47,7,2.14"/><path class="cls-8" d="M98.41,118.32c-23.9,0-38-26.13-32.45-53,4.6-22.1,60.36-22.09,65,0C136.52,92.19,122.33,118.33,98.41,118.32Z"/><path class="cls-5" d="M133.7,74.16s-.31,24.08-9.3,35.34-24.87,12-24.87,12-17.82-.72-26.79-12-9.3-35.34-9.3-35.34l1.25-2.43c.91,6.46,5.13,23.18,10.21,26.88,8.31-2.78,14.53-3.09,24-3.09,10.15,0,16.62,1.09,23.67,2,4.09-3.6,9-19.88,9.86-25.77Z"/><path class="cls-11" d="M95.24,91.47c2.46,1.17,8-1.43,8.12,0s-2.94,2.7-4.06,2.7S95.24,91.47,95.24,91.47Z"/><path class="cls-10" d="M95.32,84.26c-3.49,7.54,1.73,9,3.12,9.19"/><path class="cls-7" d="M89.75,98.61c9.15,1,15.27,0,19.61.13,0,0-5.48,7.74-11.93,6.2S89.75,98.61,89.75,98.61Z"/><path class="cls-5" d="M89,63.71c-1.5-3.34-10.25-1.81-11.49.56s2.86,3,5.9,2.89S89.94,65.83,89,63.71Z"/><path class="cls-5" d="M107.9,63.71c1.49-3.34,10.25-1.81,11.49.56s-2.86,3-5.9,2.89S107,65.83,107.9,63.71Z"/><path class="cls-11" d="M96.07,107.19c3.35,0,8.15-1.73,8.89,0s-3.34,5.2-5.88,5S92.25,107.18,96.07,107.19Z"/><path class="cls-9" d="M82.66,76.57a2.41,2.41,0,1,0,2.41-2.41A2.41,2.41,0,0,0,82.66,76.57Z"/><circle class="cls-9" cx="111.82" cy="76.57" r="2.41"/><path class="cls-5" d="M80.12,49.21l5.58-1.35S78.44,59.5,93.9,61.74s31.55-8.23,18.72-13.57l4.66-.31-11.23-8.61Z"/></g></g></g></svg>