<svg xmlns="http://www.w3.org/2000/svg" xmlns:xlink="http://www.w3.org/1999/xlink" viewBox="0 0 152.29 153.13"><defs><style>.cls-1,.cls-8{fill:none;}.cls-2{isolation:isolate;}.cls-3{fill:#f4ddd4;}.cls-4{clip-path:url(#clip-path);}.cls-5{fill:#5b4850;}.cls-6,.cls-9{fill:#f1b69a;}.cls-7{fill:#150a08;}.cls-8{stroke:#e07e61;stroke-linecap:round;stroke-miterlimit:10;}.cls-9{opacity:0.5;mix-blend-mode:multiply;}.cls-10{fill:#d76a40;}.cls-11{fill:#fff;}</style><clipPath id="clip-path"><circle class="cls-1" cx="76.13" cy="76.43" r="76.71" transform="translate(-31.74 76.22) rotate(-45)"/></clipPath></defs><g class="cls-2"><g id="OBJECTS"><circle class="cls-3" cx="76.13" cy="76.43" r="76.71" transform="translate(-31.74 76.22) rotate(-45)"/><g class="cls-4"><path class="cls-5" d="M135.88,153.13H16.39s5.57-21.5,13.5-34.25,37-17.08,37-17.08l9.21,1.54,9.22-1.54s29.11,4.33,37,17.08S135.88,153.13,135.88,153.13Z"/><path class="cls-6" d="M49.51,106.05c14,20,40.46,17.45,53.25,0C102.76,106.05,77.11,94.11,49.51,106.05Z"/><path class="cls-6" d="M75.91,113.18h0a9,9,0,0,1-9-9.05V86.83H85v17.3A9,9,0,0,1,75.91,113.18Z"/><path class="cls-7" d="M85,84.83V95.45s-3,5.29-9,5.29c-4.83,0-9-4.59-9-4.59V84.83Z"/><path class="cls-6" d="M50.58,66.25C45.69,58.81,40,63.59,40,68.82c0,7.58,8.22,14.11,12.92,8.67S50.58,66.25,50.58,66.25Z"/><path class="cls-8" d="M49.51,69.68c-3-5.69-7.25-.38-5.65,1.73"/><path class="cls-6" d="M99.48,66.25c4.9-7.44,10.58-2.66,10.58,2.57,0,7.58-8.23,14.11-12.93,8.67S99.48,66.25,99.48,66.25Z"/><path class="cls-8" d="M100.55,69.68c3-5.69,7.26-.38,5.65,1.73"/><path class="cls-6" d="M75,95.45c-19.34,0-30.78-21.14-26.26-42.85,3.73-17.88,48.84-17.87,52.56,0C105.84,74.31,94.36,95.46,75,95.45Z"/><path class="cls-9" d="M72.44,73.72c2,1,6.48-1.15,6.57,0s-2.38,2.19-3.28,2.19S72.44,73.72,72.44,73.72Z"/><path class="cls-8" d="M72.5,67.89C69.68,74,73.9,75.18,75,75.33"/><path class="cls-10" d="M67.38,51.26c-1.21-2.7-8.29-1.46-9.29.46s2.31,2.46,4.77,2.34S68.15,53,67.38,51.26Z"/><path class="cls-7" d="M82.68,51.26c1.21-2.7,8.29-1.46,9.3.46s-2.32,2.46-4.78,2.34S81.91,53,82.68,51.26Z"/><path class="cls-7" d="M62.27,61.67a1.95,1.95,0,1,0,1.94-2A1.94,1.94,0,0,0,62.27,61.67Z"/><path class="cls-7" d="M87.8,61.67a1.95,1.95,0,1,1-2-2A1.94,1.94,0,0,1,87.8,61.67Z"/><path class="cls-11" d="M67.79,78.54c7.41.8,12.36,0,15.87.1,0,0-4.43,6.27-9.65,5S67.79,78.54,67.79,78.54Z"/><path class="cls-9" d="M72.91,85.48c2.71,0,6.59-1.4,7.19,0s-2.7,4.21-4.75,4S69.82,85.47,72.91,85.48Z"/><path class="cls-10" d="M62.27,33.53c0,18.22,34.57,27,41.29,22.67s1.47-19.77-16.2-24S62.28,28.11,62.27,33.53Z"/><path class="cls-10" d="M62.34,33.4c4.41,8.81-7.71,28.24-14.6,27s-6.88-8.9-1.51-17.92S60.25,29.22,62.34,33.4Z"/></g></g></g></svg>